G04 #@! TF.GenerationSoftware,KiCad,Pcbnew,(6.0.6)*
G04 #@! TF.CreationDate,2023-03-25T01:52:23+10:30*
G04 #@! TF.ProjectId,Coin Adapter,436f696e-2041-4646-9170-7465722e6b69,rev?*
G04 #@! TF.SameCoordinates,Original*
G04 #@! TF.FileFunction,Legend,Top*
G04 #@! TF.FilePolarity,Positive*
%FSLAX46Y46*%
G04 Gerber Fmt 4.6, Leading zero omitted, Abs format (unit mm)*
G04 Created by KiCad (PCBNEW (6.0.6)) date 2023-03-25 01:52:23*
%MOMM*%
%LPD*%
G01*
G04 APERTURE LIST*
%ADD10C,0.150000*%
%ADD11C,0.120000*%
%ADD12R,1.700000X1.700000*%
%ADD13O,1.700000X1.700000*%
G04 APERTURE END LIST*
D10*
X163141161Y-91595380D02*
X163141161Y-90595380D01*
X163141161Y-91071571D02*
X163712590Y-91071571D01*
X163712590Y-91595380D02*
X163712590Y-90595380D01*
X164141161Y-91309666D02*
X164617352Y-91309666D01*
X164045923Y-91595380D02*
X164379257Y-90595380D01*
X164712590Y-91595380D01*
X164903066Y-90595380D02*
X165474495Y-90595380D01*
X165188780Y-91595380D02*
X165188780Y-90595380D01*
X162593542Y-93205380D02*
X162593542Y-92205380D01*
X163069733Y-92538714D02*
X163069733Y-93205380D01*
X163069733Y-92633952D02*
X163117352Y-92586333D01*
X163212590Y-92538714D01*
X163355447Y-92538714D01*
X163450685Y-92586333D01*
X163498304Y-92681571D01*
X163498304Y-93205380D01*
X163974495Y-92538714D02*
X163974495Y-93538714D01*
X163974495Y-92586333D02*
X164069733Y-92538714D01*
X164260209Y-92538714D01*
X164355447Y-92586333D01*
X164403066Y-92633952D01*
X164450685Y-92729190D01*
X164450685Y-93014904D01*
X164403066Y-93110142D01*
X164355447Y-93157761D01*
X164260209Y-93205380D01*
X164069733Y-93205380D01*
X163974495Y-93157761D01*
X165307828Y-92538714D02*
X165307828Y-93205380D01*
X164879257Y-92538714D02*
X164879257Y-93062523D01*
X164926876Y-93157761D01*
X165022114Y-93205380D01*
X165164971Y-93205380D01*
X165260209Y-93157761D01*
X165307828Y-93110142D01*
X165641161Y-92538714D02*
X166022114Y-92538714D01*
X165784019Y-92205380D02*
X165784019Y-93062523D01*
X165831638Y-93157761D01*
X165926876Y-93205380D01*
X166022114Y-93205380D01*
X150926895Y-87587200D02*
X150831657Y-87539580D01*
X150688800Y-87539580D01*
X150545942Y-87587200D01*
X150450704Y-87682438D01*
X150403085Y-87777676D01*
X150355466Y-87968152D01*
X150355466Y-88111009D01*
X150403085Y-88301485D01*
X150450704Y-88396723D01*
X150545942Y-88491961D01*
X150688800Y-88539580D01*
X150784038Y-88539580D01*
X150926895Y-88491961D01*
X150974514Y-88444342D01*
X150974514Y-88111009D01*
X150784038Y-88111009D01*
X151403085Y-88539580D02*
X151403085Y-87539580D01*
X151974514Y-88539580D01*
X151974514Y-87539580D01*
X152450704Y-88539580D02*
X152450704Y-87539580D01*
X152688800Y-87539580D01*
X152831657Y-87587200D01*
X152926895Y-87682438D01*
X152974514Y-87777676D01*
X153022133Y-87968152D01*
X153022133Y-88111009D01*
X152974514Y-88301485D01*
X152926895Y-88396723D01*
X152831657Y-88491961D01*
X152688800Y-88539580D01*
X152450704Y-88539580D01*
X150926895Y-80068800D02*
X150831657Y-80021180D01*
X150688800Y-80021180D01*
X150545942Y-80068800D01*
X150450704Y-80164038D01*
X150403085Y-80259276D01*
X150355466Y-80449752D01*
X150355466Y-80592609D01*
X150403085Y-80783085D01*
X150450704Y-80878323D01*
X150545942Y-80973561D01*
X150688800Y-81021180D01*
X150784038Y-81021180D01*
X150926895Y-80973561D01*
X150974514Y-80925942D01*
X150974514Y-80592609D01*
X150784038Y-80592609D01*
X151403085Y-81021180D02*
X151403085Y-80021180D01*
X151974514Y-81021180D01*
X151974514Y-80021180D01*
X152450704Y-81021180D02*
X152450704Y-80021180D01*
X152688800Y-80021180D01*
X152831657Y-80068800D01*
X152926895Y-80164038D01*
X152974514Y-80259276D01*
X153022133Y-80449752D01*
X153022133Y-80592609D01*
X152974514Y-80783085D01*
X152926895Y-80878323D01*
X152831657Y-80973561D01*
X152688800Y-81021180D01*
X152450704Y-81021180D01*
X138979352Y-84583542D02*
X138931733Y-84631161D01*
X138788876Y-84678780D01*
X138693638Y-84678780D01*
X138550780Y-84631161D01*
X138455542Y-84535923D01*
X138407923Y-84440685D01*
X138360304Y-84250209D01*
X138360304Y-84107352D01*
X138407923Y-83916876D01*
X138455542Y-83821638D01*
X138550780Y-83726400D01*
X138693638Y-83678780D01*
X138788876Y-83678780D01*
X138931733Y-83726400D01*
X138979352Y-83774019D01*
X139407923Y-84678780D02*
X139407923Y-83678780D01*
X139836495Y-84678780D02*
X139836495Y-84154971D01*
X139788876Y-84059733D01*
X139693638Y-84012114D01*
X139550780Y-84012114D01*
X139455542Y-84059733D01*
X139407923Y-84107352D01*
X140265066Y-83774019D02*
X140312685Y-83726400D01*
X140407923Y-83678780D01*
X140646019Y-83678780D01*
X140741257Y-83726400D01*
X140788876Y-83774019D01*
X140836495Y-83869257D01*
X140836495Y-83964495D01*
X140788876Y-84107352D01*
X140217447Y-84678780D01*
X140836495Y-84678780D01*
X156481638Y-98975542D02*
X156434019Y-99023161D01*
X156291161Y-99070780D01*
X156195923Y-99070780D01*
X156053066Y-99023161D01*
X155957828Y-98927923D01*
X155910209Y-98832685D01*
X155862590Y-98642209D01*
X155862590Y-98499352D01*
X155910209Y-98308876D01*
X155957828Y-98213638D01*
X156053066Y-98118400D01*
X156195923Y-98070780D01*
X156291161Y-98070780D01*
X156434019Y-98118400D01*
X156481638Y-98166019D01*
X156910209Y-99070780D02*
X156910209Y-98404114D01*
X156910209Y-98594590D02*
X156957828Y-98499352D01*
X157005447Y-98451733D01*
X157100685Y-98404114D01*
X157195923Y-98404114D01*
X157910209Y-99023161D02*
X157814971Y-99070780D01*
X157624495Y-99070780D01*
X157529257Y-99023161D01*
X157481638Y-98927923D01*
X157481638Y-98546971D01*
X157529257Y-98451733D01*
X157624495Y-98404114D01*
X157814971Y-98404114D01*
X157910209Y-98451733D01*
X157957828Y-98546971D01*
X157957828Y-98642209D01*
X157481638Y-98737447D01*
X158814971Y-99070780D02*
X158814971Y-98070780D01*
X158814971Y-99023161D02*
X158719733Y-99070780D01*
X158529257Y-99070780D01*
X158434019Y-99023161D01*
X158386400Y-98975542D01*
X158338780Y-98880304D01*
X158338780Y-98594590D01*
X158386400Y-98499352D01*
X158434019Y-98451733D01*
X158529257Y-98404114D01*
X158719733Y-98404114D01*
X158814971Y-98451733D01*
X159291161Y-99070780D02*
X159291161Y-98404114D01*
X159291161Y-98070780D02*
X159243542Y-98118400D01*
X159291161Y-98166019D01*
X159338780Y-98118400D01*
X159291161Y-98070780D01*
X159291161Y-98166019D01*
X159624495Y-98404114D02*
X160005447Y-98404114D01*
X159767352Y-98070780D02*
X159767352Y-98927923D01*
X159814971Y-99023161D01*
X159910209Y-99070780D01*
X160005447Y-99070780D01*
X156981638Y-100585542D02*
X156934019Y-100633161D01*
X156791161Y-100680780D01*
X156695923Y-100680780D01*
X156553066Y-100633161D01*
X156457828Y-100537923D01*
X156410209Y-100442685D01*
X156362590Y-100252209D01*
X156362590Y-100109352D01*
X156410209Y-99918876D01*
X156457828Y-99823638D01*
X156553066Y-99728400D01*
X156695923Y-99680780D01*
X156791161Y-99680780D01*
X156934019Y-99728400D01*
X156981638Y-99776019D01*
X157838780Y-100680780D02*
X157838780Y-100156971D01*
X157791161Y-100061733D01*
X157695923Y-100014114D01*
X157505447Y-100014114D01*
X157410209Y-100061733D01*
X157838780Y-100633161D02*
X157743542Y-100680780D01*
X157505447Y-100680780D01*
X157410209Y-100633161D01*
X157362590Y-100537923D01*
X157362590Y-100442685D01*
X157410209Y-100347447D01*
X157505447Y-100299828D01*
X157743542Y-100299828D01*
X157838780Y-100252209D01*
X158314971Y-100680780D02*
X158314971Y-100014114D01*
X158314971Y-100204590D02*
X158362590Y-100109352D01*
X158410209Y-100061733D01*
X158505447Y-100014114D01*
X158600685Y-100014114D01*
X159362590Y-100680780D02*
X159362590Y-99680780D01*
X159362590Y-100633161D02*
X159267352Y-100680780D01*
X159076876Y-100680780D01*
X158981638Y-100633161D01*
X158934019Y-100585542D01*
X158886400Y-100490304D01*
X158886400Y-100204590D01*
X158934019Y-100109352D01*
X158981638Y-100061733D01*
X159076876Y-100014114D01*
X159267352Y-100014114D01*
X159362590Y-100061733D01*
X156243542Y-102290780D02*
X156243542Y-101290780D01*
X156719733Y-101624114D02*
X156719733Y-102290780D01*
X156719733Y-101719352D02*
X156767352Y-101671733D01*
X156862590Y-101624114D01*
X157005447Y-101624114D01*
X157100685Y-101671733D01*
X157148304Y-101766971D01*
X157148304Y-102290780D01*
X157624495Y-101624114D02*
X157624495Y-102624114D01*
X157624495Y-101671733D02*
X157719733Y-101624114D01*
X157910209Y-101624114D01*
X158005447Y-101671733D01*
X158053066Y-101719352D01*
X158100685Y-101814590D01*
X158100685Y-102100304D01*
X158053066Y-102195542D01*
X158005447Y-102243161D01*
X157910209Y-102290780D01*
X157719733Y-102290780D01*
X157624495Y-102243161D01*
X158957828Y-101624114D02*
X158957828Y-102290780D01*
X158529257Y-101624114D02*
X158529257Y-102147923D01*
X158576876Y-102243161D01*
X158672114Y-102290780D01*
X158814971Y-102290780D01*
X158910209Y-102243161D01*
X158957828Y-102195542D01*
X159291161Y-101624114D02*
X159672114Y-101624114D01*
X159434019Y-101290780D02*
X159434019Y-102147923D01*
X159481638Y-102243161D01*
X159576876Y-102290780D01*
X159672114Y-102290780D01*
X133534780Y-78277980D02*
X133534780Y-77277980D01*
X134106209Y-78277980D01*
X134106209Y-77277980D01*
X134725257Y-78277980D02*
X134630019Y-78230361D01*
X134582400Y-78182742D01*
X134534780Y-78087504D01*
X134534780Y-77801790D01*
X134582400Y-77706552D01*
X134630019Y-77658933D01*
X134725257Y-77611314D01*
X134868114Y-77611314D01*
X134963352Y-77658933D01*
X135010971Y-77706552D01*
X135058590Y-77801790D01*
X135058590Y-78087504D01*
X135010971Y-78182742D01*
X134963352Y-78230361D01*
X134868114Y-78277980D01*
X134725257Y-78277980D01*
X135344304Y-77611314D02*
X135725257Y-77611314D01*
X135487161Y-77277980D02*
X135487161Y-78135123D01*
X135534780Y-78230361D01*
X135630019Y-78277980D01*
X135725257Y-78277980D01*
X136439542Y-78230361D02*
X136344304Y-78277980D01*
X136153828Y-78277980D01*
X136058590Y-78230361D01*
X136010971Y-78135123D01*
X136010971Y-77754171D01*
X136058590Y-77658933D01*
X136153828Y-77611314D01*
X136344304Y-77611314D01*
X136439542Y-77658933D01*
X136487161Y-77754171D01*
X136487161Y-77849409D01*
X136010971Y-77944647D01*
X137630019Y-77992266D02*
X138106209Y-77992266D01*
X137534780Y-78277980D02*
X137868114Y-77277980D01*
X138201447Y-78277980D01*
X138963352Y-78230361D02*
X138868114Y-78277980D01*
X138677638Y-78277980D01*
X138582400Y-78230361D01*
X138534780Y-78182742D01*
X138487161Y-78087504D01*
X138487161Y-77801790D01*
X138534780Y-77706552D01*
X138582400Y-77658933D01*
X138677638Y-77611314D01*
X138868114Y-77611314D01*
X138963352Y-77658933D01*
X139820495Y-78230361D02*
X139725257Y-78277980D01*
X139534780Y-78277980D01*
X139439542Y-78230361D01*
X139391923Y-78182742D01*
X139344304Y-78087504D01*
X139344304Y-77801790D01*
X139391923Y-77706552D01*
X139439542Y-77658933D01*
X139534780Y-77611314D01*
X139725257Y-77611314D01*
X139820495Y-77658933D01*
X140630019Y-78230361D02*
X140534780Y-78277980D01*
X140344304Y-78277980D01*
X140249066Y-78230361D01*
X140201447Y-78135123D01*
X140201447Y-77754171D01*
X140249066Y-77658933D01*
X140344304Y-77611314D01*
X140534780Y-77611314D01*
X140630019Y-77658933D01*
X140677638Y-77754171D01*
X140677638Y-77849409D01*
X140201447Y-77944647D01*
X141106209Y-77611314D02*
X141106209Y-78611314D01*
X141106209Y-77658933D02*
X141201447Y-77611314D01*
X141391923Y-77611314D01*
X141487161Y-77658933D01*
X141534780Y-77706552D01*
X141582400Y-77801790D01*
X141582400Y-78087504D01*
X141534780Y-78182742D01*
X141487161Y-78230361D01*
X141391923Y-78277980D01*
X141201447Y-78277980D01*
X141106209Y-78230361D01*
X141868114Y-77611314D02*
X142249066Y-77611314D01*
X142010971Y-77277980D02*
X142010971Y-78135123D01*
X142058590Y-78230361D01*
X142153828Y-78277980D01*
X142249066Y-78277980D01*
X142725257Y-78277980D02*
X142630019Y-78230361D01*
X142582400Y-78182742D01*
X142534780Y-78087504D01*
X142534780Y-77801790D01*
X142582400Y-77706552D01*
X142630019Y-77658933D01*
X142725257Y-77611314D01*
X142868114Y-77611314D01*
X142963352Y-77658933D01*
X143010971Y-77706552D01*
X143058590Y-77801790D01*
X143058590Y-78087504D01*
X143010971Y-78182742D01*
X142963352Y-78230361D01*
X142868114Y-78277980D01*
X142725257Y-78277980D01*
X143487161Y-78277980D02*
X143487161Y-77611314D01*
X143487161Y-77801790D02*
X143534780Y-77706552D01*
X143582400Y-77658933D01*
X143677638Y-77611314D01*
X143772876Y-77611314D01*
X150977695Y-83726400D02*
X150882457Y-83678780D01*
X150739600Y-83678780D01*
X150596742Y-83726400D01*
X150501504Y-83821638D01*
X150453885Y-83916876D01*
X150406266Y-84107352D01*
X150406266Y-84250209D01*
X150453885Y-84440685D01*
X150501504Y-84535923D01*
X150596742Y-84631161D01*
X150739600Y-84678780D01*
X150834838Y-84678780D01*
X150977695Y-84631161D01*
X151025314Y-84583542D01*
X151025314Y-84250209D01*
X150834838Y-84250209D01*
X151453885Y-84678780D02*
X151453885Y-83678780D01*
X152025314Y-84678780D01*
X152025314Y-83678780D01*
X152501504Y-84678780D02*
X152501504Y-83678780D01*
X152739600Y-83678780D01*
X152882457Y-83726400D01*
X152977695Y-83821638D01*
X153025314Y-83916876D01*
X153072933Y-84107352D01*
X153072933Y-84250209D01*
X153025314Y-84440685D01*
X152977695Y-84535923D01*
X152882457Y-84631161D01*
X152739600Y-84678780D01*
X152501504Y-84678780D01*
X157053066Y-74896342D02*
X157005447Y-74943961D01*
X156862590Y-74991580D01*
X156767352Y-74991580D01*
X156624495Y-74943961D01*
X156529257Y-74848723D01*
X156481638Y-74753485D01*
X156434019Y-74563009D01*
X156434019Y-74420152D01*
X156481638Y-74229676D01*
X156529257Y-74134438D01*
X156624495Y-74039200D01*
X156767352Y-73991580D01*
X156862590Y-73991580D01*
X157005447Y-74039200D01*
X157053066Y-74086819D01*
X157624495Y-74991580D02*
X157529257Y-74943961D01*
X157481638Y-74896342D01*
X157434019Y-74801104D01*
X157434019Y-74515390D01*
X157481638Y-74420152D01*
X157529257Y-74372533D01*
X157624495Y-74324914D01*
X157767352Y-74324914D01*
X157862590Y-74372533D01*
X157910209Y-74420152D01*
X157957828Y-74515390D01*
X157957828Y-74801104D01*
X157910209Y-74896342D01*
X157862590Y-74943961D01*
X157767352Y-74991580D01*
X157624495Y-74991580D01*
X158386400Y-74991580D02*
X158386400Y-74324914D01*
X158386400Y-73991580D02*
X158338780Y-74039200D01*
X158386400Y-74086819D01*
X158434019Y-74039200D01*
X158386400Y-73991580D01*
X158386400Y-74086819D01*
X158862590Y-74324914D02*
X158862590Y-74991580D01*
X158862590Y-74420152D02*
X158910209Y-74372533D01*
X159005447Y-74324914D01*
X159148304Y-74324914D01*
X159243542Y-74372533D01*
X159291161Y-74467771D01*
X159291161Y-74991580D01*
X156243542Y-76601580D02*
X156243542Y-75601580D01*
X156576876Y-76315866D01*
X156910209Y-75601580D01*
X156910209Y-76601580D01*
X157767352Y-76553961D02*
X157672114Y-76601580D01*
X157481638Y-76601580D01*
X157386400Y-76553961D01*
X157338780Y-76458723D01*
X157338780Y-76077771D01*
X157386400Y-75982533D01*
X157481638Y-75934914D01*
X157672114Y-75934914D01*
X157767352Y-75982533D01*
X157814971Y-76077771D01*
X157814971Y-76173009D01*
X157338780Y-76268247D01*
X158672114Y-76553961D02*
X158576876Y-76601580D01*
X158386400Y-76601580D01*
X158291161Y-76553961D01*
X158243542Y-76506342D01*
X158195923Y-76411104D01*
X158195923Y-76125390D01*
X158243542Y-76030152D01*
X158291161Y-75982533D01*
X158386400Y-75934914D01*
X158576876Y-75934914D01*
X158672114Y-75982533D01*
X159100685Y-76601580D02*
X159100685Y-75601580D01*
X159529257Y-76601580D02*
X159529257Y-76077771D01*
X159481638Y-75982533D01*
X159386400Y-75934914D01*
X159243542Y-75934914D01*
X159148304Y-75982533D01*
X159100685Y-76030152D01*
X156243542Y-78211580D02*
X156243542Y-77211580D01*
X156719733Y-77544914D02*
X156719733Y-78211580D01*
X156719733Y-77640152D02*
X156767352Y-77592533D01*
X156862590Y-77544914D01*
X157005447Y-77544914D01*
X157100685Y-77592533D01*
X157148304Y-77687771D01*
X157148304Y-78211580D01*
X157624495Y-77544914D02*
X157624495Y-78544914D01*
X157624495Y-77592533D02*
X157719733Y-77544914D01*
X157910209Y-77544914D01*
X158005447Y-77592533D01*
X158053066Y-77640152D01*
X158100685Y-77735390D01*
X158100685Y-78021104D01*
X158053066Y-78116342D01*
X158005447Y-78163961D01*
X157910209Y-78211580D01*
X157719733Y-78211580D01*
X157624495Y-78163961D01*
X158957828Y-77544914D02*
X158957828Y-78211580D01*
X158529257Y-77544914D02*
X158529257Y-78068723D01*
X158576876Y-78163961D01*
X158672114Y-78211580D01*
X158814971Y-78211580D01*
X158910209Y-78163961D01*
X158957828Y-78116342D01*
X159291161Y-77544914D02*
X159672114Y-77544914D01*
X159434019Y-77211580D02*
X159434019Y-78068723D01*
X159481638Y-78163961D01*
X159576876Y-78211580D01*
X159672114Y-78211580D01*
X139030152Y-88444342D02*
X138982533Y-88491961D01*
X138839676Y-88539580D01*
X138744438Y-88539580D01*
X138601580Y-88491961D01*
X138506342Y-88396723D01*
X138458723Y-88301485D01*
X138411104Y-88111009D01*
X138411104Y-87968152D01*
X138458723Y-87777676D01*
X138506342Y-87682438D01*
X138601580Y-87587200D01*
X138744438Y-87539580D01*
X138839676Y-87539580D01*
X138982533Y-87587200D01*
X139030152Y-87634819D01*
X139458723Y-88539580D02*
X139458723Y-87539580D01*
X139887295Y-88539580D02*
X139887295Y-88015771D01*
X139839676Y-87920533D01*
X139744438Y-87872914D01*
X139601580Y-87872914D01*
X139506342Y-87920533D01*
X139458723Y-87968152D01*
X140268247Y-87539580D02*
X140887295Y-87539580D01*
X140553961Y-87920533D01*
X140696819Y-87920533D01*
X140792057Y-87968152D01*
X140839676Y-88015771D01*
X140887295Y-88111009D01*
X140887295Y-88349104D01*
X140839676Y-88444342D01*
X140792057Y-88491961D01*
X140696819Y-88539580D01*
X140411104Y-88539580D01*
X140315866Y-88491961D01*
X140268247Y-88444342D01*
X137332723Y-69954685D02*
X137237485Y-70049923D01*
X136951771Y-70145161D01*
X136761295Y-70145161D01*
X136475580Y-70049923D01*
X136285104Y-69859447D01*
X136189866Y-69668971D01*
X136094628Y-69288019D01*
X136094628Y-69002304D01*
X136189866Y-68621352D01*
X136285104Y-68430876D01*
X136475580Y-68240400D01*
X136761295Y-68145161D01*
X136951771Y-68145161D01*
X137237485Y-68240400D01*
X137332723Y-68335638D01*
X138189866Y-70145161D02*
X138189866Y-68811828D01*
X138189866Y-69192780D02*
X138285104Y-69002304D01*
X138380342Y-68907066D01*
X138570819Y-68811828D01*
X138761295Y-68811828D01*
X140189866Y-70049923D02*
X139999390Y-70145161D01*
X139618438Y-70145161D01*
X139427961Y-70049923D01*
X139332723Y-69859447D01*
X139332723Y-69097542D01*
X139427961Y-68907066D01*
X139618438Y-68811828D01*
X139999390Y-68811828D01*
X140189866Y-68907066D01*
X140285104Y-69097542D01*
X140285104Y-69288019D01*
X139332723Y-69478495D01*
X141999390Y-70145161D02*
X141999390Y-68145161D01*
X141999390Y-70049923D02*
X141808914Y-70145161D01*
X141427961Y-70145161D01*
X141237485Y-70049923D01*
X141142247Y-69954685D01*
X141047009Y-69764209D01*
X141047009Y-69192780D01*
X141142247Y-69002304D01*
X141237485Y-68907066D01*
X141427961Y-68811828D01*
X141808914Y-68811828D01*
X141999390Y-68907066D01*
X142951771Y-70145161D02*
X142951771Y-68811828D01*
X142951771Y-68145161D02*
X142856533Y-68240400D01*
X142951771Y-68335638D01*
X143047009Y-68240400D01*
X142951771Y-68145161D01*
X142951771Y-68335638D01*
X143618438Y-68811828D02*
X144380342Y-68811828D01*
X143904152Y-68145161D02*
X143904152Y-69859447D01*
X143999390Y-70049923D01*
X144189866Y-70145161D01*
X144380342Y-70145161D01*
X146570819Y-70145161D02*
X146570819Y-68145161D01*
X147523200Y-68811828D02*
X147523200Y-70145161D01*
X147523200Y-69002304D02*
X147618438Y-68907066D01*
X147808914Y-68811828D01*
X148094628Y-68811828D01*
X148285104Y-68907066D01*
X148380342Y-69097542D01*
X148380342Y-70145161D01*
X149047009Y-68811828D02*
X149808914Y-68811828D01*
X149332723Y-68145161D02*
X149332723Y-69859447D01*
X149427961Y-70049923D01*
X149618438Y-70145161D01*
X149808914Y-70145161D01*
X151237485Y-70049923D02*
X151047009Y-70145161D01*
X150666057Y-70145161D01*
X150475580Y-70049923D01*
X150380342Y-69859447D01*
X150380342Y-69097542D01*
X150475580Y-68907066D01*
X150666057Y-68811828D01*
X151047009Y-68811828D01*
X151237485Y-68907066D01*
X151332723Y-69097542D01*
X151332723Y-69288019D01*
X150380342Y-69478495D01*
X152189866Y-70145161D02*
X152189866Y-68811828D01*
X152189866Y-69192780D02*
X152285104Y-69002304D01*
X152380342Y-68907066D01*
X152570819Y-68811828D01*
X152761295Y-68811828D01*
X153142247Y-68811828D02*
X153904152Y-68811828D01*
X153427961Y-70145161D02*
X153427961Y-68430876D01*
X153523200Y-68240400D01*
X153713676Y-68145161D01*
X153904152Y-68145161D01*
X155427961Y-70145161D02*
X155427961Y-69097542D01*
X155332723Y-68907066D01*
X155142247Y-68811828D01*
X154761295Y-68811828D01*
X154570819Y-68907066D01*
X155427961Y-70049923D02*
X155237485Y-70145161D01*
X154761295Y-70145161D01*
X154570819Y-70049923D01*
X154475580Y-69859447D01*
X154475580Y-69668971D01*
X154570819Y-69478495D01*
X154761295Y-69383257D01*
X155237485Y-69383257D01*
X155427961Y-69288019D01*
X157237485Y-70049923D02*
X157047009Y-70145161D01*
X156666057Y-70145161D01*
X156475580Y-70049923D01*
X156380342Y-69954685D01*
X156285104Y-69764209D01*
X156285104Y-69192780D01*
X156380342Y-69002304D01*
X156475580Y-68907066D01*
X156666057Y-68811828D01*
X157047009Y-68811828D01*
X157237485Y-68907066D01*
X158856533Y-70049923D02*
X158666057Y-70145161D01*
X158285104Y-70145161D01*
X158094628Y-70049923D01*
X157999390Y-69859447D01*
X157999390Y-69097542D01*
X158094628Y-68907066D01*
X158285104Y-68811828D01*
X158666057Y-68811828D01*
X158856533Y-68907066D01*
X158951771Y-69097542D01*
X158951771Y-69288019D01*
X157999390Y-69478495D01*
X136198266Y-95635771D02*
X136531600Y-95635771D01*
X136674457Y-96159580D02*
X136198266Y-96159580D01*
X136198266Y-95159580D01*
X136674457Y-95159580D01*
X137055409Y-96111961D02*
X137150647Y-96159580D01*
X137341123Y-96159580D01*
X137436361Y-96111961D01*
X137483980Y-96016723D01*
X137483980Y-95969104D01*
X137436361Y-95873866D01*
X137341123Y-95826247D01*
X137198266Y-95826247D01*
X137103028Y-95778628D01*
X137055409Y-95683390D01*
X137055409Y-95635771D01*
X137103028Y-95540533D01*
X137198266Y-95492914D01*
X137341123Y-95492914D01*
X137436361Y-95540533D01*
X138341123Y-96111961D02*
X138245885Y-96159580D01*
X138055409Y-96159580D01*
X137960171Y-96111961D01*
X137912552Y-96064342D01*
X137864933Y-95969104D01*
X137864933Y-95683390D01*
X137912552Y-95588152D01*
X137960171Y-95540533D01*
X138055409Y-95492914D01*
X138245885Y-95492914D01*
X138341123Y-95540533D01*
X138769695Y-96159580D02*
X138769695Y-95492914D01*
X138769695Y-95683390D02*
X138817314Y-95588152D01*
X138864933Y-95540533D01*
X138960171Y-95492914D01*
X139055409Y-95492914D01*
X139531600Y-96159580D02*
X139436361Y-96111961D01*
X139388742Y-96064342D01*
X139341123Y-95969104D01*
X139341123Y-95683390D01*
X139388742Y-95588152D01*
X139436361Y-95540533D01*
X139531600Y-95492914D01*
X139674457Y-95492914D01*
X139769695Y-95540533D01*
X139817314Y-95588152D01*
X139864933Y-95683390D01*
X139864933Y-95969104D01*
X139817314Y-96064342D01*
X139769695Y-96111961D01*
X139674457Y-96159580D01*
X139531600Y-96159580D01*
X140198266Y-95492914D02*
X140388742Y-96159580D01*
X140579219Y-95683390D01*
X140769695Y-96159580D01*
X140960171Y-95492914D01*
X139131752Y-80875142D02*
X139084133Y-80922761D01*
X138941276Y-80970380D01*
X138846038Y-80970380D01*
X138703180Y-80922761D01*
X138607942Y-80827523D01*
X138560323Y-80732285D01*
X138512704Y-80541809D01*
X138512704Y-80398952D01*
X138560323Y-80208476D01*
X138607942Y-80113238D01*
X138703180Y-80018000D01*
X138846038Y-79970380D01*
X138941276Y-79970380D01*
X139084133Y-80018000D01*
X139131752Y-80065619D01*
X139560323Y-80970380D02*
X139560323Y-79970380D01*
X139988895Y-80970380D02*
X139988895Y-80446571D01*
X139941276Y-80351333D01*
X139846038Y-80303714D01*
X139703180Y-80303714D01*
X139607942Y-80351333D01*
X139560323Y-80398952D01*
X140988895Y-80970380D02*
X140417466Y-80970380D01*
X140703180Y-80970380D02*
X140703180Y-79970380D01*
X140607942Y-80113238D01*
X140512704Y-80208476D01*
X140417466Y-80256095D01*
X150926895Y-95258000D02*
X150831657Y-95210380D01*
X150688800Y-95210380D01*
X150545942Y-95258000D01*
X150450704Y-95353238D01*
X150403085Y-95448476D01*
X150355466Y-95638952D01*
X150355466Y-95781809D01*
X150403085Y-95972285D01*
X150450704Y-96067523D01*
X150545942Y-96162761D01*
X150688800Y-96210380D01*
X150784038Y-96210380D01*
X150926895Y-96162761D01*
X150974514Y-96115142D01*
X150974514Y-95781809D01*
X150784038Y-95781809D01*
X151403085Y-96210380D02*
X151403085Y-95210380D01*
X151974514Y-96210380D01*
X151974514Y-95210380D01*
X152450704Y-96210380D02*
X152450704Y-95210380D01*
X152688800Y-95210380D01*
X152831657Y-95258000D01*
X152926895Y-95353238D01*
X152974514Y-95448476D01*
X153022133Y-95638952D01*
X153022133Y-95781809D01*
X152974514Y-95972285D01*
X152926895Y-96067523D01*
X152831657Y-96162761D01*
X152688800Y-96210380D01*
X152450704Y-96210380D01*
X138928552Y-92254342D02*
X138880933Y-92301961D01*
X138738076Y-92349580D01*
X138642838Y-92349580D01*
X138499980Y-92301961D01*
X138404742Y-92206723D01*
X138357123Y-92111485D01*
X138309504Y-91921009D01*
X138309504Y-91778152D01*
X138357123Y-91587676D01*
X138404742Y-91492438D01*
X138499980Y-91397200D01*
X138642838Y-91349580D01*
X138738076Y-91349580D01*
X138880933Y-91397200D01*
X138928552Y-91444819D01*
X139357123Y-92349580D02*
X139357123Y-91349580D01*
X139785695Y-92349580D02*
X139785695Y-91825771D01*
X139738076Y-91730533D01*
X139642838Y-91682914D01*
X139499980Y-91682914D01*
X139404742Y-91730533D01*
X139357123Y-91778152D01*
X140690457Y-91682914D02*
X140690457Y-92349580D01*
X140452361Y-91301961D02*
X140214266Y-92016247D01*
X140833314Y-92016247D01*
X150977695Y-91346400D02*
X150882457Y-91298780D01*
X150739600Y-91298780D01*
X150596742Y-91346400D01*
X150501504Y-91441638D01*
X150453885Y-91536876D01*
X150406266Y-91727352D01*
X150406266Y-91870209D01*
X150453885Y-92060685D01*
X150501504Y-92155923D01*
X150596742Y-92251161D01*
X150739600Y-92298780D01*
X150834838Y-92298780D01*
X150977695Y-92251161D01*
X151025314Y-92203542D01*
X151025314Y-91870209D01*
X150834838Y-91870209D01*
X151453885Y-92298780D02*
X151453885Y-91298780D01*
X152025314Y-92298780D01*
X152025314Y-91298780D01*
X152501504Y-92298780D02*
X152501504Y-91298780D01*
X152739600Y-91298780D01*
X152882457Y-91346400D01*
X152977695Y-91441638D01*
X153025314Y-91536876D01*
X153072933Y-91727352D01*
X153072933Y-91870209D01*
X153025314Y-92060685D01*
X152977695Y-92155923D01*
X152882457Y-92251161D01*
X152739600Y-92298780D01*
X152501504Y-92298780D01*
D11*
X144388600Y-93227200D02*
X149528600Y-93227200D01*
X144388600Y-93227200D02*
X144388600Y-90567200D01*
X141788600Y-93227200D02*
X141788600Y-91897200D01*
X143118600Y-93227200D02*
X141788600Y-93227200D01*
X144388600Y-90567200D02*
X149528600Y-90567200D01*
X149528600Y-93227200D02*
X149528600Y-90567200D01*
X163109600Y-81798000D02*
X163109600Y-89478000D01*
X163109600Y-81798000D02*
X165769600Y-81798000D01*
X165769600Y-81798000D02*
X165769600Y-89478000D01*
X163109600Y-79198000D02*
X164439600Y-79198000D01*
X163109600Y-80528000D02*
X163109600Y-79198000D01*
X163109600Y-89478000D02*
X165769600Y-89478000D01*
X143118600Y-85607200D02*
X141788600Y-85607200D01*
X149528600Y-85607200D02*
X149528600Y-82947200D01*
X144388600Y-82947200D02*
X149528600Y-82947200D01*
X141788600Y-85607200D02*
X141788600Y-84277200D01*
X144388600Y-85607200D02*
X144388600Y-82947200D01*
X144388600Y-85607200D02*
X149528600Y-85607200D01*
X144388600Y-86757200D02*
X149528600Y-86757200D01*
X144388600Y-89417200D02*
X149528600Y-89417200D01*
X141788600Y-89417200D02*
X141788600Y-88087200D01*
X144388600Y-89417200D02*
X144388600Y-86757200D01*
X149528600Y-89417200D02*
X149528600Y-86757200D01*
X143118600Y-89417200D02*
X141788600Y-89417200D01*
X156556400Y-79198000D02*
X157886400Y-79198000D01*
X156556400Y-81798000D02*
X156556400Y-89478000D01*
X159216400Y-81798000D02*
X159216400Y-89478000D01*
X156556400Y-89478000D02*
X159216400Y-89478000D01*
X156556400Y-80528000D02*
X156556400Y-79198000D01*
X156556400Y-81798000D02*
X159216400Y-81798000D01*
X144388600Y-94377200D02*
X149528600Y-94377200D01*
X144388600Y-97037200D02*
X149528600Y-97037200D01*
X143118600Y-97037200D02*
X141788600Y-97037200D01*
X149528600Y-97037200D02*
X149528600Y-94377200D01*
X144388600Y-97037200D02*
X144388600Y-94377200D01*
X141788600Y-97037200D02*
X141788600Y-95707200D01*
X156658000Y-97088000D02*
X159318000Y-97088000D01*
X156658000Y-94488000D02*
X156658000Y-97088000D01*
X156658000Y-93218000D02*
X156658000Y-91888000D01*
X156658000Y-91888000D02*
X157988000Y-91888000D01*
X156658000Y-94488000D02*
X159318000Y-94488000D01*
X159318000Y-94488000D02*
X159318000Y-97088000D01*
X144388600Y-79188000D02*
X149528600Y-79188000D01*
X149528600Y-81848000D02*
X149528600Y-79188000D01*
X141788600Y-81848000D02*
X141788600Y-80518000D01*
X143118600Y-81848000D02*
X141788600Y-81848000D01*
X144388600Y-81848000D02*
X149528600Y-81848000D01*
X144388600Y-81848000D02*
X144388600Y-79188000D01*
%LPC*%
D12*
X143118600Y-91897200D03*
D13*
X145658600Y-91897200D03*
X148198600Y-91897200D03*
D12*
X164439600Y-80528000D03*
D13*
X164439600Y-83068000D03*
X164439600Y-85608000D03*
X164439600Y-88148000D03*
D12*
X143118600Y-84277200D03*
D13*
X145658600Y-84277200D03*
X148198600Y-84277200D03*
D12*
X143118600Y-88087200D03*
D13*
X145658600Y-88087200D03*
X148198600Y-88087200D03*
D12*
X157886400Y-80528000D03*
D13*
X157886400Y-83068000D03*
X157886400Y-85608000D03*
X157886400Y-88148000D03*
D12*
X143118600Y-95707200D03*
D13*
X145658600Y-95707200D03*
X148198600Y-95707200D03*
D12*
X157988000Y-93218000D03*
D13*
X157988000Y-95758000D03*
D12*
X133913800Y-80568800D03*
D13*
X131373800Y-80568800D03*
X133913800Y-83108800D03*
X131373800Y-83108800D03*
X133913800Y-85648800D03*
X131373800Y-85648800D03*
X133913800Y-88188800D03*
X131373800Y-88188800D03*
X133913800Y-90728800D03*
X131373800Y-90728800D03*
X133913800Y-93268800D03*
X131373800Y-93268800D03*
X133913800Y-95808800D03*
X131373800Y-95808800D03*
X133913800Y-98348800D03*
X131373800Y-98348800D03*
D12*
X143118600Y-80518000D03*
D13*
X145658600Y-80518000D03*
X148198600Y-80518000D03*
M02*
