G04 #@! TF.GenerationSoftware,KiCad,Pcbnew,(6.0.6)*
G04 #@! TF.CreationDate,2023-03-25T01:52:23+10:30*
G04 #@! TF.ProjectId,Coin Adapter,436f696e-2041-4646-9170-7465722e6b69,rev?*
G04 #@! TF.SameCoordinates,Original*
G04 #@! TF.FileFunction,Legend,Bot*
G04 #@! TF.FilePolarity,Positive*
%FSLAX46Y46*%
G04 Gerber Fmt 4.6, Leading zero omitted, Abs format (unit mm)*
G04 Created by KiCad (PCBNEW (6.0.6)) date 2023-03-25 01:52:23*
%MOMM*%
%LPD*%
G01*
G04 APERTURE LIST*
%ADD10C,0.120000*%
%ADD11R,1.700000X1.700000*%
%ADD12O,1.700000X1.700000*%
G04 APERTURE END LIST*
D10*
X135243800Y-80568800D02*
X135243800Y-79238800D01*
X132643800Y-81838800D02*
X132643800Y-79238800D01*
X135243800Y-99678800D02*
X130043800Y-99678800D01*
X132643800Y-79238800D02*
X130043800Y-79238800D01*
X135243800Y-81838800D02*
X132643800Y-81838800D01*
X135243800Y-79238800D02*
X133913800Y-79238800D01*
X130043800Y-79238800D02*
X130043800Y-99678800D01*
X135243800Y-81838800D02*
X135243800Y-99678800D01*
%LPC*%
D11*
X143118600Y-91897200D03*
D12*
X145658600Y-91897200D03*
X148198600Y-91897200D03*
D11*
X164439600Y-80528000D03*
D12*
X164439600Y-83068000D03*
X164439600Y-85608000D03*
X164439600Y-88148000D03*
D11*
X143118600Y-84277200D03*
D12*
X145658600Y-84277200D03*
X148198600Y-84277200D03*
D11*
X143118600Y-88087200D03*
D12*
X145658600Y-88087200D03*
X148198600Y-88087200D03*
D11*
X157886400Y-80528000D03*
D12*
X157886400Y-83068000D03*
X157886400Y-85608000D03*
X157886400Y-88148000D03*
D11*
X143118600Y-95707200D03*
D12*
X145658600Y-95707200D03*
X148198600Y-95707200D03*
D11*
X157988000Y-93218000D03*
D12*
X157988000Y-95758000D03*
D11*
X133913800Y-80568800D03*
D12*
X131373800Y-80568800D03*
X133913800Y-83108800D03*
X131373800Y-83108800D03*
X133913800Y-85648800D03*
X131373800Y-85648800D03*
X133913800Y-88188800D03*
X131373800Y-88188800D03*
X133913800Y-90728800D03*
X131373800Y-90728800D03*
X133913800Y-93268800D03*
X131373800Y-93268800D03*
X133913800Y-95808800D03*
X131373800Y-95808800D03*
X133913800Y-98348800D03*
X131373800Y-98348800D03*
D11*
X143118600Y-80518000D03*
D12*
X145658600Y-80518000D03*
X148198600Y-80518000D03*
M02*
