G04 #@! TF.GenerationSoftware,KiCad,Pcbnew,(6.0.6)*
G04 #@! TF.CreationDate,2023-03-25T01:52:22+10:30*
G04 #@! TF.ProjectId,Coin Adapter,436f696e-2041-4646-9170-7465722e6b69,rev?*
G04 #@! TF.SameCoordinates,Original*
G04 #@! TF.FileFunction,Copper,L2,Bot*
G04 #@! TF.FilePolarity,Positive*
%FSLAX46Y46*%
G04 Gerber Fmt 4.6, Leading zero omitted, Abs format (unit mm)*
G04 Created by KiCad (PCBNEW (6.0.6)) date 2023-03-25 01:52:22*
%MOMM*%
%LPD*%
G01*
G04 APERTURE LIST*
G04 #@! TA.AperFunction,ComponentPad*
%ADD10R,1.700000X1.700000*%
G04 #@! TD*
G04 #@! TA.AperFunction,ComponentPad*
%ADD11O,1.700000X1.700000*%
G04 #@! TD*
G04 #@! TA.AperFunction,Conductor*
%ADD12C,0.250000*%
G04 #@! TD*
G04 APERTURE END LIST*
D10*
X143118600Y-91897200D03*
D11*
X145658600Y-91897200D03*
X148198600Y-91897200D03*
D10*
X164439600Y-80528000D03*
D11*
X164439600Y-83068000D03*
X164439600Y-85608000D03*
X164439600Y-88148000D03*
D10*
X143118600Y-84277200D03*
D11*
X145658600Y-84277200D03*
X148198600Y-84277200D03*
D10*
X143118600Y-88087200D03*
D11*
X145658600Y-88087200D03*
X148198600Y-88087200D03*
D10*
X157886400Y-80528000D03*
D11*
X157886400Y-83068000D03*
X157886400Y-85608000D03*
X157886400Y-88148000D03*
D10*
X143118600Y-95707200D03*
D11*
X145658600Y-95707200D03*
X148198600Y-95707200D03*
D10*
X157988000Y-93218000D03*
D11*
X157988000Y-95758000D03*
D10*
X133913800Y-80568800D03*
D11*
X131373800Y-80568800D03*
X133913800Y-83108800D03*
X131373800Y-83108800D03*
X133913800Y-85648800D03*
X131373800Y-85648800D03*
X133913800Y-88188800D03*
X131373800Y-88188800D03*
X133913800Y-90728800D03*
X131373800Y-90728800D03*
X133913800Y-93268800D03*
X131373800Y-93268800D03*
X133913800Y-95808800D03*
X131373800Y-95808800D03*
X133913800Y-98348800D03*
X131373800Y-98348800D03*
D10*
X143118600Y-80518000D03*
D11*
X145658600Y-80518000D03*
X148198600Y-80518000D03*
D12*
X143118600Y-80518000D02*
X143118600Y-84277200D01*
X143118600Y-95707200D02*
X143118600Y-91897200D01*
X143118600Y-79944200D02*
X143967200Y-79095600D01*
X155041600Y-79095600D02*
X156474000Y-80528000D01*
X143118600Y-80518000D02*
X143118600Y-79944200D01*
X143118600Y-84277200D02*
X143118600Y-88087200D01*
X156474000Y-80528000D02*
X157886400Y-80528000D01*
X143118600Y-91897200D02*
X143118600Y-88087200D01*
X157886400Y-80528000D02*
X164439600Y-80528000D01*
X143967200Y-79095600D02*
X155041600Y-79095600D01*
G04 #@! TA.AperFunction,Conductor*
G36*
X166972021Y-66466902D02*
G01*
X167018514Y-66520558D01*
X167029900Y-66572900D01*
X167029900Y-110973100D01*
X167009898Y-111041221D01*
X166956242Y-111087714D01*
X166903900Y-111099100D01*
X129056900Y-111099100D01*
X128988779Y-111079098D01*
X128942286Y-111025442D01*
X128930900Y-110973100D01*
X128930900Y-108394910D01*
X129513637Y-108394910D01*
X129513812Y-108399362D01*
X129515575Y-108444227D01*
X129523113Y-108636071D01*
X129524776Y-108678407D01*
X129575748Y-108957507D01*
X129665538Y-109226640D01*
X129667530Y-109230627D01*
X129667531Y-109230629D01*
X129751093Y-109397862D01*
X129792353Y-109480437D01*
X129953663Y-109713834D01*
X129956679Y-109717096D01*
X129956684Y-109717103D01*
X130081719Y-109852364D01*
X130146250Y-109922173D01*
X130149704Y-109924985D01*
X130362814Y-110098484D01*
X130362818Y-110098487D01*
X130366271Y-110101298D01*
X130370093Y-110103599D01*
X130586843Y-110234093D01*
X130609336Y-110247635D01*
X130641692Y-110261336D01*
X130866491Y-110356527D01*
X130866496Y-110356529D01*
X130870594Y-110358264D01*
X130874891Y-110359403D01*
X130874896Y-110359405D01*
X131007715Y-110394621D01*
X131144835Y-110430977D01*
X131426584Y-110464324D01*
X131710222Y-110457640D01*
X131842408Y-110435638D01*
X131985698Y-110411788D01*
X131985702Y-110411787D01*
X131990088Y-110411057D01*
X131994329Y-110409716D01*
X131994332Y-110409715D01*
X132256352Y-110326849D01*
X132256354Y-110326848D01*
X132260598Y-110325506D01*
X132390812Y-110262978D01*
X132512336Y-110204623D01*
X132512337Y-110204622D01*
X132516355Y-110202693D01*
X132520061Y-110200217D01*
X132748555Y-110047543D01*
X132748559Y-110047540D01*
X132752257Y-110045069D01*
X132857183Y-109951089D01*
X132960272Y-109858755D01*
X132960277Y-109858750D01*
X132963595Y-109855778D01*
X133146154Y-109638598D01*
X133296291Y-109397862D01*
X133411010Y-109138373D01*
X133488022Y-108865309D01*
X133513724Y-108673959D01*
X133525364Y-108587299D01*
X133525364Y-108587294D01*
X133525791Y-108584118D01*
X133529754Y-108458000D01*
X133528261Y-108436917D01*
X162477211Y-108436917D01*
X162477628Y-108444155D01*
X162492976Y-108710333D01*
X162493801Y-108714538D01*
X162493802Y-108714546D01*
X162506080Y-108777127D01*
X162545702Y-108979080D01*
X162547089Y-108983130D01*
X162547090Y-108983135D01*
X162601638Y-109142455D01*
X162634414Y-109238185D01*
X162636341Y-109242016D01*
X162712672Y-109393783D01*
X162757469Y-109482853D01*
X162759895Y-109486382D01*
X162759898Y-109486388D01*
X162839525Y-109602244D01*
X162912591Y-109708556D01*
X162915472Y-109711722D01*
X163046553Y-109855778D01*
X163096909Y-109911119D01*
X163113493Y-109924985D01*
X163303721Y-110084041D01*
X163303726Y-110084045D01*
X163307013Y-110086793D01*
X163360764Y-110120511D01*
X163535374Y-110230044D01*
X163535378Y-110230046D01*
X163539014Y-110232327D01*
X163606898Y-110262978D01*
X163784708Y-110343263D01*
X163784712Y-110343265D01*
X163788620Y-110345029D01*
X163792740Y-110346249D01*
X163792739Y-110346249D01*
X164047099Y-110421594D01*
X164047103Y-110421595D01*
X164051212Y-110422812D01*
X164055446Y-110423460D01*
X164055451Y-110423461D01*
X164274029Y-110456908D01*
X164321931Y-110464238D01*
X164461332Y-110466428D01*
X164591477Y-110468473D01*
X164591483Y-110468473D01*
X164595768Y-110468540D01*
X164867655Y-110435638D01*
X165132560Y-110366141D01*
X165385584Y-110261336D01*
X165622042Y-110123160D01*
X165837560Y-109954173D01*
X166028150Y-109757499D01*
X166190285Y-109536780D01*
X166192331Y-109533012D01*
X166318914Y-109299874D01*
X166318915Y-109299872D01*
X166320964Y-109296098D01*
X166417770Y-109039907D01*
X166478912Y-108772949D01*
X166503257Y-108500163D01*
X166503699Y-108458000D01*
X166503530Y-108455519D01*
X166485364Y-108189041D01*
X166485363Y-108189035D01*
X166485072Y-108184764D01*
X166480750Y-108163891D01*
X166430403Y-107920781D01*
X166429534Y-107916584D01*
X166338114Y-107658423D01*
X166330229Y-107643145D01*
X166214469Y-107418864D01*
X166214469Y-107418863D01*
X166212504Y-107415057D01*
X166197425Y-107393601D01*
X166057494Y-107194500D01*
X166057493Y-107194499D01*
X166055027Y-107190990D01*
X165868598Y-106990368D01*
X165851064Y-106976016D01*
X165659984Y-106819620D01*
X165656666Y-106816904D01*
X165423153Y-106673807D01*
X165419236Y-106672088D01*
X165419233Y-106672086D01*
X165293034Y-106616689D01*
X165172381Y-106563726D01*
X165168253Y-106562550D01*
X165168250Y-106562549D01*
X164913116Y-106489872D01*
X164913117Y-106489872D01*
X164908988Y-106488696D01*
X164706553Y-106459886D01*
X164642102Y-106450713D01*
X164642100Y-106450713D01*
X164637850Y-106450108D01*
X164493496Y-106449352D01*
X164368270Y-106448696D01*
X164368264Y-106448696D01*
X164363984Y-106448674D01*
X164359740Y-106449233D01*
X164359736Y-106449233D01*
X164240582Y-106464920D01*
X164092457Y-106484421D01*
X163828293Y-106556688D01*
X163576381Y-106664137D01*
X163341383Y-106804781D01*
X163338032Y-106807465D01*
X163338030Y-106807467D01*
X163326251Y-106816904D01*
X163127646Y-106976016D01*
X162939126Y-107174675D01*
X162779312Y-107397080D01*
X162777308Y-107400865D01*
X162654619Y-107632586D01*
X162651160Y-107639118D01*
X162649688Y-107643141D01*
X162649686Y-107643145D01*
X162580137Y-107833197D01*
X162557042Y-107896307D01*
X162498699Y-108163891D01*
X162477211Y-108436917D01*
X133528261Y-108436917D01*
X133509716Y-108174992D01*
X133508246Y-108168161D01*
X133450938Y-107901978D01*
X133450938Y-107901976D01*
X133450002Y-107897631D01*
X133363244Y-107662464D01*
X133353344Y-107635628D01*
X133351803Y-107631451D01*
X133223466Y-107393601D01*
X133219191Y-107385679D01*
X133217078Y-107381763D01*
X133078763Y-107194500D01*
X133051165Y-107157135D01*
X133051163Y-107157132D01*
X133048516Y-107153549D01*
X132849481Y-106951361D01*
X132792396Y-106907795D01*
X132627483Y-106781938D01*
X132627479Y-106781936D01*
X132623942Y-106779236D01*
X132620053Y-106777058D01*
X132380287Y-106642782D01*
X132380284Y-106642781D01*
X132376401Y-106640606D01*
X132372256Y-106639002D01*
X132372253Y-106639001D01*
X132174636Y-106562549D01*
X132111796Y-106538238D01*
X132107475Y-106537236D01*
X132107467Y-106537234D01*
X131898055Y-106488696D01*
X131835407Y-106474175D01*
X131552749Y-106449694D01*
X131548314Y-106449938D01*
X131548310Y-106449938D01*
X131273904Y-106465039D01*
X131273897Y-106465040D01*
X131269461Y-106465284D01*
X130991197Y-106520634D01*
X130723507Y-106614640D01*
X130471733Y-106745426D01*
X130468118Y-106748009D01*
X130468112Y-106748013D01*
X130367909Y-106819620D01*
X130240899Y-106910383D01*
X130035611Y-107106218D01*
X130032855Y-107109713D01*
X130032854Y-107109715D01*
X130000800Y-107150376D01*
X129859964Y-107329025D01*
X129809993Y-107415057D01*
X129719701Y-107570504D01*
X129719698Y-107570510D01*
X129717463Y-107574358D01*
X129715789Y-107578491D01*
X129646514Y-107749525D01*
X129610952Y-107837323D01*
X129609881Y-107841636D01*
X129609879Y-107841641D01*
X129592266Y-107912546D01*
X129542555Y-108112671D01*
X129513637Y-108394910D01*
X128930900Y-108394910D01*
X128930900Y-98616766D01*
X130042057Y-98616766D01*
X130072365Y-98751246D01*
X130075445Y-98761075D01*
X130155570Y-98958403D01*
X130160213Y-98967594D01*
X130271494Y-99149188D01*
X130277577Y-99157499D01*
X130417013Y-99318467D01*
X130424380Y-99325683D01*
X130588234Y-99461716D01*
X130596681Y-99467631D01*
X130780556Y-99575079D01*
X130789842Y-99579529D01*
X130988801Y-99655503D01*
X130998699Y-99658379D01*
X131102050Y-99679406D01*
X131116099Y-99678210D01*
X131119800Y-99667865D01*
X131119800Y-98620915D01*
X131115325Y-98605676D01*
X131113935Y-98604471D01*
X131106252Y-98602800D01*
X130057025Y-98602800D01*
X130043494Y-98606773D01*
X130042057Y-98616766D01*
X128930900Y-98616766D01*
X128930900Y-95775495D01*
X130011051Y-95775495D01*
X130011348Y-95780648D01*
X130011348Y-95780651D01*
X130016811Y-95875390D01*
X130023910Y-95998515D01*
X130025047Y-96003561D01*
X130025048Y-96003567D01*
X130035718Y-96050910D01*
X130073022Y-96216439D01*
X130111261Y-96310611D01*
X130149338Y-96404383D01*
X130157066Y-96423416D01*
X130207819Y-96506238D01*
X130271091Y-96609488D01*
X130273787Y-96613888D01*
X130420050Y-96782738D01*
X130591926Y-96925432D01*
X130614086Y-96938381D01*
X130665755Y-96968574D01*
X130714479Y-97020212D01*
X130727550Y-97089995D01*
X130700819Y-97155767D01*
X130660362Y-97189127D01*
X130652257Y-97193346D01*
X130643538Y-97198836D01*
X130473233Y-97326705D01*
X130465526Y-97333548D01*
X130318390Y-97487517D01*
X130311904Y-97495527D01*
X130191898Y-97671449D01*
X130186800Y-97680423D01*
X130097138Y-97873583D01*
X130093575Y-97883270D01*
X130038189Y-98082983D01*
X130039712Y-98091407D01*
X130052092Y-98094800D01*
X131501800Y-98094800D01*
X131569921Y-98114802D01*
X131616414Y-98168458D01*
X131627800Y-98220800D01*
X131627800Y-99667317D01*
X131631864Y-99681159D01*
X131645278Y-99683193D01*
X131651984Y-99682334D01*
X131662062Y-99680192D01*
X131866055Y-99618991D01*
X131875642Y-99615233D01*
X132066895Y-99521539D01*
X132075745Y-99516264D01*
X132249128Y-99392592D01*
X132257000Y-99385939D01*
X132407852Y-99235612D01*
X132414530Y-99227765D01*
X132541822Y-99050619D01*
X132543079Y-99051522D01*
X132590173Y-99008162D01*
X132660111Y-98995945D01*
X132725551Y-99023478D01*
X132753379Y-99055311D01*
X132813787Y-99153888D01*
X132960050Y-99322738D01*
X133131926Y-99465432D01*
X133324800Y-99578138D01*
X133533492Y-99657830D01*
X133538560Y-99658861D01*
X133538563Y-99658862D01*
X133633662Y-99678210D01*
X133752397Y-99702367D01*
X133757572Y-99702557D01*
X133757574Y-99702557D01*
X133970473Y-99710364D01*
X133970477Y-99710364D01*
X133975637Y-99710553D01*
X133980757Y-99709897D01*
X133980759Y-99709897D01*
X134192088Y-99682825D01*
X134192089Y-99682825D01*
X134197216Y-99682168D01*
X134202166Y-99680683D01*
X134406229Y-99619461D01*
X134406234Y-99619459D01*
X134411184Y-99617974D01*
X134611794Y-99519696D01*
X134793660Y-99389973D01*
X134951896Y-99232289D01*
X135082253Y-99050877D01*
X135095795Y-99023478D01*
X135178936Y-98855253D01*
X135178937Y-98855251D01*
X135181230Y-98850611D01*
X135246170Y-98636869D01*
X135275329Y-98415390D01*
X135276956Y-98348800D01*
X135258652Y-98126161D01*
X135204231Y-97909502D01*
X135115154Y-97704640D01*
X134993814Y-97517077D01*
X134843470Y-97351851D01*
X134839419Y-97348652D01*
X134839415Y-97348648D01*
X134672214Y-97216600D01*
X134672210Y-97216598D01*
X134668159Y-97213398D01*
X134626853Y-97190596D01*
X134576884Y-97140164D01*
X134562112Y-97070721D01*
X134587228Y-97004316D01*
X134614580Y-96977709D01*
X134669716Y-96938381D01*
X134793660Y-96849973D01*
X134817274Y-96826442D01*
X134892607Y-96751371D01*
X134951896Y-96692289D01*
X134962716Y-96677232D01*
X135014379Y-96605334D01*
X141760100Y-96605334D01*
X141766855Y-96667516D01*
X141817985Y-96803905D01*
X141905339Y-96920461D01*
X142021895Y-97007815D01*
X142158284Y-97058945D01*
X142220466Y-97065700D01*
X144016734Y-97065700D01*
X144078916Y-97058945D01*
X144215305Y-97007815D01*
X144331861Y-96920461D01*
X144419215Y-96803905D01*
X144441399Y-96744729D01*
X144463198Y-96686582D01*
X144505840Y-96629818D01*
X144572402Y-96605118D01*
X144641750Y-96620326D01*
X144676417Y-96648314D01*
X144704850Y-96681138D01*
X144876726Y-96823832D01*
X145069600Y-96936538D01*
X145278292Y-97016230D01*
X145283360Y-97017261D01*
X145283363Y-97017262D01*
X145378462Y-97036610D01*
X145497197Y-97060767D01*
X145502372Y-97060957D01*
X145502374Y-97060957D01*
X145715273Y-97068764D01*
X145715277Y-97068764D01*
X145720437Y-97068953D01*
X145725557Y-97068297D01*
X145725559Y-97068297D01*
X145936888Y-97041225D01*
X145936889Y-97041225D01*
X145942016Y-97040568D01*
X145946966Y-97039083D01*
X146151029Y-96977861D01*
X146151034Y-96977859D01*
X146155984Y-96976374D01*
X146356594Y-96878096D01*
X146538460Y-96748373D01*
X146559239Y-96727667D01*
X146638868Y-96648315D01*
X146696696Y-96590689D01*
X146713935Y-96566699D01*
X146827053Y-96409277D01*
X146828240Y-96410130D01*
X146875560Y-96366562D01*
X146945497Y-96354345D01*
X147010938Y-96381878D01*
X147038766Y-96413711D01*
X147096294Y-96507588D01*
X147102377Y-96515899D01*
X147241813Y-96676867D01*
X147249180Y-96684083D01*
X147413034Y-96820116D01*
X147421481Y-96826031D01*
X147605356Y-96933479D01*
X147614642Y-96937929D01*
X147813601Y-97013903D01*
X147823499Y-97016779D01*
X147926850Y-97037806D01*
X147940899Y-97036610D01*
X147944600Y-97026265D01*
X147944600Y-97025717D01*
X148452600Y-97025717D01*
X148456664Y-97039559D01*
X148470078Y-97041593D01*
X148476784Y-97040734D01*
X148486862Y-97038592D01*
X148690855Y-96977391D01*
X148700442Y-96973633D01*
X148891695Y-96879939D01*
X148900545Y-96874664D01*
X149073928Y-96750992D01*
X149081800Y-96744339D01*
X149232652Y-96594012D01*
X149239330Y-96586165D01*
X149363603Y-96413220D01*
X149368913Y-96404383D01*
X149463270Y-96213467D01*
X149467069Y-96203872D01*
X149521121Y-96025966D01*
X156656257Y-96025966D01*
X156686565Y-96160446D01*
X156689645Y-96170275D01*
X156769770Y-96367603D01*
X156774413Y-96376794D01*
X156885694Y-96558388D01*
X156891777Y-96566699D01*
X157031213Y-96727667D01*
X157038580Y-96734883D01*
X157202434Y-96870916D01*
X157210881Y-96876831D01*
X157394756Y-96984279D01*
X157404042Y-96988729D01*
X157603001Y-97064703D01*
X157612899Y-97067579D01*
X157716250Y-97088606D01*
X157730299Y-97087410D01*
X157734000Y-97077065D01*
X157734000Y-97076517D01*
X158242000Y-97076517D01*
X158246064Y-97090359D01*
X158259478Y-97092393D01*
X158266184Y-97091534D01*
X158276262Y-97089392D01*
X158480255Y-97028191D01*
X158489842Y-97024433D01*
X158681095Y-96930739D01*
X158689945Y-96925464D01*
X158863328Y-96801792D01*
X158871200Y-96795139D01*
X159022052Y-96644812D01*
X159028730Y-96636965D01*
X159153003Y-96464020D01*
X159158313Y-96455183D01*
X159252670Y-96264267D01*
X159256469Y-96254672D01*
X159318377Y-96050910D01*
X159320555Y-96040837D01*
X159321986Y-96029962D01*
X159319775Y-96015778D01*
X159306617Y-96012000D01*
X158260115Y-96012000D01*
X158244876Y-96016475D01*
X158243671Y-96017865D01*
X158242000Y-96025548D01*
X158242000Y-97076517D01*
X157734000Y-97076517D01*
X157734000Y-96030115D01*
X157729525Y-96014876D01*
X157728135Y-96013671D01*
X157720452Y-96012000D01*
X156671225Y-96012000D01*
X156657694Y-96015973D01*
X156656257Y-96025966D01*
X149521121Y-96025966D01*
X149528977Y-96000110D01*
X149531155Y-95990037D01*
X149532586Y-95979162D01*
X149530375Y-95964978D01*
X149517217Y-95961200D01*
X148470715Y-95961200D01*
X148455476Y-95965675D01*
X148454271Y-95967065D01*
X148452600Y-95974748D01*
X148452600Y-97025717D01*
X147944600Y-97025717D01*
X147944600Y-95435085D01*
X148452600Y-95435085D01*
X148457075Y-95450324D01*
X148458465Y-95451529D01*
X148466148Y-95453200D01*
X149516944Y-95453200D01*
X149530475Y-95449227D01*
X149531780Y-95440147D01*
X149489814Y-95273075D01*
X149486494Y-95263324D01*
X149401572Y-95068014D01*
X149396705Y-95058939D01*
X149281026Y-94880126D01*
X149274736Y-94871957D01*
X149131406Y-94714440D01*
X149123873Y-94707415D01*
X148956739Y-94575422D01*
X148948152Y-94569717D01*
X148761717Y-94466799D01*
X148752305Y-94462569D01*
X148551559Y-94391480D01*
X148541588Y-94388846D01*
X148470437Y-94376172D01*
X148457140Y-94377632D01*
X148452600Y-94392189D01*
X148452600Y-95435085D01*
X147944600Y-95435085D01*
X147944600Y-94390302D01*
X147940682Y-94376958D01*
X147926406Y-94374971D01*
X147887924Y-94380860D01*
X147877888Y-94383251D01*
X147675468Y-94449412D01*
X147665959Y-94453409D01*
X147477063Y-94551742D01*
X147468338Y-94557236D01*
X147298033Y-94685105D01*
X147290326Y-94691948D01*
X147143190Y-94845917D01*
X147136709Y-94853922D01*
X147032098Y-95007274D01*
X146977187Y-95052276D01*
X146906662Y-95060447D01*
X146842915Y-95029193D01*
X146822218Y-95004709D01*
X146741422Y-94879817D01*
X146741420Y-94879814D01*
X146738614Y-94875477D01*
X146588270Y-94710251D01*
X146584219Y-94707052D01*
X146584215Y-94707048D01*
X146417014Y-94575000D01*
X146417010Y-94574998D01*
X146412959Y-94571798D01*
X146376628Y-94551742D01*
X146322329Y-94521768D01*
X146217389Y-94463838D01*
X146212520Y-94462114D01*
X146212516Y-94462112D01*
X146011687Y-94390995D01*
X146011683Y-94390994D01*
X146006812Y-94389269D01*
X146001719Y-94388362D01*
X146001716Y-94388361D01*
X145791973Y-94351000D01*
X145791967Y-94350999D01*
X145786884Y-94350094D01*
X145713052Y-94349192D01*
X145568681Y-94347428D01*
X145568679Y-94347428D01*
X145563511Y-94347365D01*
X145342691Y-94381155D01*
X145130356Y-94450557D01*
X145073962Y-94479914D01*
X144976363Y-94530721D01*
X144932207Y-94553707D01*
X144928074Y-94556810D01*
X144928071Y-94556812D01*
X144757700Y-94684730D01*
X144753565Y-94687835D01*
X144697137Y-94746884D01*
X144672883Y-94772264D01*
X144611359Y-94807694D01*
X144540446Y-94804237D01*
X144482660Y-94762991D01*
X144463807Y-94729443D01*
X144422367Y-94618903D01*
X144419215Y-94610495D01*
X144331861Y-94493939D01*
X144215305Y-94406585D01*
X144078916Y-94355455D01*
X144016734Y-94348700D01*
X143878100Y-94348700D01*
X143809979Y-94328698D01*
X143763486Y-94275042D01*
X143752100Y-94222700D01*
X143752100Y-94116134D01*
X156629500Y-94116134D01*
X156636255Y-94178316D01*
X156687385Y-94314705D01*
X156774739Y-94431261D01*
X156891295Y-94518615D01*
X156899704Y-94521767D01*
X156899705Y-94521768D01*
X157008960Y-94562726D01*
X157065725Y-94605367D01*
X157090425Y-94671929D01*
X157075218Y-94741278D01*
X157055825Y-94767759D01*
X156932590Y-94896717D01*
X156926104Y-94904727D01*
X156806098Y-95080649D01*
X156801000Y-95089623D01*
X156711338Y-95282783D01*
X156707775Y-95292470D01*
X156652389Y-95492183D01*
X156653912Y-95500607D01*
X156666292Y-95504000D01*
X159306344Y-95504000D01*
X159319875Y-95500027D01*
X159321180Y-95490947D01*
X159279214Y-95323875D01*
X159275894Y-95314124D01*
X159190972Y-95118814D01*
X159186105Y-95109739D01*
X159070426Y-94930926D01*
X159064136Y-94922757D01*
X158920293Y-94764677D01*
X158889241Y-94700831D01*
X158897635Y-94630333D01*
X158942812Y-94575564D01*
X158969256Y-94561895D01*
X159076297Y-94521767D01*
X159084705Y-94518615D01*
X159201261Y-94431261D01*
X159288615Y-94314705D01*
X159339745Y-94178316D01*
X159346500Y-94116134D01*
X159346500Y-92319866D01*
X159339745Y-92257684D01*
X159288615Y-92121295D01*
X159201261Y-92004739D01*
X159084705Y-91917385D01*
X158948316Y-91866255D01*
X158886134Y-91859500D01*
X157089866Y-91859500D01*
X157027684Y-91866255D01*
X156891295Y-91917385D01*
X156774739Y-92004739D01*
X156687385Y-92121295D01*
X156636255Y-92257684D01*
X156629500Y-92319866D01*
X156629500Y-94116134D01*
X143752100Y-94116134D01*
X143752100Y-93381700D01*
X143772102Y-93313579D01*
X143825758Y-93267086D01*
X143878100Y-93255700D01*
X144016734Y-93255700D01*
X144078916Y-93248945D01*
X144215305Y-93197815D01*
X144331861Y-93110461D01*
X144419215Y-92993905D01*
X144441399Y-92934729D01*
X144463198Y-92876582D01*
X144505840Y-92819818D01*
X144572402Y-92795118D01*
X144641750Y-92810326D01*
X144676417Y-92838314D01*
X144704850Y-92871138D01*
X144876726Y-93013832D01*
X145069600Y-93126538D01*
X145278292Y-93206230D01*
X145283360Y-93207261D01*
X145283363Y-93207262D01*
X145378462Y-93226610D01*
X145497197Y-93250767D01*
X145502372Y-93250957D01*
X145502374Y-93250957D01*
X145715273Y-93258764D01*
X145715277Y-93258764D01*
X145720437Y-93258953D01*
X145725557Y-93258297D01*
X145725559Y-93258297D01*
X145936888Y-93231225D01*
X145936889Y-93231225D01*
X145942016Y-93230568D01*
X145946966Y-93229083D01*
X146151029Y-93167861D01*
X146151034Y-93167859D01*
X146155984Y-93166374D01*
X146356594Y-93068096D01*
X146538460Y-92938373D01*
X146696696Y-92780689D01*
X146827053Y-92599277D01*
X146828240Y-92600130D01*
X146875560Y-92556562D01*
X146945497Y-92544345D01*
X147010938Y-92571878D01*
X147038766Y-92603711D01*
X147096294Y-92697588D01*
X147102377Y-92705899D01*
X147241813Y-92866867D01*
X147249180Y-92874083D01*
X147413034Y-93010116D01*
X147421481Y-93016031D01*
X147605356Y-93123479D01*
X147614642Y-93127929D01*
X147813601Y-93203903D01*
X147823499Y-93206779D01*
X147926850Y-93227806D01*
X147940899Y-93226610D01*
X147944600Y-93216265D01*
X147944600Y-93215717D01*
X148452600Y-93215717D01*
X148456664Y-93229559D01*
X148470078Y-93231593D01*
X148476784Y-93230734D01*
X148486862Y-93228592D01*
X148690855Y-93167391D01*
X148700442Y-93163633D01*
X148891695Y-93069939D01*
X148900545Y-93064664D01*
X149073928Y-92940992D01*
X149081800Y-92934339D01*
X149232652Y-92784012D01*
X149239330Y-92776165D01*
X149363603Y-92603220D01*
X149368913Y-92594383D01*
X149463270Y-92403467D01*
X149467069Y-92393872D01*
X149528977Y-92190110D01*
X149531155Y-92180037D01*
X149532586Y-92169162D01*
X149530375Y-92154978D01*
X149517217Y-92151200D01*
X148470715Y-92151200D01*
X148455476Y-92155675D01*
X148454271Y-92157065D01*
X148452600Y-92164748D01*
X148452600Y-93215717D01*
X147944600Y-93215717D01*
X147944600Y-91625085D01*
X148452600Y-91625085D01*
X148457075Y-91640324D01*
X148458465Y-91641529D01*
X148466148Y-91643200D01*
X149516944Y-91643200D01*
X149530475Y-91639227D01*
X149531780Y-91630147D01*
X149489814Y-91463075D01*
X149486494Y-91453324D01*
X149401572Y-91258014D01*
X149396705Y-91248939D01*
X149281026Y-91070126D01*
X149274736Y-91061957D01*
X149131406Y-90904440D01*
X149123873Y-90897415D01*
X148956739Y-90765422D01*
X148948152Y-90759717D01*
X148761717Y-90656799D01*
X148752305Y-90652569D01*
X148551559Y-90581480D01*
X148541588Y-90578846D01*
X148470437Y-90566172D01*
X148457140Y-90567632D01*
X148452600Y-90582189D01*
X148452600Y-91625085D01*
X147944600Y-91625085D01*
X147944600Y-90580302D01*
X147940682Y-90566958D01*
X147926406Y-90564971D01*
X147887924Y-90570860D01*
X147877888Y-90573251D01*
X147675468Y-90639412D01*
X147665959Y-90643409D01*
X147477063Y-90741742D01*
X147468338Y-90747236D01*
X147298033Y-90875105D01*
X147290326Y-90881948D01*
X147143190Y-91035917D01*
X147136709Y-91043922D01*
X147032098Y-91197274D01*
X146977187Y-91242276D01*
X146906662Y-91250447D01*
X146842915Y-91219193D01*
X146822218Y-91194709D01*
X146741422Y-91069817D01*
X146741420Y-91069814D01*
X146738614Y-91065477D01*
X146588270Y-90900251D01*
X146584219Y-90897052D01*
X146584215Y-90897048D01*
X146417014Y-90765000D01*
X146417010Y-90764998D01*
X146412959Y-90761798D01*
X146376628Y-90741742D01*
X146302191Y-90700651D01*
X146217389Y-90653838D01*
X146212520Y-90652114D01*
X146212516Y-90652112D01*
X146011687Y-90580995D01*
X146011683Y-90580994D01*
X146006812Y-90579269D01*
X146001719Y-90578362D01*
X146001716Y-90578361D01*
X145791973Y-90541000D01*
X145791967Y-90540999D01*
X145786884Y-90540094D01*
X145713052Y-90539192D01*
X145568681Y-90537428D01*
X145568679Y-90537428D01*
X145563511Y-90537365D01*
X145342691Y-90571155D01*
X145130356Y-90640557D01*
X144932207Y-90743707D01*
X144928074Y-90746810D01*
X144928071Y-90746812D01*
X144757700Y-90874730D01*
X144753565Y-90877835D01*
X144697137Y-90936884D01*
X144672883Y-90962264D01*
X144611359Y-90997694D01*
X144540446Y-90994237D01*
X144482660Y-90952991D01*
X144463807Y-90919443D01*
X144422367Y-90808903D01*
X144419215Y-90800495D01*
X144331861Y-90683939D01*
X144215305Y-90596585D01*
X144078916Y-90545455D01*
X144016734Y-90538700D01*
X143878100Y-90538700D01*
X143809979Y-90518698D01*
X143763486Y-90465042D01*
X143752100Y-90412700D01*
X143752100Y-89571700D01*
X143772102Y-89503579D01*
X143825758Y-89457086D01*
X143878100Y-89445700D01*
X144016734Y-89445700D01*
X144078916Y-89438945D01*
X144215305Y-89387815D01*
X144331861Y-89300461D01*
X144419215Y-89183905D01*
X144441399Y-89124729D01*
X144463198Y-89066582D01*
X144505840Y-89009818D01*
X144572402Y-88985118D01*
X144641750Y-89000326D01*
X144676417Y-89028314D01*
X144704850Y-89061138D01*
X144876726Y-89203832D01*
X145069600Y-89316538D01*
X145278292Y-89396230D01*
X145283360Y-89397261D01*
X145283363Y-89397262D01*
X145370033Y-89414895D01*
X145497197Y-89440767D01*
X145502372Y-89440957D01*
X145502374Y-89440957D01*
X145715273Y-89448764D01*
X145715277Y-89448764D01*
X145720437Y-89448953D01*
X145725557Y-89448297D01*
X145725559Y-89448297D01*
X145936888Y-89421225D01*
X145936889Y-89421225D01*
X145942016Y-89420568D01*
X145946966Y-89419083D01*
X146151029Y-89357861D01*
X146151034Y-89357859D01*
X146155984Y-89356374D01*
X146356594Y-89258096D01*
X146538460Y-89128373D01*
X146696696Y-88970689D01*
X146751029Y-88895077D01*
X146827053Y-88789277D01*
X146828240Y-88790130D01*
X146875560Y-88746562D01*
X146945497Y-88734345D01*
X147010938Y-88761878D01*
X147038766Y-88793711D01*
X147096294Y-88887588D01*
X147102377Y-88895899D01*
X147241813Y-89056867D01*
X147249180Y-89064083D01*
X147413034Y-89200116D01*
X147421481Y-89206031D01*
X147605356Y-89313479D01*
X147614642Y-89317929D01*
X147813601Y-89393903D01*
X147823499Y-89396779D01*
X147926850Y-89417806D01*
X147940899Y-89416610D01*
X147944600Y-89406265D01*
X147944600Y-89405717D01*
X148452600Y-89405717D01*
X148456664Y-89419559D01*
X148470078Y-89421593D01*
X148476784Y-89420734D01*
X148486862Y-89418592D01*
X148690855Y-89357391D01*
X148700442Y-89353633D01*
X148891695Y-89259939D01*
X148900545Y-89254664D01*
X149073928Y-89130992D01*
X149081800Y-89124339D01*
X149232652Y-88974012D01*
X149239330Y-88966165D01*
X149363603Y-88793220D01*
X149368913Y-88784383D01*
X149463270Y-88593467D01*
X149467069Y-88583872D01*
X149528977Y-88380110D01*
X149531155Y-88370037D01*
X149532586Y-88359162D01*
X149530375Y-88344978D01*
X149517217Y-88341200D01*
X148470715Y-88341200D01*
X148455476Y-88345675D01*
X148454271Y-88347065D01*
X148452600Y-88354748D01*
X148452600Y-89405717D01*
X147944600Y-89405717D01*
X147944600Y-88114695D01*
X156523651Y-88114695D01*
X156523948Y-88119848D01*
X156523948Y-88119851D01*
X156536212Y-88332547D01*
X156536510Y-88337715D01*
X156537647Y-88342761D01*
X156537648Y-88342767D01*
X156546064Y-88380110D01*
X156585622Y-88555639D01*
X156669666Y-88762616D01*
X156786387Y-88953088D01*
X156932650Y-89121938D01*
X157104526Y-89264632D01*
X157297400Y-89377338D01*
X157302225Y-89379180D01*
X157302226Y-89379181D01*
X157346873Y-89396230D01*
X157506092Y-89457030D01*
X157511160Y-89458061D01*
X157511163Y-89458062D01*
X157580443Y-89472157D01*
X157724997Y-89501567D01*
X157730172Y-89501757D01*
X157730174Y-89501757D01*
X157943073Y-89509564D01*
X157943077Y-89509564D01*
X157948237Y-89509753D01*
X157953357Y-89509097D01*
X157953359Y-89509097D01*
X158164688Y-89482025D01*
X158164689Y-89482025D01*
X158169816Y-89481368D01*
X158200518Y-89472157D01*
X158378829Y-89418661D01*
X158378834Y-89418659D01*
X158383784Y-89417174D01*
X158584394Y-89318896D01*
X158766260Y-89189173D01*
X158771547Y-89183905D01*
X158920835Y-89035137D01*
X158924496Y-89031489D01*
X158983994Y-88948689D01*
X159051835Y-88854277D01*
X159054853Y-88850077D01*
X159082954Y-88793220D01*
X159151536Y-88654453D01*
X159151537Y-88654451D01*
X159153830Y-88649811D01*
X159218770Y-88436069D01*
X159247929Y-88214590D01*
X159249556Y-88148000D01*
X159246818Y-88114695D01*
X163076851Y-88114695D01*
X163077148Y-88119848D01*
X163077148Y-88119851D01*
X163089412Y-88332547D01*
X163089710Y-88337715D01*
X163090847Y-88342761D01*
X163090848Y-88342767D01*
X163099264Y-88380110D01*
X163138822Y-88555639D01*
X163222866Y-88762616D01*
X163339587Y-88953088D01*
X163485850Y-89121938D01*
X163657726Y-89264632D01*
X163850600Y-89377338D01*
X163855425Y-89379180D01*
X163855426Y-89379181D01*
X163900073Y-89396230D01*
X164059292Y-89457030D01*
X164064360Y-89458061D01*
X164064363Y-89458062D01*
X164133643Y-89472157D01*
X164278197Y-89501567D01*
X164283372Y-89501757D01*
X164283374Y-89501757D01*
X164496273Y-89509564D01*
X164496277Y-89509564D01*
X164501437Y-89509753D01*
X164506557Y-89509097D01*
X164506559Y-89509097D01*
X164717888Y-89482025D01*
X164717889Y-89482025D01*
X164723016Y-89481368D01*
X164753718Y-89472157D01*
X164932029Y-89418661D01*
X164932034Y-89418659D01*
X164936984Y-89417174D01*
X165137594Y-89318896D01*
X165319460Y-89189173D01*
X165324747Y-89183905D01*
X165474035Y-89035137D01*
X165477696Y-89031489D01*
X165537194Y-88948689D01*
X165605035Y-88854277D01*
X165608053Y-88850077D01*
X165636154Y-88793220D01*
X165704736Y-88654453D01*
X165704737Y-88654451D01*
X165707030Y-88649811D01*
X165771970Y-88436069D01*
X165801129Y-88214590D01*
X165802756Y-88148000D01*
X165784452Y-87925361D01*
X165730031Y-87708702D01*
X165640954Y-87503840D01*
X165563885Y-87384709D01*
X165522422Y-87320617D01*
X165522420Y-87320614D01*
X165519614Y-87316277D01*
X165369270Y-87151051D01*
X165365219Y-87147852D01*
X165365215Y-87147848D01*
X165198014Y-87015800D01*
X165198010Y-87015798D01*
X165193959Y-87012598D01*
X165152169Y-86989529D01*
X165102198Y-86939097D01*
X165087426Y-86869654D01*
X165112542Y-86803248D01*
X165139894Y-86776641D01*
X165314928Y-86651792D01*
X165322800Y-86645139D01*
X165473652Y-86494812D01*
X165480330Y-86486965D01*
X165604603Y-86314020D01*
X165609913Y-86305183D01*
X165704270Y-86114267D01*
X165708069Y-86104672D01*
X165769977Y-85900910D01*
X165772155Y-85890837D01*
X165773586Y-85879962D01*
X165771375Y-85865778D01*
X165758217Y-85862000D01*
X163122825Y-85862000D01*
X163109294Y-85865973D01*
X163107857Y-85875966D01*
X163138165Y-86010446D01*
X163141245Y-86020275D01*
X163221370Y-86217603D01*
X163226013Y-86226794D01*
X163337294Y-86408388D01*
X163343377Y-86416699D01*
X163482813Y-86577667D01*
X163490180Y-86584883D01*
X163654034Y-86720916D01*
X163662481Y-86726831D01*
X163731569Y-86767203D01*
X163780293Y-86818842D01*
X163793364Y-86888625D01*
X163766633Y-86954396D01*
X163726184Y-86987752D01*
X163713207Y-86994507D01*
X163709074Y-86997610D01*
X163709071Y-86997612D01*
X163538700Y-87125530D01*
X163534565Y-87128635D01*
X163380229Y-87290138D01*
X163254343Y-87474680D01*
X163160288Y-87677305D01*
X163100589Y-87892570D01*
X163076851Y-88114695D01*
X159246818Y-88114695D01*
X159231252Y-87925361D01*
X159176831Y-87708702D01*
X159087754Y-87503840D01*
X159010685Y-87384709D01*
X158969222Y-87320617D01*
X158969220Y-87320614D01*
X158966414Y-87316277D01*
X158816070Y-87151051D01*
X158812019Y-87147852D01*
X158812015Y-87147848D01*
X158644814Y-87015800D01*
X158644810Y-87015798D01*
X158640759Y-87012598D01*
X158598969Y-86989529D01*
X158548998Y-86939097D01*
X158534226Y-86869654D01*
X158559342Y-86803248D01*
X158586694Y-86776641D01*
X158761728Y-86651792D01*
X158769600Y-86645139D01*
X158920452Y-86494812D01*
X158927130Y-86486965D01*
X159051403Y-86314020D01*
X159056713Y-86305183D01*
X159151070Y-86114267D01*
X159154869Y-86104672D01*
X159216777Y-85900910D01*
X159218955Y-85890837D01*
X159220386Y-85879962D01*
X159218175Y-85865778D01*
X159205017Y-85862000D01*
X156569625Y-85862000D01*
X156556094Y-85865973D01*
X156554657Y-85875966D01*
X156584965Y-86010446D01*
X156588045Y-86020275D01*
X156668170Y-86217603D01*
X156672813Y-86226794D01*
X156784094Y-86408388D01*
X156790177Y-86416699D01*
X156929613Y-86577667D01*
X156936980Y-86584883D01*
X157100834Y-86720916D01*
X157109281Y-86726831D01*
X157178369Y-86767203D01*
X157227093Y-86818842D01*
X157240164Y-86888625D01*
X157213433Y-86954396D01*
X157172984Y-86987752D01*
X157160007Y-86994507D01*
X157155874Y-86997610D01*
X157155871Y-86997612D01*
X156985500Y-87125530D01*
X156981365Y-87128635D01*
X156827029Y-87290138D01*
X156701143Y-87474680D01*
X156607088Y-87677305D01*
X156547389Y-87892570D01*
X156523651Y-88114695D01*
X147944600Y-88114695D01*
X147944600Y-87815085D01*
X148452600Y-87815085D01*
X148457075Y-87830324D01*
X148458465Y-87831529D01*
X148466148Y-87833200D01*
X149516944Y-87833200D01*
X149530475Y-87829227D01*
X149531780Y-87820147D01*
X149489814Y-87653075D01*
X149486494Y-87643324D01*
X149401572Y-87448014D01*
X149396705Y-87438939D01*
X149281026Y-87260126D01*
X149274736Y-87251957D01*
X149131406Y-87094440D01*
X149123873Y-87087415D01*
X148956739Y-86955422D01*
X148948152Y-86949717D01*
X148761717Y-86846799D01*
X148752305Y-86842569D01*
X148551559Y-86771480D01*
X148541588Y-86768846D01*
X148470437Y-86756172D01*
X148457140Y-86757632D01*
X148452600Y-86772189D01*
X148452600Y-87815085D01*
X147944600Y-87815085D01*
X147944600Y-86770302D01*
X147940682Y-86756958D01*
X147926406Y-86754971D01*
X147887924Y-86760860D01*
X147877888Y-86763251D01*
X147675468Y-86829412D01*
X147665959Y-86833409D01*
X147477063Y-86931742D01*
X147468338Y-86937236D01*
X147298033Y-87065105D01*
X147290326Y-87071948D01*
X147143190Y-87225917D01*
X147136709Y-87233922D01*
X147032098Y-87387274D01*
X146977187Y-87432276D01*
X146906662Y-87440447D01*
X146842915Y-87409193D01*
X146822218Y-87384709D01*
X146741422Y-87259817D01*
X146741420Y-87259814D01*
X146738614Y-87255477D01*
X146588270Y-87090251D01*
X146584219Y-87087052D01*
X146584215Y-87087048D01*
X146417014Y-86955000D01*
X146417010Y-86954998D01*
X146412959Y-86951798D01*
X146376628Y-86931742D01*
X146327528Y-86904638D01*
X146217389Y-86843838D01*
X146212520Y-86842114D01*
X146212516Y-86842112D01*
X146011687Y-86770995D01*
X146011683Y-86770994D01*
X146006812Y-86769269D01*
X146001719Y-86768362D01*
X146001716Y-86768361D01*
X145791973Y-86731000D01*
X145791967Y-86730999D01*
X145786884Y-86730094D01*
X145713052Y-86729192D01*
X145568681Y-86727428D01*
X145568679Y-86727428D01*
X145563511Y-86727365D01*
X145342691Y-86761155D01*
X145130356Y-86830557D01*
X145073962Y-86859914D01*
X144976363Y-86910721D01*
X144932207Y-86933707D01*
X144928074Y-86936810D01*
X144928071Y-86936812D01*
X144757700Y-87064730D01*
X144753565Y-87067835D01*
X144697137Y-87126884D01*
X144672883Y-87152264D01*
X144611359Y-87187694D01*
X144540446Y-87184237D01*
X144482660Y-87142991D01*
X144463807Y-87109443D01*
X144422367Y-86998903D01*
X144419215Y-86990495D01*
X144331861Y-86873939D01*
X144215305Y-86786585D01*
X144078916Y-86735455D01*
X144016734Y-86728700D01*
X143878100Y-86728700D01*
X143809979Y-86708698D01*
X143763486Y-86655042D01*
X143752100Y-86602700D01*
X143752100Y-85761700D01*
X143772102Y-85693579D01*
X143825758Y-85647086D01*
X143878100Y-85635700D01*
X144016734Y-85635700D01*
X144078916Y-85628945D01*
X144215305Y-85577815D01*
X144331861Y-85490461D01*
X144419215Y-85373905D01*
X144427949Y-85350607D01*
X144463198Y-85256582D01*
X144505840Y-85199818D01*
X144572402Y-85175118D01*
X144641750Y-85190326D01*
X144676417Y-85218314D01*
X144704850Y-85251138D01*
X144876726Y-85393832D01*
X145069600Y-85506538D01*
X145278292Y-85586230D01*
X145283360Y-85587261D01*
X145283363Y-85587262D01*
X145378462Y-85606610D01*
X145497197Y-85630767D01*
X145502372Y-85630957D01*
X145502374Y-85630957D01*
X145715273Y-85638764D01*
X145715277Y-85638764D01*
X145720437Y-85638953D01*
X145725557Y-85638297D01*
X145725559Y-85638297D01*
X145936888Y-85611225D01*
X145936889Y-85611225D01*
X145942016Y-85610568D01*
X145946966Y-85609083D01*
X146151029Y-85547861D01*
X146151034Y-85547859D01*
X146155984Y-85546374D01*
X146356594Y-85448096D01*
X146538460Y-85318373D01*
X146696696Y-85160689D01*
X146716749Y-85132783D01*
X146827053Y-84979277D01*
X146828240Y-84980130D01*
X146875560Y-84936562D01*
X146945497Y-84924345D01*
X147010938Y-84951878D01*
X147038766Y-84983711D01*
X147096294Y-85077588D01*
X147102377Y-85085899D01*
X147241813Y-85246867D01*
X147249180Y-85254083D01*
X147413034Y-85390116D01*
X147421481Y-85396031D01*
X147605356Y-85503479D01*
X147614642Y-85507929D01*
X147813601Y-85583903D01*
X147823499Y-85586779D01*
X147926850Y-85607806D01*
X147940899Y-85606610D01*
X147944600Y-85596265D01*
X147944600Y-85595717D01*
X148452600Y-85595717D01*
X148456664Y-85609559D01*
X148470078Y-85611593D01*
X148476784Y-85610734D01*
X148486862Y-85608592D01*
X148690855Y-85547391D01*
X148700442Y-85543633D01*
X148891695Y-85449939D01*
X148900545Y-85444664D01*
X149073928Y-85320992D01*
X149081800Y-85314339D01*
X149232652Y-85164012D01*
X149239330Y-85156165D01*
X149363603Y-84983220D01*
X149368913Y-84974383D01*
X149463270Y-84783467D01*
X149467069Y-84773872D01*
X149528977Y-84570110D01*
X149531155Y-84560037D01*
X149532586Y-84549162D01*
X149530375Y-84534978D01*
X149517217Y-84531200D01*
X148470715Y-84531200D01*
X148455476Y-84535675D01*
X148454271Y-84537065D01*
X148452600Y-84544748D01*
X148452600Y-85595717D01*
X147944600Y-85595717D01*
X147944600Y-84005085D01*
X148452600Y-84005085D01*
X148457075Y-84020324D01*
X148458465Y-84021529D01*
X148466148Y-84023200D01*
X149516944Y-84023200D01*
X149530475Y-84019227D01*
X149531780Y-84010147D01*
X149489814Y-83843075D01*
X149486494Y-83833324D01*
X149401572Y-83638014D01*
X149396705Y-83628939D01*
X149281026Y-83450126D01*
X149274736Y-83441957D01*
X149131406Y-83284440D01*
X149123873Y-83277415D01*
X148956739Y-83145422D01*
X148948152Y-83139717D01*
X148761717Y-83036799D01*
X148752305Y-83032569D01*
X148551559Y-82961480D01*
X148541588Y-82958846D01*
X148470437Y-82946172D01*
X148457140Y-82947632D01*
X148452600Y-82962189D01*
X148452600Y-84005085D01*
X147944600Y-84005085D01*
X147944600Y-82960302D01*
X147940682Y-82946958D01*
X147926406Y-82944971D01*
X147887924Y-82950860D01*
X147877888Y-82953251D01*
X147675468Y-83019412D01*
X147665959Y-83023409D01*
X147477063Y-83121742D01*
X147468338Y-83127236D01*
X147298033Y-83255105D01*
X147290326Y-83261948D01*
X147143190Y-83415917D01*
X147136709Y-83423922D01*
X147032098Y-83577274D01*
X146977187Y-83622276D01*
X146906662Y-83630447D01*
X146842915Y-83599193D01*
X146822218Y-83574709D01*
X146741422Y-83449817D01*
X146741420Y-83449814D01*
X146738614Y-83445477D01*
X146588270Y-83280251D01*
X146584219Y-83277052D01*
X146584215Y-83277048D01*
X146417014Y-83145000D01*
X146417010Y-83144998D01*
X146412959Y-83141798D01*
X146405913Y-83137908D01*
X146302191Y-83080651D01*
X146217389Y-83033838D01*
X146212520Y-83032114D01*
X146212516Y-83032112D01*
X146011687Y-82960995D01*
X146011683Y-82960994D01*
X146006812Y-82959269D01*
X146001719Y-82958362D01*
X146001716Y-82958361D01*
X145791973Y-82921000D01*
X145791967Y-82920999D01*
X145786884Y-82920094D01*
X145713052Y-82919192D01*
X145568681Y-82917428D01*
X145568679Y-82917428D01*
X145563511Y-82917365D01*
X145342691Y-82951155D01*
X145130356Y-83020557D01*
X144932207Y-83123707D01*
X144928074Y-83126810D01*
X144928071Y-83126812D01*
X144757700Y-83254730D01*
X144753565Y-83257835D01*
X144697137Y-83316884D01*
X144672883Y-83342264D01*
X144611359Y-83377694D01*
X144540446Y-83374237D01*
X144482660Y-83332991D01*
X144463807Y-83299443D01*
X144422367Y-83188903D01*
X144419215Y-83180495D01*
X144331861Y-83063939D01*
X144215305Y-82976585D01*
X144078916Y-82925455D01*
X144016734Y-82918700D01*
X143878100Y-82918700D01*
X143809979Y-82898698D01*
X143763486Y-82845042D01*
X143752100Y-82792700D01*
X143752100Y-82002500D01*
X143772102Y-81934379D01*
X143825758Y-81887886D01*
X143878100Y-81876500D01*
X144016734Y-81876500D01*
X144078916Y-81869745D01*
X144215305Y-81818615D01*
X144331861Y-81731261D01*
X144419215Y-81614705D01*
X144441399Y-81555529D01*
X144463198Y-81497382D01*
X144505840Y-81440618D01*
X144572402Y-81415918D01*
X144641750Y-81431126D01*
X144676417Y-81459114D01*
X144704850Y-81491938D01*
X144876726Y-81634632D01*
X145069600Y-81747338D01*
X145278292Y-81827030D01*
X145283360Y-81828061D01*
X145283363Y-81828062D01*
X145378462Y-81847410D01*
X145497197Y-81871567D01*
X145502372Y-81871757D01*
X145502374Y-81871757D01*
X145715273Y-81879564D01*
X145715277Y-81879564D01*
X145720437Y-81879753D01*
X145725557Y-81879097D01*
X145725559Y-81879097D01*
X145936888Y-81852025D01*
X145936889Y-81852025D01*
X145942016Y-81851368D01*
X145947586Y-81849697D01*
X146151029Y-81788661D01*
X146151034Y-81788659D01*
X146155984Y-81787174D01*
X146356594Y-81688896D01*
X146538460Y-81559173D01*
X146561198Y-81536515D01*
X146682216Y-81415918D01*
X146696696Y-81401489D01*
X146713726Y-81377790D01*
X146827053Y-81220077D01*
X146828240Y-81220930D01*
X146875560Y-81177362D01*
X146945497Y-81165145D01*
X147010938Y-81192678D01*
X147038766Y-81224511D01*
X147096294Y-81318388D01*
X147102377Y-81326699D01*
X147241813Y-81487667D01*
X147249180Y-81494883D01*
X147413034Y-81630916D01*
X147421481Y-81636831D01*
X147605356Y-81744279D01*
X147614642Y-81748729D01*
X147813601Y-81824703D01*
X147823499Y-81827579D01*
X147926850Y-81848606D01*
X147940899Y-81847410D01*
X147944600Y-81837065D01*
X147944600Y-81836517D01*
X148452600Y-81836517D01*
X148456664Y-81850359D01*
X148470078Y-81852393D01*
X148476784Y-81851534D01*
X148486862Y-81849392D01*
X148690855Y-81788191D01*
X148700442Y-81784433D01*
X148891695Y-81690739D01*
X148900545Y-81685464D01*
X149073928Y-81561792D01*
X149081800Y-81555139D01*
X149232652Y-81404812D01*
X149239330Y-81396965D01*
X149363603Y-81224020D01*
X149368913Y-81215183D01*
X149463270Y-81024267D01*
X149467069Y-81014672D01*
X149528977Y-80810910D01*
X149531155Y-80800837D01*
X149532586Y-80789962D01*
X149530375Y-80775778D01*
X149517217Y-80772000D01*
X148470715Y-80772000D01*
X148455476Y-80776475D01*
X148454271Y-80777865D01*
X148452600Y-80785548D01*
X148452600Y-81836517D01*
X147944600Y-81836517D01*
X147944600Y-80390000D01*
X147964602Y-80321879D01*
X148018258Y-80275386D01*
X148070600Y-80264000D01*
X149516944Y-80264000D01*
X149530475Y-80260027D01*
X149531780Y-80250947D01*
X149489814Y-80083875D01*
X149486494Y-80074124D01*
X149413106Y-79905342D01*
X149404286Y-79834896D01*
X149434953Y-79770864D01*
X149495369Y-79733576D01*
X149528656Y-79729100D01*
X154727006Y-79729100D01*
X154795127Y-79749102D01*
X154816101Y-79766005D01*
X155970343Y-80920247D01*
X155977887Y-80928537D01*
X155982000Y-80935018D01*
X155987777Y-80940443D01*
X156031667Y-80981658D01*
X156034509Y-80984413D01*
X156054231Y-81004135D01*
X156057355Y-81006558D01*
X156057359Y-81006562D01*
X156057424Y-81006612D01*
X156066445Y-81014317D01*
X156098679Y-81044586D01*
X156105627Y-81048405D01*
X156105629Y-81048407D01*
X156116432Y-81054346D01*
X156132959Y-81065202D01*
X156142698Y-81072757D01*
X156142700Y-81072758D01*
X156148960Y-81077614D01*
X156189540Y-81095174D01*
X156200188Y-81100391D01*
X156238940Y-81121695D01*
X156246616Y-81123666D01*
X156246619Y-81123667D01*
X156258562Y-81126733D01*
X156277267Y-81133137D01*
X156295855Y-81141181D01*
X156303678Y-81142420D01*
X156303688Y-81142423D01*
X156339524Y-81148099D01*
X156351144Y-81150505D01*
X156386289Y-81159528D01*
X156393970Y-81161500D01*
X156401901Y-81161500D01*
X156409760Y-81162493D01*
X156409600Y-81163761D01*
X156470021Y-81181502D01*
X156516514Y-81235158D01*
X156527900Y-81287500D01*
X156527900Y-81426134D01*
X156534655Y-81488316D01*
X156585785Y-81624705D01*
X156673139Y-81741261D01*
X156789695Y-81828615D01*
X156798104Y-81831767D01*
X156798105Y-81831768D01*
X156906851Y-81872535D01*
X156963616Y-81915176D01*
X156988316Y-81981738D01*
X156973109Y-82051087D01*
X156953716Y-82077568D01*
X156827029Y-82210138D01*
X156701143Y-82394680D01*
X156607088Y-82597305D01*
X156547389Y-82812570D01*
X156523651Y-83034695D01*
X156523948Y-83039848D01*
X156523948Y-83039851D01*
X156532542Y-83188903D01*
X156536510Y-83257715D01*
X156537647Y-83262761D01*
X156537648Y-83262767D01*
X156551615Y-83324740D01*
X156585622Y-83475639D01*
X156669666Y-83682616D01*
X156672365Y-83687020D01*
X156762020Y-83833324D01*
X156786387Y-83873088D01*
X156932650Y-84041938D01*
X157104526Y-84184632D01*
X157168691Y-84222127D01*
X157178355Y-84227774D01*
X157227079Y-84279412D01*
X157240150Y-84349195D01*
X157213419Y-84414967D01*
X157172962Y-84448327D01*
X157164857Y-84452546D01*
X157156138Y-84458036D01*
X156985833Y-84585905D01*
X156978126Y-84592748D01*
X156830990Y-84746717D01*
X156824504Y-84754727D01*
X156704498Y-84930649D01*
X156699400Y-84939623D01*
X156609738Y-85132783D01*
X156606175Y-85142470D01*
X156550789Y-85342183D01*
X156552312Y-85350607D01*
X156564692Y-85354000D01*
X159204744Y-85354000D01*
X159218275Y-85350027D01*
X159219580Y-85340947D01*
X159177614Y-85173875D01*
X159174294Y-85164124D01*
X159089372Y-84968814D01*
X159084505Y-84959739D01*
X158968826Y-84780926D01*
X158962536Y-84772757D01*
X158819206Y-84615240D01*
X158811673Y-84608215D01*
X158644539Y-84476222D01*
X158635956Y-84470520D01*
X158599002Y-84450120D01*
X158549031Y-84399687D01*
X158534259Y-84330245D01*
X158559375Y-84263839D01*
X158586727Y-84237232D01*
X158610197Y-84220491D01*
X158766260Y-84109173D01*
X158924496Y-83951489D01*
X158983994Y-83868689D01*
X159051835Y-83774277D01*
X159054853Y-83770077D01*
X159122581Y-83633040D01*
X159151536Y-83574453D01*
X159151537Y-83574451D01*
X159153830Y-83569811D01*
X159218770Y-83356069D01*
X159247929Y-83134590D01*
X159249556Y-83068000D01*
X159231252Y-82845361D01*
X159176831Y-82628702D01*
X159087754Y-82423840D01*
X159048306Y-82362862D01*
X158969222Y-82240617D01*
X158969220Y-82240614D01*
X158966414Y-82236277D01*
X158962932Y-82232450D01*
X158819198Y-82074488D01*
X158788146Y-82010642D01*
X158796541Y-81940143D01*
X158841717Y-81885375D01*
X158868161Y-81871706D01*
X158974697Y-81831767D01*
X158983105Y-81828615D01*
X159099661Y-81741261D01*
X159187015Y-81624705D01*
X159238145Y-81488316D01*
X159244900Y-81426134D01*
X159244900Y-81287500D01*
X159264902Y-81219379D01*
X159318558Y-81172886D01*
X159370900Y-81161500D01*
X162955100Y-81161500D01*
X163023221Y-81181502D01*
X163069714Y-81235158D01*
X163081100Y-81287500D01*
X163081100Y-81426134D01*
X163087855Y-81488316D01*
X163138985Y-81624705D01*
X163226339Y-81741261D01*
X163342895Y-81828615D01*
X163351304Y-81831767D01*
X163351305Y-81831768D01*
X163460051Y-81872535D01*
X163516816Y-81915176D01*
X163541516Y-81981738D01*
X163526309Y-82051087D01*
X163506916Y-82077568D01*
X163380229Y-82210138D01*
X163254343Y-82394680D01*
X163160288Y-82597305D01*
X163100589Y-82812570D01*
X163076851Y-83034695D01*
X163077148Y-83039848D01*
X163077148Y-83039851D01*
X163085742Y-83188903D01*
X163089710Y-83257715D01*
X163090847Y-83262761D01*
X163090848Y-83262767D01*
X163104815Y-83324740D01*
X163138822Y-83475639D01*
X163222866Y-83682616D01*
X163225565Y-83687020D01*
X163315220Y-83833324D01*
X163339587Y-83873088D01*
X163485850Y-84041938D01*
X163657726Y-84184632D01*
X163721891Y-84222127D01*
X163731555Y-84227774D01*
X163780279Y-84279412D01*
X163793350Y-84349195D01*
X163766619Y-84414967D01*
X163726162Y-84448327D01*
X163718057Y-84452546D01*
X163709338Y-84458036D01*
X163539033Y-84585905D01*
X163531326Y-84592748D01*
X163384190Y-84746717D01*
X163377704Y-84754727D01*
X163257698Y-84930649D01*
X163252600Y-84939623D01*
X163162938Y-85132783D01*
X163159375Y-85142470D01*
X163103989Y-85342183D01*
X163105512Y-85350607D01*
X163117892Y-85354000D01*
X165757944Y-85354000D01*
X165771475Y-85350027D01*
X165772780Y-85340947D01*
X165730814Y-85173875D01*
X165727494Y-85164124D01*
X165642572Y-84968814D01*
X165637705Y-84959739D01*
X165522026Y-84780926D01*
X165515736Y-84772757D01*
X165372406Y-84615240D01*
X165364873Y-84608215D01*
X165197739Y-84476222D01*
X165189156Y-84470520D01*
X165152202Y-84450120D01*
X165102231Y-84399687D01*
X165087459Y-84330245D01*
X165112575Y-84263839D01*
X165139927Y-84237232D01*
X165163397Y-84220491D01*
X165319460Y-84109173D01*
X165477696Y-83951489D01*
X165537194Y-83868689D01*
X165605035Y-83774277D01*
X165608053Y-83770077D01*
X165675781Y-83633040D01*
X165704736Y-83574453D01*
X165704737Y-83574451D01*
X165707030Y-83569811D01*
X165771970Y-83356069D01*
X165801129Y-83134590D01*
X165802756Y-83068000D01*
X165784452Y-82845361D01*
X165730031Y-82628702D01*
X165640954Y-82423840D01*
X165601506Y-82362862D01*
X165522422Y-82240617D01*
X165522420Y-82240614D01*
X165519614Y-82236277D01*
X165516132Y-82232450D01*
X165372398Y-82074488D01*
X165341346Y-82010642D01*
X165349741Y-81940143D01*
X165394917Y-81885375D01*
X165421361Y-81871706D01*
X165527897Y-81831767D01*
X165536305Y-81828615D01*
X165652861Y-81741261D01*
X165740215Y-81624705D01*
X165791345Y-81488316D01*
X165798100Y-81426134D01*
X165798100Y-79629866D01*
X165791345Y-79567684D01*
X165740215Y-79431295D01*
X165652861Y-79314739D01*
X165536305Y-79227385D01*
X165399916Y-79176255D01*
X165337734Y-79169500D01*
X163541466Y-79169500D01*
X163479284Y-79176255D01*
X163342895Y-79227385D01*
X163226339Y-79314739D01*
X163138985Y-79431295D01*
X163087855Y-79567684D01*
X163081100Y-79629866D01*
X163081100Y-79768500D01*
X163061098Y-79836621D01*
X163007442Y-79883114D01*
X162955100Y-79894500D01*
X159370900Y-79894500D01*
X159302779Y-79874498D01*
X159256286Y-79820842D01*
X159244900Y-79768500D01*
X159244900Y-79629866D01*
X159238145Y-79567684D01*
X159187015Y-79431295D01*
X159099661Y-79314739D01*
X158983105Y-79227385D01*
X158846716Y-79176255D01*
X158784534Y-79169500D01*
X156988266Y-79169500D01*
X156926084Y-79176255D01*
X156789695Y-79227385D01*
X156673139Y-79314739D01*
X156585785Y-79431295D01*
X156582633Y-79439703D01*
X156582632Y-79439705D01*
X156569250Y-79475402D01*
X156526609Y-79532167D01*
X156460048Y-79556867D01*
X156390699Y-79541660D01*
X156362173Y-79520268D01*
X155545252Y-78703347D01*
X155537712Y-78695061D01*
X155533600Y-78688582D01*
X155483948Y-78641956D01*
X155481107Y-78639202D01*
X155461370Y-78619465D01*
X155458173Y-78616985D01*
X155449151Y-78609280D01*
X155444997Y-78605379D01*
X155416921Y-78579014D01*
X155409975Y-78575195D01*
X155409972Y-78575193D01*
X155399166Y-78569252D01*
X155382647Y-78558401D01*
X155382183Y-78558041D01*
X155366641Y-78545986D01*
X155359372Y-78542841D01*
X155359368Y-78542838D01*
X155326063Y-78528426D01*
X155315413Y-78523209D01*
X155276660Y-78501905D01*
X155257037Y-78496867D01*
X155238334Y-78490463D01*
X155227020Y-78485567D01*
X155227019Y-78485567D01*
X155219745Y-78482419D01*
X155211922Y-78481180D01*
X155211912Y-78481177D01*
X155176076Y-78475501D01*
X155164456Y-78473095D01*
X155129311Y-78464072D01*
X155129310Y-78464072D01*
X155121630Y-78462100D01*
X155101376Y-78462100D01*
X155081665Y-78460549D01*
X155069486Y-78458620D01*
X155061657Y-78457380D01*
X155032386Y-78460147D01*
X155017639Y-78461541D01*
X155005781Y-78462100D01*
X144045968Y-78462100D01*
X144034785Y-78461573D01*
X144027292Y-78459898D01*
X144019366Y-78460147D01*
X144019365Y-78460147D01*
X143959202Y-78462038D01*
X143955244Y-78462100D01*
X143927344Y-78462100D01*
X143923354Y-78462604D01*
X143911520Y-78463536D01*
X143867311Y-78464926D01*
X143859695Y-78467139D01*
X143859693Y-78467139D01*
X143847852Y-78470579D01*
X143828493Y-78474588D01*
X143827183Y-78474754D01*
X143808403Y-78477126D01*
X143801037Y-78480042D01*
X143801031Y-78480044D01*
X143767298Y-78493400D01*
X143756068Y-78497245D01*
X143740028Y-78501905D01*
X143713607Y-78509581D01*
X143706784Y-78513616D01*
X143696166Y-78519895D01*
X143678413Y-78528592D01*
X143670768Y-78531619D01*
X143659583Y-78536048D01*
X143645905Y-78545986D01*
X143623812Y-78562037D01*
X143613895Y-78568551D01*
X143575838Y-78591058D01*
X143561517Y-78605379D01*
X143546484Y-78618219D01*
X143530093Y-78630128D01*
X143525042Y-78636233D01*
X143525037Y-78636238D01*
X143501901Y-78664204D01*
X143493913Y-78672982D01*
X143044300Y-79122595D01*
X142981988Y-79156621D01*
X142955205Y-79159500D01*
X142220466Y-79159500D01*
X142158284Y-79166255D01*
X142021895Y-79217385D01*
X141905339Y-79304739D01*
X141817985Y-79421295D01*
X141766855Y-79557684D01*
X141760100Y-79619866D01*
X141760100Y-81416134D01*
X141766855Y-81478316D01*
X141817985Y-81614705D01*
X141905339Y-81731261D01*
X142021895Y-81818615D01*
X142158284Y-81869745D01*
X142220466Y-81876500D01*
X142359100Y-81876500D01*
X142427221Y-81896502D01*
X142473714Y-81950158D01*
X142485100Y-82002500D01*
X142485100Y-82792700D01*
X142465098Y-82860821D01*
X142411442Y-82907314D01*
X142359100Y-82918700D01*
X142220466Y-82918700D01*
X142158284Y-82925455D01*
X142021895Y-82976585D01*
X141905339Y-83063939D01*
X141817985Y-83180495D01*
X141766855Y-83316884D01*
X141760100Y-83379066D01*
X141760100Y-85175334D01*
X141766855Y-85237516D01*
X141817985Y-85373905D01*
X141905339Y-85490461D01*
X142021895Y-85577815D01*
X142158284Y-85628945D01*
X142220466Y-85635700D01*
X142359100Y-85635700D01*
X142427221Y-85655702D01*
X142473714Y-85709358D01*
X142485100Y-85761700D01*
X142485100Y-86602700D01*
X142465098Y-86670821D01*
X142411442Y-86717314D01*
X142359100Y-86728700D01*
X142220466Y-86728700D01*
X142158284Y-86735455D01*
X142021895Y-86786585D01*
X141905339Y-86873939D01*
X141817985Y-86990495D01*
X141766855Y-87126884D01*
X141760100Y-87189066D01*
X141760100Y-88985334D01*
X141766855Y-89047516D01*
X141817985Y-89183905D01*
X141905339Y-89300461D01*
X142021895Y-89387815D01*
X142158284Y-89438945D01*
X142220466Y-89445700D01*
X142359100Y-89445700D01*
X142427221Y-89465702D01*
X142473714Y-89519358D01*
X142485100Y-89571700D01*
X142485100Y-90412700D01*
X142465098Y-90480821D01*
X142411442Y-90527314D01*
X142359100Y-90538700D01*
X142220466Y-90538700D01*
X142158284Y-90545455D01*
X142021895Y-90596585D01*
X141905339Y-90683939D01*
X141817985Y-90800495D01*
X141766855Y-90936884D01*
X141760100Y-90999066D01*
X141760100Y-92795334D01*
X141766855Y-92857516D01*
X141817985Y-92993905D01*
X141905339Y-93110461D01*
X142021895Y-93197815D01*
X142158284Y-93248945D01*
X142220466Y-93255700D01*
X142359100Y-93255700D01*
X142427221Y-93275702D01*
X142473714Y-93329358D01*
X142485100Y-93381700D01*
X142485100Y-94222700D01*
X142465098Y-94290821D01*
X142411442Y-94337314D01*
X142359100Y-94348700D01*
X142220466Y-94348700D01*
X142158284Y-94355455D01*
X142021895Y-94406585D01*
X141905339Y-94493939D01*
X141817985Y-94610495D01*
X141766855Y-94746884D01*
X141760100Y-94809066D01*
X141760100Y-96605334D01*
X135014379Y-96605334D01*
X135079235Y-96515077D01*
X135082253Y-96510877D01*
X135103120Y-96468657D01*
X135178936Y-96315253D01*
X135178937Y-96315251D01*
X135181230Y-96310611D01*
X135213700Y-96203740D01*
X135244665Y-96101823D01*
X135244665Y-96101821D01*
X135246170Y-96096869D01*
X135275329Y-95875390D01*
X135276956Y-95808800D01*
X135258652Y-95586161D01*
X135204231Y-95369502D01*
X135115154Y-95164640D01*
X135049426Y-95063040D01*
X134996622Y-94981417D01*
X134996620Y-94981414D01*
X134993814Y-94977077D01*
X134843470Y-94811851D01*
X134839419Y-94808652D01*
X134839415Y-94808648D01*
X134672214Y-94676600D01*
X134672210Y-94676598D01*
X134668159Y-94673398D01*
X134626853Y-94650596D01*
X134576884Y-94600164D01*
X134562112Y-94530721D01*
X134587228Y-94464316D01*
X134614580Y-94437709D01*
X134683763Y-94388361D01*
X134793660Y-94309973D01*
X134951896Y-94152289D01*
X135011394Y-94069489D01*
X135079235Y-93975077D01*
X135082253Y-93970877D01*
X135103120Y-93928657D01*
X135178936Y-93775253D01*
X135178937Y-93775251D01*
X135181230Y-93770611D01*
X135246170Y-93556869D01*
X135275329Y-93335390D01*
X135275411Y-93332040D01*
X135276874Y-93272165D01*
X135276874Y-93272161D01*
X135276956Y-93268800D01*
X135258652Y-93046161D01*
X135204231Y-92829502D01*
X135115154Y-92624640D01*
X134993814Y-92437077D01*
X134843470Y-92271851D01*
X134839419Y-92268652D01*
X134839415Y-92268648D01*
X134672214Y-92136600D01*
X134672210Y-92136598D01*
X134668159Y-92133398D01*
X134626853Y-92110596D01*
X134576884Y-92060164D01*
X134562112Y-91990721D01*
X134587228Y-91924316D01*
X134614580Y-91897709D01*
X134668147Y-91859500D01*
X134793660Y-91769973D01*
X134951896Y-91612289D01*
X135011394Y-91529489D01*
X135079235Y-91435077D01*
X135082253Y-91430877D01*
X135103120Y-91388657D01*
X135178936Y-91235253D01*
X135178937Y-91235251D01*
X135181230Y-91230611D01*
X135246170Y-91016869D01*
X135275329Y-90795390D01*
X135276956Y-90728800D01*
X135258652Y-90506161D01*
X135204231Y-90289502D01*
X135115154Y-90084640D01*
X134993814Y-89897077D01*
X134843470Y-89731851D01*
X134839419Y-89728652D01*
X134839415Y-89728648D01*
X134672214Y-89596600D01*
X134672210Y-89596598D01*
X134668159Y-89593398D01*
X134626853Y-89570596D01*
X134576884Y-89520164D01*
X134562112Y-89450721D01*
X134587228Y-89384316D01*
X134614580Y-89357709D01*
X134669716Y-89318381D01*
X134793660Y-89229973D01*
X134817274Y-89206442D01*
X134892607Y-89131371D01*
X134951896Y-89072289D01*
X134962716Y-89057232D01*
X135079235Y-88895077D01*
X135082253Y-88890877D01*
X135102418Y-88850077D01*
X135178936Y-88695253D01*
X135178937Y-88695251D01*
X135181230Y-88690611D01*
X135246170Y-88476869D01*
X135275329Y-88255390D01*
X135276956Y-88188800D01*
X135258652Y-87966161D01*
X135204231Y-87749502D01*
X135115154Y-87544640D01*
X135049426Y-87443040D01*
X134996622Y-87361417D01*
X134996620Y-87361414D01*
X134993814Y-87357077D01*
X134843470Y-87191851D01*
X134839419Y-87188652D01*
X134839415Y-87188648D01*
X134672214Y-87056600D01*
X134672210Y-87056598D01*
X134668159Y-87053398D01*
X134626853Y-87030596D01*
X134576884Y-86980164D01*
X134562112Y-86910721D01*
X134587228Y-86844316D01*
X134614580Y-86817709D01*
X134683763Y-86768361D01*
X134793660Y-86689973D01*
X134951896Y-86532289D01*
X134984465Y-86486965D01*
X135079235Y-86355077D01*
X135082253Y-86350877D01*
X135103120Y-86308657D01*
X135178936Y-86155253D01*
X135178937Y-86155251D01*
X135181230Y-86150611D01*
X135246170Y-85936869D01*
X135275329Y-85715390D01*
X135275411Y-85712040D01*
X135276874Y-85652165D01*
X135276874Y-85652161D01*
X135276956Y-85648800D01*
X135258652Y-85426161D01*
X135204231Y-85209502D01*
X135115154Y-85004640D01*
X134993814Y-84817077D01*
X134843470Y-84651851D01*
X134839419Y-84648652D01*
X134839415Y-84648648D01*
X134672214Y-84516600D01*
X134672210Y-84516598D01*
X134668159Y-84513398D01*
X134626853Y-84490596D01*
X134576884Y-84440164D01*
X134562112Y-84370721D01*
X134587228Y-84304316D01*
X134614580Y-84277709D01*
X134671327Y-84237232D01*
X134793660Y-84149973D01*
X134951896Y-83992289D01*
X134984230Y-83947292D01*
X135079235Y-83815077D01*
X135082253Y-83810877D01*
X135102418Y-83770077D01*
X135178936Y-83615253D01*
X135178937Y-83615251D01*
X135181230Y-83610611D01*
X135246170Y-83396869D01*
X135275329Y-83175390D01*
X135276956Y-83108800D01*
X135258652Y-82886161D01*
X135204231Y-82669502D01*
X135115154Y-82464640D01*
X134993814Y-82277077D01*
X134990332Y-82273250D01*
X134846598Y-82115288D01*
X134815546Y-82051442D01*
X134823941Y-81980943D01*
X134869117Y-81926175D01*
X134895561Y-81912506D01*
X135002097Y-81872567D01*
X135010505Y-81869415D01*
X135127061Y-81782061D01*
X135214415Y-81665505D01*
X135265545Y-81529116D01*
X135272300Y-81466934D01*
X135272300Y-79670666D01*
X135265545Y-79608484D01*
X135214415Y-79472095D01*
X135127061Y-79355539D01*
X135010505Y-79268185D01*
X134874116Y-79217055D01*
X134811934Y-79210300D01*
X133015666Y-79210300D01*
X132953484Y-79217055D01*
X132817095Y-79268185D01*
X132700539Y-79355539D01*
X132613185Y-79472095D01*
X132610033Y-79480503D01*
X132568719Y-79590707D01*
X132526077Y-79647471D01*
X132459516Y-79672171D01*
X132390167Y-79656963D01*
X132357543Y-79631276D01*
X132306951Y-79575675D01*
X132306942Y-79575666D01*
X132303470Y-79571851D01*
X132299419Y-79568652D01*
X132299415Y-79568648D01*
X132132214Y-79436600D01*
X132132210Y-79436598D01*
X132128159Y-79433398D01*
X132121466Y-79429703D01*
X132075936Y-79404569D01*
X131932589Y-79325438D01*
X131927720Y-79323714D01*
X131927716Y-79323712D01*
X131726887Y-79252595D01*
X131726883Y-79252594D01*
X131722012Y-79250869D01*
X131716919Y-79249962D01*
X131716916Y-79249961D01*
X131507173Y-79212600D01*
X131507167Y-79212599D01*
X131502084Y-79211694D01*
X131428252Y-79210792D01*
X131283881Y-79209028D01*
X131283879Y-79209028D01*
X131278711Y-79208965D01*
X131057891Y-79242755D01*
X130845556Y-79312157D01*
X130647407Y-79415307D01*
X130643274Y-79418410D01*
X130643271Y-79418412D01*
X130479120Y-79541660D01*
X130468765Y-79549435D01*
X130429325Y-79590707D01*
X130375080Y-79647471D01*
X130314429Y-79710938D01*
X130188543Y-79895480D01*
X130141515Y-79996793D01*
X130103495Y-80078702D01*
X130094488Y-80098105D01*
X130034789Y-80313370D01*
X130011051Y-80535495D01*
X130023910Y-80758515D01*
X130025047Y-80763561D01*
X130025048Y-80763567D01*
X130034627Y-80806069D01*
X130073022Y-80976439D01*
X130157066Y-81183416D01*
X130194485Y-81244478D01*
X130244870Y-81326699D01*
X130273787Y-81373888D01*
X130420050Y-81542738D01*
X130591926Y-81685432D01*
X130597854Y-81688896D01*
X130665245Y-81728276D01*
X130713969Y-81779914D01*
X130727040Y-81849697D01*
X130700309Y-81915469D01*
X130659855Y-81948827D01*
X130647407Y-81955307D01*
X130643274Y-81958410D01*
X130643271Y-81958412D01*
X130484570Y-82077568D01*
X130468765Y-82089435D01*
X130465193Y-82093173D01*
X130332097Y-82232450D01*
X130314429Y-82250938D01*
X130188543Y-82435480D01*
X130172803Y-82469390D01*
X130098853Y-82628702D01*
X130094488Y-82638105D01*
X130034789Y-82853370D01*
X130011051Y-83075495D01*
X130011348Y-83080648D01*
X130011348Y-83080651D01*
X130021564Y-83257835D01*
X130023910Y-83298515D01*
X130025047Y-83303561D01*
X130025048Y-83303567D01*
X130041754Y-83377694D01*
X130073022Y-83516439D01*
X130157066Y-83723416D01*
X130207819Y-83806238D01*
X130271091Y-83909488D01*
X130273787Y-83913888D01*
X130420050Y-84082738D01*
X130591926Y-84225432D01*
X130614967Y-84238896D01*
X130665245Y-84268276D01*
X130713969Y-84319914D01*
X130727040Y-84389697D01*
X130700309Y-84455469D01*
X130659855Y-84488827D01*
X130647407Y-84495307D01*
X130643274Y-84498410D01*
X130643271Y-84498412D01*
X130497027Y-84608215D01*
X130468765Y-84629435D01*
X130314429Y-84790938D01*
X130188543Y-84975480D01*
X130172803Y-85009390D01*
X130100978Y-85164124D01*
X130094488Y-85178105D01*
X130034789Y-85393370D01*
X130011051Y-85615495D01*
X130011348Y-85620648D01*
X130011348Y-85620651D01*
X130016811Y-85715390D01*
X130023910Y-85838515D01*
X130025047Y-85843561D01*
X130025048Y-85843567D01*
X130044919Y-85931739D01*
X130073022Y-86056439D01*
X130157066Y-86263416D01*
X130207819Y-86346238D01*
X130271091Y-86449488D01*
X130273787Y-86453888D01*
X130420050Y-86622738D01*
X130591926Y-86765432D01*
X130611108Y-86776641D01*
X130665245Y-86808276D01*
X130713969Y-86859914D01*
X130727040Y-86929697D01*
X130700309Y-86995469D01*
X130659855Y-87028827D01*
X130647407Y-87035307D01*
X130643274Y-87038410D01*
X130643271Y-87038412D01*
X130472900Y-87166330D01*
X130468765Y-87169435D01*
X130411520Y-87229338D01*
X130356990Y-87286401D01*
X130314429Y-87330938D01*
X130188543Y-87515480D01*
X130172803Y-87549390D01*
X130098853Y-87708702D01*
X130094488Y-87718105D01*
X130034789Y-87933370D01*
X130011051Y-88155495D01*
X130011348Y-88160648D01*
X130011348Y-88160651D01*
X130021758Y-88341200D01*
X130023910Y-88378515D01*
X130025047Y-88383561D01*
X130025048Y-88383567D01*
X130037997Y-88441023D01*
X130073022Y-88596439D01*
X130111261Y-88690611D01*
X130149338Y-88784383D01*
X130157066Y-88803416D01*
X130207819Y-88886238D01*
X130271091Y-88989488D01*
X130273787Y-88993888D01*
X130420050Y-89162738D01*
X130591926Y-89305432D01*
X130614086Y-89318381D01*
X130665245Y-89348276D01*
X130713969Y-89399914D01*
X130727040Y-89469697D01*
X130700309Y-89535469D01*
X130659855Y-89568827D01*
X130647407Y-89575307D01*
X130643274Y-89578410D01*
X130643271Y-89578412D01*
X130619047Y-89596600D01*
X130468765Y-89709435D01*
X130314429Y-89870938D01*
X130188543Y-90055480D01*
X130094488Y-90258105D01*
X130034789Y-90473370D01*
X130011051Y-90695495D01*
X130011348Y-90700648D01*
X130011348Y-90700651D01*
X130016691Y-90793309D01*
X130023910Y-90918515D01*
X130025047Y-90923561D01*
X130025048Y-90923567D01*
X130041754Y-90997694D01*
X130073022Y-91136439D01*
X130157066Y-91343416D01*
X130207819Y-91426238D01*
X130271091Y-91529488D01*
X130273787Y-91533888D01*
X130420050Y-91702738D01*
X130591926Y-91845432D01*
X130632308Y-91869029D01*
X130665245Y-91888276D01*
X130713969Y-91939914D01*
X130727040Y-92009697D01*
X130700309Y-92075469D01*
X130659855Y-92108827D01*
X130647407Y-92115307D01*
X130643274Y-92118410D01*
X130643271Y-92118412D01*
X130472900Y-92246330D01*
X130468765Y-92249435D01*
X130314429Y-92410938D01*
X130188543Y-92595480D01*
X130172803Y-92629390D01*
X130101030Y-92784012D01*
X130094488Y-92798105D01*
X130034789Y-93013370D01*
X130011051Y-93235495D01*
X130011348Y-93240648D01*
X130011348Y-93240651D01*
X130016811Y-93335390D01*
X130023910Y-93458515D01*
X130025047Y-93463561D01*
X130025048Y-93463567D01*
X130044919Y-93551739D01*
X130073022Y-93676439D01*
X130157066Y-93883416D01*
X130207819Y-93966238D01*
X130271091Y-94069488D01*
X130273787Y-94073888D01*
X130420050Y-94242738D01*
X130591926Y-94385432D01*
X130622731Y-94403433D01*
X130665245Y-94428276D01*
X130713969Y-94479914D01*
X130727040Y-94549697D01*
X130700309Y-94615469D01*
X130659855Y-94648827D01*
X130647407Y-94655307D01*
X130643274Y-94658410D01*
X130643271Y-94658412D01*
X130472900Y-94786330D01*
X130468765Y-94789435D01*
X130314429Y-94950938D01*
X130188543Y-95135480D01*
X130172803Y-95169390D01*
X130105620Y-95314124D01*
X130094488Y-95338105D01*
X130034789Y-95553370D01*
X130011051Y-95775495D01*
X128930900Y-95775495D01*
X128930900Y-69066411D01*
X129510448Y-69066411D01*
X129510856Y-69073481D01*
X129526592Y-69346395D01*
X129527417Y-69350602D01*
X129527418Y-69350607D01*
X129535581Y-69392211D01*
X129580585Y-69621598D01*
X129581972Y-69625649D01*
X129663271Y-69863104D01*
X129671427Y-69886927D01*
X129673352Y-69890754D01*
X129673353Y-69890757D01*
X129780402Y-70103601D01*
X129797438Y-70137473D01*
X129799864Y-70141002D01*
X129799867Y-70141008D01*
X129858035Y-70225642D01*
X129956287Y-70368599D01*
X130145033Y-70576028D01*
X130148322Y-70578778D01*
X130356892Y-70753170D01*
X130356897Y-70753174D01*
X130360184Y-70755922D01*
X130448101Y-70811072D01*
X130594119Y-70902669D01*
X130594123Y-70902671D01*
X130597759Y-70904952D01*
X130667187Y-70936300D01*
X130849449Y-71018595D01*
X130849453Y-71018597D01*
X130853361Y-71020361D01*
X130903146Y-71035108D01*
X131118149Y-71098795D01*
X131118153Y-71098796D01*
X131122262Y-71100013D01*
X131126496Y-71100661D01*
X131126501Y-71100662D01*
X131370410Y-71137985D01*
X131399484Y-71142434D01*
X131542270Y-71144678D01*
X131675609Y-71146773D01*
X131675615Y-71146773D01*
X131679899Y-71146840D01*
X131684152Y-71146325D01*
X131684158Y-71146325D01*
X131887633Y-71121701D01*
X131958317Y-71113147D01*
X131962465Y-71112059D01*
X131962469Y-71112058D01*
X132225436Y-71043070D01*
X132229587Y-71041981D01*
X132233548Y-71040341D01*
X132233552Y-71040339D01*
X132457265Y-70947674D01*
X132488689Y-70934658D01*
X132730828Y-70793163D01*
X132951523Y-70620116D01*
X133146692Y-70418718D01*
X133312721Y-70192695D01*
X133446540Y-69946232D01*
X133497887Y-69810347D01*
X133544154Y-69687905D01*
X133544155Y-69687901D01*
X133545672Y-69683887D01*
X133586186Y-69506992D01*
X133607324Y-69414699D01*
X133607325Y-69414695D01*
X133608282Y-69410515D01*
X133614388Y-69342108D01*
X133632311Y-69141285D01*
X133633213Y-69131176D01*
X133633355Y-69117627D01*
X162468614Y-69117627D01*
X162469030Y-69124835D01*
X162484446Y-69392211D01*
X162485271Y-69396416D01*
X162485272Y-69396424D01*
X162496783Y-69455094D01*
X162537397Y-69662105D01*
X162538784Y-69666155D01*
X162538785Y-69666160D01*
X162625099Y-69918261D01*
X162626488Y-69922317D01*
X162750068Y-70168029D01*
X162752494Y-70171558D01*
X162752497Y-70171564D01*
X162784700Y-70218419D01*
X162905853Y-70394697D01*
X162930510Y-70421795D01*
X163073354Y-70578778D01*
X163090958Y-70598125D01*
X163094246Y-70600874D01*
X163298667Y-70771797D01*
X163298672Y-70771801D01*
X163301959Y-70774549D01*
X163418455Y-70847627D01*
X163531311Y-70918422D01*
X163531315Y-70918424D01*
X163534951Y-70920705D01*
X163660287Y-70977297D01*
X163781711Y-71032122D01*
X163781715Y-71032124D01*
X163785623Y-71033888D01*
X163812945Y-71041981D01*
X164045224Y-71110785D01*
X164045228Y-71110786D01*
X164049337Y-71112003D01*
X164053571Y-71112651D01*
X164053576Y-71112652D01*
X164248203Y-71142434D01*
X164321212Y-71153606D01*
X164461242Y-71155806D01*
X164591927Y-71157859D01*
X164591933Y-71157859D01*
X164596218Y-71157926D01*
X164869266Y-71124884D01*
X165135303Y-71055090D01*
X165389407Y-70949837D01*
X165436239Y-70922471D01*
X165623177Y-70813233D01*
X165623178Y-70813233D01*
X165626875Y-70811072D01*
X165843313Y-70641362D01*
X166034717Y-70443849D01*
X166037250Y-70440401D01*
X166037254Y-70440396D01*
X166195006Y-70225642D01*
X166197544Y-70222187D01*
X166225030Y-70171564D01*
X166326732Y-69984253D01*
X166326733Y-69984251D01*
X166328782Y-69980477D01*
X166426001Y-69723193D01*
X166466673Y-69545611D01*
X166486447Y-69459274D01*
X166486448Y-69459269D01*
X166487404Y-69455094D01*
X166511854Y-69181143D01*
X166512297Y-69138800D01*
X166510813Y-69117035D01*
X166493882Y-68868674D01*
X166493881Y-68868668D01*
X166493590Y-68864397D01*
X166437816Y-68595072D01*
X166346005Y-68335808D01*
X166219858Y-68091403D01*
X166061709Y-67866379D01*
X165874484Y-67664901D01*
X165661647Y-67490696D01*
X165427137Y-67346988D01*
X165423201Y-67345260D01*
X165179221Y-67238160D01*
X165179218Y-67238159D01*
X165175293Y-67236436D01*
X164910776Y-67161086D01*
X164708182Y-67132253D01*
X164642732Y-67122938D01*
X164642730Y-67122938D01*
X164638480Y-67122333D01*
X164493477Y-67121574D01*
X164367730Y-67120915D01*
X164367724Y-67120915D01*
X164363444Y-67120893D01*
X164359200Y-67121452D01*
X164359196Y-67121452D01*
X164239327Y-67137233D01*
X164090757Y-67156793D01*
X164086617Y-67157926D01*
X164086615Y-67157926D01*
X164013952Y-67177804D01*
X163825466Y-67229368D01*
X163821518Y-67231052D01*
X163576430Y-67335591D01*
X163576426Y-67335593D01*
X163572478Y-67337277D01*
X163458918Y-67405241D01*
X163340158Y-67476317D01*
X163340154Y-67476320D01*
X163336476Y-67478521D01*
X163333133Y-67481199D01*
X163333129Y-67481202D01*
X163321279Y-67490696D01*
X163121827Y-67650488D01*
X163118883Y-67653590D01*
X163118879Y-67653594D01*
X162985584Y-67794057D01*
X162932502Y-67849994D01*
X162772005Y-68073350D01*
X162770003Y-68077132D01*
X162770000Y-68077136D01*
X162676632Y-68253476D01*
X162643305Y-68316420D01*
X162578014Y-68494836D01*
X162571532Y-68512551D01*
X162548785Y-68574709D01*
X162490193Y-68843435D01*
X162489857Y-68847705D01*
X162472308Y-69070695D01*
X162468614Y-69117627D01*
X133633355Y-69117627D01*
X133633665Y-69088000D01*
X133632675Y-69073481D01*
X133614882Y-68812477D01*
X133614881Y-68812471D01*
X133614590Y-68808200D01*
X133557719Y-68533577D01*
X133464103Y-68269214D01*
X133423090Y-68189752D01*
X133337440Y-68023809D01*
X133337440Y-68023808D01*
X133335475Y-68020002D01*
X133174215Y-67790552D01*
X133054929Y-67662185D01*
X132986228Y-67588254D01*
X132986225Y-67588252D01*
X132983307Y-67585111D01*
X132766284Y-67407480D01*
X132527161Y-67260945D01*
X132509632Y-67253250D01*
X132274296Y-67149945D01*
X132270364Y-67148219D01*
X132250976Y-67142696D01*
X132004772Y-67072563D01*
X132004773Y-67072563D01*
X132000644Y-67071387D01*
X131793585Y-67041919D01*
X131727245Y-67032477D01*
X131727243Y-67032477D01*
X131722993Y-67031872D01*
X131718704Y-67031850D01*
X131718697Y-67031849D01*
X131446833Y-67030425D01*
X131446826Y-67030425D01*
X131442547Y-67030403D01*
X131438303Y-67030962D01*
X131438299Y-67030962D01*
X131316032Y-67047059D01*
X131164497Y-67067009D01*
X131160357Y-67068142D01*
X131160355Y-67068142D01*
X131144195Y-67072563D01*
X130893987Y-67141012D01*
X130873044Y-67149945D01*
X130639976Y-67249357D01*
X130639972Y-67249359D01*
X130636024Y-67251043D01*
X130514535Y-67323752D01*
X130399062Y-67392861D01*
X130399058Y-67392864D01*
X130395380Y-67395065D01*
X130392037Y-67397743D01*
X130392033Y-67397746D01*
X130376493Y-67410196D01*
X130176509Y-67570414D01*
X130173565Y-67573516D01*
X130173561Y-67573520D01*
X130097574Y-67653594D01*
X129983460Y-67773845D01*
X129819806Y-68001594D01*
X129688575Y-68249445D01*
X129592196Y-68512814D01*
X129532452Y-68786826D01*
X129510448Y-69066411D01*
X128930900Y-69066411D01*
X128930900Y-66572900D01*
X128950902Y-66504779D01*
X129004558Y-66458286D01*
X129056900Y-66446900D01*
X166903900Y-66446900D01*
X166972021Y-66466902D01*
G37*
G04 #@! TD.AperFunction*
M02*
