M48
; DRILL file {KiCad (6.0.6)} date Sat Mar 25 01:52:28 2023
; FORMAT={-:-/ absolute / metric / decimal}
; #@! TF.CreationDate,2023-03-25T01:52:28+10:30
; #@! TF.GenerationSoftware,Kicad,Pcbnew,(6.0.6)
; #@! TF.FileFunction,Plated,1,2,PTH
FMAT,2
METRIC
; #@! TA.AperFunction,Plated,PTH,ComponentDrill
T1C1.000
%
G90
G05
T1
X131.374Y-80.569
X131.374Y-83.109
X131.374Y-85.649
X131.374Y-88.189
X131.374Y-90.729
X131.374Y-93.269
X131.374Y-95.809
X131.374Y-98.349
X133.914Y-80.569
X133.914Y-83.109
X133.914Y-85.649
X133.914Y-88.189
X133.914Y-90.729
X133.914Y-93.269
X133.914Y-95.809
X133.914Y-98.349
X143.119Y-80.518
X143.119Y-84.277
X143.119Y-88.087
X143.119Y-91.897
X143.119Y-95.707
X145.659Y-80.518
X145.659Y-84.277
X145.659Y-88.087
X145.659Y-91.897
X145.659Y-95.707
X148.199Y-80.518
X148.199Y-84.277
X148.199Y-88.087
X148.199Y-91.897
X148.199Y-95.707
X157.886Y-80.528
X157.886Y-83.068
X157.886Y-85.608
X157.886Y-88.148
X157.988Y-93.218
X157.988Y-95.758
X164.44Y-80.528
X164.44Y-83.068
X164.44Y-85.608
X164.44Y-88.148
T0
M30
