M48
; DRILL file {KiCad (6.0.6)} date Mon Jun 19 20:02:00 2023
; FORMAT={-:-/ absolute / metric / decimal}
; #@! TF.CreationDate,2023-06-19T20:02:00+09:30
; #@! TF.GenerationSoftware,Kicad,Pcbnew,(6.0.6)
; #@! TF.FileFunction,Plated,1,4,PTH
FMAT,2
METRIC
; #@! TA.AperFunction,Plated,PTH,ViaDrill
T1C0.300
; #@! TA.AperFunction,Plated,PTH,ViaDrill
T2C0.400
; #@! TA.AperFunction,Plated,PTH,ComponentDrill
T3C0.762
; #@! TA.AperFunction,Plated,PTH,ComponentDrill
T4C0.965
; #@! TA.AperFunction,Plated,PTH,ComponentDrill
T5C1.000
; #@! TA.AperFunction,Plated,PTH,ComponentDrill
T6C1.270
%
G90
G05
T1
X46.685Y-118.008
X46.685Y-123.393
X46.768Y-108.986
X47.682Y-103.144
X47.955Y-123.393
X48.006Y-114.351
X49.174Y-117.958
X49.276Y-123.393
X49.308Y-114.371
X50.273Y-103.144
X50.495Y-117.958
X50.495Y-123.393
X50.578Y-114.371
X51.765Y-123.393
X51.816Y-117.958
X51.848Y-114.371
X52.813Y-103.195
X53.035Y-123.393
X53.086Y-114.402
X53.118Y-108.986
X54.362Y-114.378
X54.388Y-108.986
X55.353Y-103.144
X55.575Y-117.958
X55.575Y-123.393
X55.607Y-108.986
X55.658Y-114.371
X58.268Y-114.402
X58.268Y-117.958
X58.268Y-123.393
X58.299Y-108.986
X59.538Y-114.351
X59.538Y-123.393
X59.544Y-117.97
X60.331Y-103.144
X60.808Y-123.393
X60.814Y-117.97
X60.839Y-108.986
X60.839Y-114.371
X62.058Y-114.371
X62.078Y-117.958
X62.078Y-123.393
X62.871Y-103.144
X63.348Y-117.958
X63.379Y-114.371
X64.598Y-108.986
X64.618Y-117.958
X64.618Y-123.393
X64.624Y-114.378
X65.411Y-103.144
X65.894Y-117.97
X65.919Y-108.986
X67.158Y-117.958
X67.158Y-123.393
X67.189Y-108.986
X67.189Y-114.371
X69.19Y-110.541
X70.714Y-115.672
X70.815Y-100.33
X71.068Y-92.529
X71.12Y-117.958
X71.984Y-113.233
X72.066Y-110.521
X72.085Y-100.33
X72.339Y-117.958
X72.795Y-87.499
X73.15Y-90.141
X73.15Y-95.018
X73.609Y-123.342
X73.641Y-115.702
X73.66Y-108.153
X74.463Y-110.531
X74.574Y-100.33
X75.692Y-94.996
X75.794Y-115.672
X75.895Y-100.33
X76.2Y-117.958
X76.2Y-123.342
X77.011Y-95.018
X77.114Y-105.715
X77.165Y-100.33
X77.368Y-110.541
X77.47Y-123.342
X78.435Y-105.715
X78.721Y-117.97
X78.74Y-123.342
X78.791Y-108.153
X79.145Y-92.732
X80.415Y-87.499
X80.416Y-113.233
X164.31Y-83.099
X180.035Y-83.871
X180.985Y-85.723
X182.321Y-102.972
X182.357Y-96.622
X182.364Y-106.782
X182.372Y-99.162
X182.372Y-100.432
X182.372Y-105.512
X182.372Y-109.322
X182.372Y-110.592
X182.372Y-113.132
X183.591Y-83.871
X184.541Y-85.715
X187.147Y-83.871
X187.757Y-97.892
X187.757Y-99.162
X187.757Y-102.972
X187.757Y-106.782
X187.757Y-110.592
X187.764Y-108.052
X187.764Y-109.322
X187.764Y-111.862
X187.764Y-113.132
X187.808Y-95.352
X187.808Y-105.512
X188.097Y-85.715
X190.703Y-83.871
X191.653Y-85.723
X229.159Y-95.402
X237.93Y-95.468
X257.556Y-110.185
X258.945Y-96.737
X261.376Y-104.793
X269.037Y-110.185
X270.307Y-110.185
X271.577Y-97.282
X271.577Y-104.8
X271.577Y-110.185
X272.847Y-104.8
T2
X159.969Y-86.995
X160.071Y-91.059
X160.071Y-112.344
X160.071Y-125.044
X160.325Y-99.695
X160.325Y-129.159
X160.376Y-116.561
X160.426Y-103.912
X162.306Y-126.518
X162.357Y-113.919
X162.408Y-88.57
X162.611Y-101.27
X167.132Y-101.168
X167.132Y-113.767
X167.132Y-126.416
X167.183Y-88.468
X171.907Y-86.411
X171.958Y-99.111
X171.958Y-111.709
X171.958Y-124.358
X174.396Y-86.411
X174.396Y-99.111
X174.447Y-111.709
X174.447Y-124.358
X176.835Y-124.358
X176.886Y-99.111
X176.886Y-111.709
X176.936Y-86.411
X188.874Y-93.421
X215.646Y-98.196
X220.675Y-109.677
X223.266Y-105.816
X223.317Y-97.739
X226.365Y-109.271
X226.365Y-110.947
X226.365Y-112.573
X228.092Y-101.702
X228.092Y-109.271
X228.092Y-110.947
X228.092Y-112.522
X231.445Y-110.896
X231.445Y-112.522
X231.496Y-109.22
X232.816Y-97.739
X232.816Y-105.867
X235.661Y-109.677
X235.938Y-91.354
X238.072Y-92.268
X240.866Y-95.468
X242.237Y-93.386
X247.964Y-96.926
X249.793Y-91.288
X250.301Y-98.095
X254.399Y-99.316
X254.551Y-89.308
X256.258Y-104.799
X256.38Y-96.776
X256.431Y-91.797
X258.849Y-110.234
X260.119Y-104.799
X260.241Y-96.776
X262.222Y-89.308
X262.222Y-99.265
X262.374Y-94.337
X262.608Y-110.184
X263.929Y-104.799
X263.929Y-110.184
X266.497Y-104.8
X266.87Y-97.69
X267.022Y-89.359
X267.767Y-104.8
X269.037Y-104.8
X269.054Y-92.356
X269.054Y-97.335
X270.307Y-104.8
X272.864Y-97.284
X274.117Y-110.185
X274.998Y-94.896
T3
X45.142Y-82.011
X45.142Y-97.251
X47.682Y-82.011
X47.682Y-97.251
X50.222Y-82.011
X50.222Y-97.251
X52.762Y-82.011
X52.762Y-97.251
X55.302Y-82.011
X55.302Y-97.251
X57.842Y-82.011
X57.842Y-97.251
X60.382Y-82.011
X60.382Y-97.251
X62.922Y-82.011
X62.922Y-97.251
X65.462Y-82.011
X65.462Y-97.251
T4
X145.821Y-99.696
X145.821Y-112.345
X145.821Y-125.096
X145.872Y-86.996
X150.901Y-99.696
X150.901Y-112.345
X150.901Y-125.096
X150.952Y-86.996
T5
X70.242Y-81.91
X72.782Y-81.91
X75.322Y-81.91
X77.862Y-81.91
X80.402Y-81.91
X194.163Y-95.86
X196.703Y-95.86
X198.841Y-109.88
X199.243Y-95.86
X199.288Y-100.94
X201.381Y-109.88
X201.783Y-95.86
X201.828Y-100.94
X203.921Y-109.88
X204.323Y-95.86
X204.368Y-100.94
X206.461Y-109.88
X222.382Y-77.907
X222.382Y-80.447
X224.922Y-77.907
X224.922Y-80.447
X227.462Y-77.907
X227.462Y-80.447
X230.002Y-77.907
X230.002Y-80.447
X232.542Y-77.907
X232.542Y-80.447
X235.082Y-77.907
X235.082Y-80.447
X237.622Y-77.907
X237.622Y-80.447
X240.162Y-77.907
X240.162Y-80.447
X242.702Y-77.907
X242.702Y-80.447
X245.242Y-77.907
X245.242Y-80.447
X247.782Y-77.907
X247.782Y-80.447
X250.322Y-77.907
X250.322Y-80.447
X252.862Y-77.907
X252.862Y-80.447
X255.402Y-77.907
X255.402Y-80.447
X257.942Y-77.907
X257.942Y-80.447
X260.482Y-77.907
X260.482Y-80.447
X263.022Y-77.907
X263.022Y-80.447
X265.562Y-77.907
X265.562Y-80.447
X268.102Y-77.907
X268.102Y-80.447
X270.642Y-77.907
X270.642Y-80.447
T6
X91.15Y-78.257
X91.15Y-110.693
X91.15Y-126.72
X91.186Y-94.488
X96.15Y-78.257
X96.15Y-110.693
X96.15Y-126.72
X96.186Y-94.488
X101.15Y-78.257
X101.15Y-110.693
X101.15Y-126.72
X101.186Y-94.488
X106.15Y-78.257
X106.15Y-110.693
X106.15Y-126.72
X106.186Y-94.488
X111.15Y-78.257
X111.15Y-110.693
X111.15Y-126.72
X111.186Y-94.488
X116.15Y-78.257
X116.15Y-110.693
X116.15Y-126.72
X116.186Y-94.488
X121.15Y-78.257
X121.15Y-110.693
X121.15Y-126.72
X121.186Y-94.488
X126.15Y-78.257
X126.15Y-110.693
X126.15Y-126.72
X126.186Y-94.488
X131.15Y-78.257
X131.15Y-110.693
X131.15Y-126.72
X131.186Y-94.488
X156.378Y-75.006
X161.378Y-75.006
X166.378Y-75.006
X171.378Y-75.006
X176.378Y-75.006
X181.378Y-75.006
X186.378Y-75.006
X191.378Y-75.006
X196.378Y-75.006
T5
X181.119Y-121.85G85X181.119Y-119.85
G05
X184.819Y-117.85G85X186.819Y-117.85
G05
X184.819Y-123.85G85X186.819Y-123.85
G05
X192.955Y-121.85G85X192.955Y-119.85
G05
X196.655Y-117.85G85X198.655Y-117.85
G05
X196.655Y-123.85G85X198.655Y-123.85
G05
X204.741Y-121.85G85X204.741Y-119.85
G05
X208.441Y-117.85G85X210.441Y-117.85
G05
X208.441Y-123.85G85X210.441Y-123.85
G05
T0
M30
