G04 #@! TF.GenerationSoftware,KiCad,Pcbnew,(6.0.6)*
G04 #@! TF.CreationDate,2023-06-19T20:01:57+09:30*
G04 #@! TF.ProjectId,RPi Arcade Hat V0-3,52506920-4172-4636-9164-652048617420,rev?*
G04 #@! TF.SameCoordinates,Original*
G04 #@! TF.FileFunction,Legend,Bot*
G04 #@! TF.FilePolarity,Positive*
%FSLAX46Y46*%
G04 Gerber Fmt 4.6, Leading zero omitted, Abs format (unit mm)*
G04 Created by KiCad (PCBNEW (6.0.6)) date 2023-06-19 20:01:57*
%MOMM*%
%LPD*%
G01*
G04 APERTURE LIST*
G04 Aperture macros list*
%AMRoundRect*
0 Rectangle with rounded corners*
0 $1 Rounding radius*
0 $2 $3 $4 $5 $6 $7 $8 $9 X,Y pos of 4 corners*
0 Add a 4 corners polygon primitive as box body*
4,1,4,$2,$3,$4,$5,$6,$7,$8,$9,$2,$3,0*
0 Add four circle primitives for the rounded corners*
1,1,$1+$1,$2,$3*
1,1,$1+$1,$4,$5*
1,1,$1+$1,$6,$7*
1,1,$1+$1,$8,$9*
0 Add four rect primitives between the rounded corners*
20,1,$1+$1,$2,$3,$4,$5,0*
20,1,$1+$1,$4,$5,$6,$7,0*
20,1,$1+$1,$6,$7,$8,$9,0*
20,1,$1+$1,$8,$9,$2,$3,0*%
G04 Aperture macros list end*
%ADD10C,0.150000*%
%ADD11C,0.152400*%
%ADD12C,0.508000*%
%ADD13C,0.120000*%
%ADD14R,1.700000X1.700000*%
%ADD15O,1.700000X1.700000*%
%ADD16C,1.524000*%
%ADD17R,3.500000X3.500000*%
%ADD18RoundRect,0.750000X1.000000X-0.750000X1.000000X0.750000X-1.000000X0.750000X-1.000000X-0.750000X0*%
%ADD19RoundRect,0.875000X0.875000X-0.875000X0.875000X0.875000X-0.875000X0.875000X-0.875000X-0.875000X0*%
%ADD20C,2.032000*%
%ADD21C,1.270000*%
G04 APERTURE END LIST*
D10*
X126231638Y-105341752D02*
X126326876Y-105294133D01*
X126374495Y-105246514D01*
X126422114Y-105151276D01*
X126422114Y-105103657D01*
X126374495Y-105008419D01*
X126326876Y-104960800D01*
X126231638Y-104913180D01*
X126041161Y-104913180D01*
X125945923Y-104960800D01*
X125898304Y-105008419D01*
X125850685Y-105103657D01*
X125850685Y-105151276D01*
X125898304Y-105246514D01*
X125945923Y-105294133D01*
X126041161Y-105341752D01*
X126231638Y-105341752D01*
X126326876Y-105389371D01*
X126374495Y-105436990D01*
X126422114Y-105532228D01*
X126422114Y-105722704D01*
X126374495Y-105817942D01*
X126326876Y-105865561D01*
X126231638Y-105913180D01*
X126041161Y-105913180D01*
X125945923Y-105865561D01*
X125898304Y-105817942D01*
X125850685Y-105722704D01*
X125850685Y-105532228D01*
X125898304Y-105436990D01*
X125945923Y-105389371D01*
X126041161Y-105341752D01*
X96399314Y-121010419D02*
X96351695Y-120962800D01*
X96256457Y-120915180D01*
X96018361Y-120915180D01*
X95923123Y-120962800D01*
X95875504Y-121010419D01*
X95827885Y-121105657D01*
X95827885Y-121200895D01*
X95875504Y-121343752D01*
X96446933Y-121915180D01*
X95827885Y-121915180D01*
X202169352Y-91855742D02*
X202216971Y-91903361D01*
X202359828Y-91950980D01*
X202455066Y-91950980D01*
X202597923Y-91903361D01*
X202693161Y-91808123D01*
X202740780Y-91712885D01*
X202788400Y-91522409D01*
X202788400Y-91379552D01*
X202740780Y-91189076D01*
X202693161Y-91093838D01*
X202597923Y-90998600D01*
X202455066Y-90950980D01*
X202359828Y-90950980D01*
X202216971Y-90998600D01*
X202169352Y-91046219D01*
X201597923Y-91950980D02*
X201693161Y-91903361D01*
X201740780Y-91855742D01*
X201788400Y-91760504D01*
X201788400Y-91474790D01*
X201740780Y-91379552D01*
X201693161Y-91331933D01*
X201597923Y-91284314D01*
X201455066Y-91284314D01*
X201359828Y-91331933D01*
X201312209Y-91379552D01*
X201264590Y-91474790D01*
X201264590Y-91760504D01*
X201312209Y-91855742D01*
X201359828Y-91903361D01*
X201455066Y-91950980D01*
X201597923Y-91950980D01*
X200836019Y-91950980D02*
X200836019Y-91284314D01*
X200836019Y-90950980D02*
X200883638Y-90998600D01*
X200836019Y-91046219D01*
X200788400Y-90998600D01*
X200836019Y-90950980D01*
X200836019Y-91046219D01*
X200359828Y-91284314D02*
X200359828Y-91950980D01*
X200359828Y-91379552D02*
X200312209Y-91331933D01*
X200216971Y-91284314D01*
X200074114Y-91284314D01*
X199978876Y-91331933D01*
X199931257Y-91427171D01*
X199931257Y-91950980D01*
X198693161Y-91950980D02*
X198693161Y-90950980D01*
X198312209Y-90950980D01*
X198216971Y-90998600D01*
X198169352Y-91046219D01*
X198121733Y-91141457D01*
X198121733Y-91284314D01*
X198169352Y-91379552D01*
X198216971Y-91427171D01*
X198312209Y-91474790D01*
X198693161Y-91474790D01*
X197550304Y-91950980D02*
X197645542Y-91903361D01*
X197693161Y-91855742D01*
X197740780Y-91760504D01*
X197740780Y-91474790D01*
X197693161Y-91379552D01*
X197645542Y-91331933D01*
X197550304Y-91284314D01*
X197407447Y-91284314D01*
X197312209Y-91331933D01*
X197264590Y-91379552D01*
X197216971Y-91474790D01*
X197216971Y-91760504D01*
X197264590Y-91855742D01*
X197312209Y-91903361D01*
X197407447Y-91950980D01*
X197550304Y-91950980D01*
X196645542Y-91950980D02*
X196740780Y-91903361D01*
X196788400Y-91855742D01*
X196836019Y-91760504D01*
X196836019Y-91474790D01*
X196788400Y-91379552D01*
X196740780Y-91331933D01*
X196645542Y-91284314D01*
X196502685Y-91284314D01*
X196407447Y-91331933D01*
X196359828Y-91379552D01*
X196312209Y-91474790D01*
X196312209Y-91760504D01*
X196359828Y-91855742D01*
X196407447Y-91903361D01*
X196502685Y-91950980D01*
X196645542Y-91950980D01*
X195740780Y-91950980D02*
X195836019Y-91903361D01*
X195883638Y-91808123D01*
X195883638Y-90950980D01*
X204574114Y-93465742D02*
X204621733Y-93513361D01*
X204764590Y-93560980D01*
X204859828Y-93560980D01*
X205002685Y-93513361D01*
X205097923Y-93418123D01*
X205145542Y-93322885D01*
X205193161Y-93132409D01*
X205193161Y-92989552D01*
X205145542Y-92799076D01*
X205097923Y-92703838D01*
X205002685Y-92608600D01*
X204859828Y-92560980D01*
X204764590Y-92560980D01*
X204621733Y-92608600D01*
X204574114Y-92656219D01*
X204002685Y-93560980D02*
X204097923Y-93513361D01*
X204145542Y-93465742D01*
X204193161Y-93370504D01*
X204193161Y-93084790D01*
X204145542Y-92989552D01*
X204097923Y-92941933D01*
X204002685Y-92894314D01*
X203859828Y-92894314D01*
X203764590Y-92941933D01*
X203716971Y-92989552D01*
X203669352Y-93084790D01*
X203669352Y-93370504D01*
X203716971Y-93465742D01*
X203764590Y-93513361D01*
X203859828Y-93560980D01*
X204002685Y-93560980D01*
X202812209Y-92894314D02*
X202812209Y-93560980D01*
X203240780Y-92894314D02*
X203240780Y-93418123D01*
X203193161Y-93513361D01*
X203097923Y-93560980D01*
X202955066Y-93560980D01*
X202859828Y-93513361D01*
X202812209Y-93465742D01*
X202336019Y-92894314D02*
X202336019Y-93560980D01*
X202336019Y-92989552D02*
X202288400Y-92941933D01*
X202193161Y-92894314D01*
X202050304Y-92894314D01*
X201955066Y-92941933D01*
X201907447Y-93037171D01*
X201907447Y-93560980D01*
X201574114Y-92894314D02*
X201193161Y-92894314D01*
X201431257Y-92560980D02*
X201431257Y-93418123D01*
X201383638Y-93513361D01*
X201288400Y-93560980D01*
X201193161Y-93560980D01*
X200478876Y-93513361D02*
X200574114Y-93560980D01*
X200764590Y-93560980D01*
X200859828Y-93513361D01*
X200907447Y-93418123D01*
X200907447Y-93037171D01*
X200859828Y-92941933D01*
X200764590Y-92894314D01*
X200574114Y-92894314D01*
X200478876Y-92941933D01*
X200431257Y-93037171D01*
X200431257Y-93132409D01*
X200907447Y-93227647D01*
X200002685Y-93560980D02*
X200002685Y-92894314D01*
X200002685Y-93084790D02*
X199955066Y-92989552D01*
X199907447Y-92941933D01*
X199812209Y-92894314D01*
X199716971Y-92894314D01*
X198669352Y-92513361D02*
X199526495Y-93799076D01*
X198336019Y-93560980D02*
X198336019Y-92560980D01*
X198097923Y-92560980D01*
X197955066Y-92608600D01*
X197859828Y-92703838D01*
X197812209Y-92799076D01*
X197764590Y-92989552D01*
X197764590Y-93132409D01*
X197812209Y-93322885D01*
X197859828Y-93418123D01*
X197955066Y-93513361D01*
X198097923Y-93560980D01*
X198336019Y-93560980D01*
X197336019Y-93560980D02*
X197336019Y-92894314D01*
X197336019Y-92560980D02*
X197383638Y-92608600D01*
X197336019Y-92656219D01*
X197288400Y-92608600D01*
X197336019Y-92560980D01*
X197336019Y-92656219D01*
X196907447Y-93513361D02*
X196812209Y-93560980D01*
X196621733Y-93560980D01*
X196526495Y-93513361D01*
X196478876Y-93418123D01*
X196478876Y-93370504D01*
X196526495Y-93275266D01*
X196621733Y-93227647D01*
X196764590Y-93227647D01*
X196859828Y-93180028D01*
X196907447Y-93084790D01*
X196907447Y-93037171D01*
X196859828Y-92941933D01*
X196764590Y-92894314D01*
X196621733Y-92894314D01*
X196526495Y-92941933D01*
X196050304Y-92894314D02*
X196050304Y-93894314D01*
X196050304Y-92941933D02*
X195955066Y-92894314D01*
X195764590Y-92894314D01*
X195669352Y-92941933D01*
X195621733Y-92989552D01*
X195574114Y-93084790D01*
X195574114Y-93370504D01*
X195621733Y-93465742D01*
X195669352Y-93513361D01*
X195764590Y-93560980D01*
X195955066Y-93560980D01*
X196050304Y-93513361D01*
X195002685Y-93560980D02*
X195097923Y-93513361D01*
X195145542Y-93418123D01*
X195145542Y-92560980D01*
X194193161Y-93560980D02*
X194193161Y-93037171D01*
X194240780Y-92941933D01*
X194336019Y-92894314D01*
X194526495Y-92894314D01*
X194621733Y-92941933D01*
X194193161Y-93513361D02*
X194288400Y-93560980D01*
X194526495Y-93560980D01*
X194621733Y-93513361D01*
X194669352Y-93418123D01*
X194669352Y-93322885D01*
X194621733Y-93227647D01*
X194526495Y-93180028D01*
X194288400Y-93180028D01*
X194193161Y-93132409D01*
X193812209Y-92894314D02*
X193574114Y-93560980D01*
X193336019Y-92894314D02*
X193574114Y-93560980D01*
X193669352Y-93799076D01*
X193716971Y-93846695D01*
X193812209Y-93894314D01*
X111013904Y-72401180D02*
X111490095Y-72401180D01*
X111537714Y-72877371D01*
X111490095Y-72829752D01*
X111394857Y-72782133D01*
X111156761Y-72782133D01*
X111061523Y-72829752D01*
X111013904Y-72877371D01*
X110966285Y-72972609D01*
X110966285Y-73210704D01*
X111013904Y-73305942D01*
X111061523Y-73353561D01*
X111156761Y-73401180D01*
X111394857Y-73401180D01*
X111490095Y-73353561D01*
X111537714Y-73305942D01*
X126282438Y-89034952D02*
X126377676Y-88987333D01*
X126425295Y-88939714D01*
X126472914Y-88844476D01*
X126472914Y-88796857D01*
X126425295Y-88701619D01*
X126377676Y-88654000D01*
X126282438Y-88606380D01*
X126091961Y-88606380D01*
X125996723Y-88654000D01*
X125949104Y-88701619D01*
X125901485Y-88796857D01*
X125901485Y-88844476D01*
X125949104Y-88939714D01*
X125996723Y-88987333D01*
X126091961Y-89034952D01*
X126282438Y-89034952D01*
X126377676Y-89082571D01*
X126425295Y-89130190D01*
X126472914Y-89225428D01*
X126472914Y-89415904D01*
X126425295Y-89511142D01*
X126377676Y-89558761D01*
X126282438Y-89606380D01*
X126091961Y-89606380D01*
X125996723Y-89558761D01*
X125949104Y-89511142D01*
X125901485Y-89415904D01*
X125901485Y-89225428D01*
X125949104Y-89130190D01*
X125996723Y-89082571D01*
X126091961Y-89034952D01*
X201067561Y-114930228D02*
X200305657Y-114930228D01*
X200686609Y-115311180D02*
X200686609Y-114549276D01*
X199305657Y-115311180D02*
X199877085Y-115311180D01*
X199591371Y-115311180D02*
X199591371Y-114311180D01*
X199686609Y-114454038D01*
X199781847Y-114549276D01*
X199877085Y-114596895D01*
X198924704Y-114406419D02*
X198877085Y-114358800D01*
X198781847Y-114311180D01*
X198543752Y-114311180D01*
X198448514Y-114358800D01*
X198400895Y-114406419D01*
X198353276Y-114501657D01*
X198353276Y-114596895D01*
X198400895Y-114739752D01*
X198972323Y-115311180D01*
X198353276Y-115311180D01*
X198067561Y-114311180D02*
X197734228Y-115311180D01*
X197400895Y-114311180D01*
X196115180Y-114311180D02*
X195924704Y-114311180D01*
X195829466Y-114358800D01*
X195734228Y-114454038D01*
X195686609Y-114644514D01*
X195686609Y-114977847D01*
X195734228Y-115168323D01*
X195829466Y-115263561D01*
X195924704Y-115311180D01*
X196115180Y-115311180D01*
X196210419Y-115263561D01*
X196305657Y-115168323D01*
X196353276Y-114977847D01*
X196353276Y-114644514D01*
X196305657Y-114454038D01*
X196210419Y-114358800D01*
X196115180Y-114311180D01*
X194829466Y-114644514D02*
X194829466Y-115311180D01*
X195258038Y-114644514D02*
X195258038Y-115168323D01*
X195210419Y-115263561D01*
X195115180Y-115311180D01*
X194972323Y-115311180D01*
X194877085Y-115263561D01*
X194829466Y-115215942D01*
X194496133Y-114644514D02*
X194115180Y-114644514D01*
X194353276Y-114311180D02*
X194353276Y-115168323D01*
X194305657Y-115263561D01*
X194210419Y-115311180D01*
X194115180Y-115311180D01*
X121491333Y-120915180D02*
X120824666Y-120915180D01*
X121253238Y-121915180D01*
X105930723Y-121299314D02*
X105930723Y-121965980D01*
X106168819Y-120918361D02*
X106406914Y-121632647D01*
X105787866Y-121632647D01*
X105930723Y-88990514D02*
X105930723Y-89657180D01*
X106168819Y-88609561D02*
X106406914Y-89323847D01*
X105787866Y-89323847D01*
X114153580Y-104338380D02*
X114153580Y-103338380D01*
X113772628Y-103338380D01*
X113677390Y-103386000D01*
X113629771Y-103433619D01*
X113582152Y-103528857D01*
X113582152Y-103671714D01*
X113629771Y-103766952D01*
X113677390Y-103814571D01*
X113772628Y-103862190D01*
X114153580Y-103862190D01*
X113010723Y-104338380D02*
X113105961Y-104290761D01*
X113153580Y-104195523D01*
X113153580Y-103338380D01*
X112201200Y-104338380D02*
X112201200Y-103814571D01*
X112248819Y-103719333D01*
X112344057Y-103671714D01*
X112534533Y-103671714D01*
X112629771Y-103719333D01*
X112201200Y-104290761D02*
X112296438Y-104338380D01*
X112534533Y-104338380D01*
X112629771Y-104290761D01*
X112677390Y-104195523D01*
X112677390Y-104100285D01*
X112629771Y-104005047D01*
X112534533Y-103957428D01*
X112296438Y-103957428D01*
X112201200Y-103909809D01*
X111820247Y-103671714D02*
X111582152Y-104338380D01*
X111344057Y-103671714D02*
X111582152Y-104338380D01*
X111677390Y-104576476D01*
X111725009Y-104624095D01*
X111820247Y-104671714D01*
X110582152Y-104290761D02*
X110677390Y-104338380D01*
X110867866Y-104338380D01*
X110963104Y-104290761D01*
X111010723Y-104195523D01*
X111010723Y-103814571D01*
X110963104Y-103719333D01*
X110867866Y-103671714D01*
X110677390Y-103671714D01*
X110582152Y-103719333D01*
X110534533Y-103814571D01*
X110534533Y-103909809D01*
X111010723Y-104005047D01*
X110105961Y-104338380D02*
X110105961Y-103671714D01*
X110105961Y-103862190D02*
X110058342Y-103766952D01*
X110010723Y-103719333D01*
X109915485Y-103671714D01*
X109820247Y-103671714D01*
X108772628Y-103433619D02*
X108725009Y-103386000D01*
X108629771Y-103338380D01*
X108391676Y-103338380D01*
X108296438Y-103386000D01*
X108248819Y-103433619D01*
X108201200Y-103528857D01*
X108201200Y-103624095D01*
X108248819Y-103766952D01*
X108820247Y-104338380D01*
X108201200Y-104338380D01*
X101425333Y-104913180D02*
X100806285Y-104913180D01*
X101139619Y-105294133D01*
X100996761Y-105294133D01*
X100901523Y-105341752D01*
X100853904Y-105389371D01*
X100806285Y-105484609D01*
X100806285Y-105722704D01*
X100853904Y-105817942D01*
X100901523Y-105865561D01*
X100996761Y-105913180D01*
X101282476Y-105913180D01*
X101377714Y-105865561D01*
X101425333Y-105817942D01*
X105879923Y-105297314D02*
X105879923Y-105963980D01*
X106118019Y-104916361D02*
X106356114Y-105630647D01*
X105737066Y-105630647D01*
X133359257Y-71735761D02*
X133216400Y-71783380D01*
X132978304Y-71783380D01*
X132883066Y-71735761D01*
X132835447Y-71688142D01*
X132787828Y-71592904D01*
X132787828Y-71497666D01*
X132835447Y-71402428D01*
X132883066Y-71354809D01*
X132978304Y-71307190D01*
X133168780Y-71259571D01*
X133264019Y-71211952D01*
X133311638Y-71164333D01*
X133359257Y-71069095D01*
X133359257Y-70973857D01*
X133311638Y-70878619D01*
X133264019Y-70831000D01*
X133168780Y-70783380D01*
X132930685Y-70783380D01*
X132787828Y-70831000D01*
X132359257Y-71783380D02*
X132359257Y-71116714D01*
X132359257Y-70783380D02*
X132406876Y-70831000D01*
X132359257Y-70878619D01*
X132311638Y-70831000D01*
X132359257Y-70783380D01*
X132359257Y-70878619D01*
X131454495Y-71116714D02*
X131454495Y-71926238D01*
X131502114Y-72021476D01*
X131549733Y-72069095D01*
X131644971Y-72116714D01*
X131787828Y-72116714D01*
X131883066Y-72069095D01*
X131454495Y-71735761D02*
X131549733Y-71783380D01*
X131740209Y-71783380D01*
X131835447Y-71735761D01*
X131883066Y-71688142D01*
X131930685Y-71592904D01*
X131930685Y-71307190D01*
X131883066Y-71211952D01*
X131835447Y-71164333D01*
X131740209Y-71116714D01*
X131549733Y-71116714D01*
X131454495Y-71164333D01*
X130978304Y-71116714D02*
X130978304Y-71783380D01*
X130978304Y-71211952D02*
X130930685Y-71164333D01*
X130835447Y-71116714D01*
X130692590Y-71116714D01*
X130597352Y-71164333D01*
X130549733Y-71259571D01*
X130549733Y-71783380D01*
X129644971Y-71783380D02*
X129644971Y-71259571D01*
X129692590Y-71164333D01*
X129787828Y-71116714D01*
X129978304Y-71116714D01*
X130073542Y-71164333D01*
X129644971Y-71735761D02*
X129740209Y-71783380D01*
X129978304Y-71783380D01*
X130073542Y-71735761D01*
X130121161Y-71640523D01*
X130121161Y-71545285D01*
X130073542Y-71450047D01*
X129978304Y-71402428D01*
X129740209Y-71402428D01*
X129644971Y-71354809D01*
X129025923Y-71783380D02*
X129121161Y-71735761D01*
X129168780Y-71640523D01*
X129168780Y-70783380D01*
X131978304Y-72441000D02*
X132073542Y-72393380D01*
X132216400Y-72393380D01*
X132359257Y-72441000D01*
X132454495Y-72536238D01*
X132502114Y-72631476D01*
X132549733Y-72821952D01*
X132549733Y-72964809D01*
X132502114Y-73155285D01*
X132454495Y-73250523D01*
X132359257Y-73345761D01*
X132216400Y-73393380D01*
X132121161Y-73393380D01*
X131978304Y-73345761D01*
X131930685Y-73298142D01*
X131930685Y-72964809D01*
X132121161Y-72964809D01*
X131502114Y-73393380D02*
X131502114Y-72393380D01*
X130930685Y-73393380D01*
X130930685Y-72393380D01*
X130454495Y-73393380D02*
X130454495Y-72393380D01*
X130216400Y-72393380D01*
X130073542Y-72441000D01*
X129978304Y-72536238D01*
X129930685Y-72631476D01*
X129883066Y-72821952D01*
X129883066Y-72964809D01*
X129930685Y-73155285D01*
X129978304Y-73250523D01*
X130073542Y-73345761D01*
X130216400Y-73393380D01*
X130454495Y-73393380D01*
X121440533Y-104913180D02*
X120773866Y-104913180D01*
X121202438Y-105913180D01*
X206460266Y-107443542D02*
X206507885Y-107491161D01*
X206650742Y-107538780D01*
X206745980Y-107538780D01*
X206888838Y-107491161D01*
X206984076Y-107395923D01*
X207031695Y-107300685D01*
X207079314Y-107110209D01*
X207079314Y-106967352D01*
X207031695Y-106776876D01*
X206984076Y-106681638D01*
X206888838Y-106586400D01*
X206745980Y-106538780D01*
X206650742Y-106538780D01*
X206507885Y-106586400D01*
X206460266Y-106634019D01*
X206031695Y-107538780D02*
X206031695Y-106872114D01*
X206031695Y-107062590D02*
X205984076Y-106967352D01*
X205936457Y-106919733D01*
X205841219Y-106872114D01*
X205745980Y-106872114D01*
X205031695Y-107491161D02*
X205126933Y-107538780D01*
X205317409Y-107538780D01*
X205412647Y-107491161D01*
X205460266Y-107395923D01*
X205460266Y-107014971D01*
X205412647Y-106919733D01*
X205317409Y-106872114D01*
X205126933Y-106872114D01*
X205031695Y-106919733D01*
X204984076Y-107014971D01*
X204984076Y-107110209D01*
X205460266Y-107205447D01*
X204126933Y-107538780D02*
X204126933Y-106538780D01*
X204126933Y-107491161D02*
X204222171Y-107538780D01*
X204412647Y-107538780D01*
X204507885Y-107491161D01*
X204555504Y-107443542D01*
X204603123Y-107348304D01*
X204603123Y-107062590D01*
X204555504Y-106967352D01*
X204507885Y-106919733D01*
X204412647Y-106872114D01*
X204222171Y-106872114D01*
X204126933Y-106919733D01*
X203650742Y-107538780D02*
X203650742Y-106872114D01*
X203650742Y-106538780D02*
X203698361Y-106586400D01*
X203650742Y-106634019D01*
X203603123Y-106586400D01*
X203650742Y-106538780D01*
X203650742Y-106634019D01*
X203317409Y-106872114D02*
X202936457Y-106872114D01*
X203174552Y-106538780D02*
X203174552Y-107395923D01*
X203126933Y-107491161D01*
X203031695Y-107538780D01*
X202936457Y-107538780D01*
X201841219Y-107538780D02*
X201841219Y-106538780D01*
X201365028Y-106872114D02*
X201365028Y-107538780D01*
X201365028Y-106967352D02*
X201317409Y-106919733D01*
X201222171Y-106872114D01*
X201079314Y-106872114D01*
X200984076Y-106919733D01*
X200936457Y-107014971D01*
X200936457Y-107538780D01*
X200460266Y-106872114D02*
X200460266Y-107872114D01*
X200460266Y-106919733D02*
X200365028Y-106872114D01*
X200174552Y-106872114D01*
X200079314Y-106919733D01*
X200031695Y-106967352D01*
X199984076Y-107062590D01*
X199984076Y-107348304D01*
X200031695Y-107443542D01*
X200079314Y-107491161D01*
X200174552Y-107538780D01*
X200365028Y-107538780D01*
X200460266Y-107491161D01*
X199126933Y-106872114D02*
X199126933Y-107538780D01*
X199555504Y-106872114D02*
X199555504Y-107395923D01*
X199507885Y-107491161D01*
X199412647Y-107538780D01*
X199269790Y-107538780D01*
X199174552Y-107491161D01*
X199126933Y-107443542D01*
X198793600Y-106872114D02*
X198412647Y-106872114D01*
X198650742Y-106538780D02*
X198650742Y-107395923D01*
X198603123Y-107491161D01*
X198507885Y-107538780D01*
X198412647Y-107538780D01*
X196703866Y-100341180D02*
X196513390Y-100341180D01*
X196418152Y-100388800D01*
X196322914Y-100484038D01*
X196275295Y-100674514D01*
X196275295Y-101007847D01*
X196322914Y-101198323D01*
X196418152Y-101293561D01*
X196513390Y-101341180D01*
X196703866Y-101341180D01*
X196799104Y-101293561D01*
X196894342Y-101198323D01*
X196941961Y-101007847D01*
X196941961Y-100674514D01*
X196894342Y-100484038D01*
X196799104Y-100388800D01*
X196703866Y-100341180D01*
X195989580Y-100674514D02*
X195608628Y-100674514D01*
X195846723Y-101341180D02*
X195846723Y-100484038D01*
X195799104Y-100388800D01*
X195703866Y-100341180D01*
X195608628Y-100341180D01*
X195418152Y-100674514D02*
X195037200Y-100674514D01*
X195275295Y-101341180D02*
X195275295Y-100484038D01*
X195227676Y-100388800D01*
X195132438Y-100341180D01*
X195037200Y-100341180D01*
X160330780Y-100172780D02*
X160330780Y-99172780D01*
X159949828Y-99172780D01*
X159854590Y-99220400D01*
X159806971Y-99268019D01*
X159759352Y-99363257D01*
X159759352Y-99506114D01*
X159806971Y-99601352D01*
X159854590Y-99648971D01*
X159949828Y-99696590D01*
X160330780Y-99696590D01*
X159187923Y-100172780D02*
X159283161Y-100125161D01*
X159330780Y-100029923D01*
X159330780Y-99172780D01*
X158378400Y-100172780D02*
X158378400Y-99648971D01*
X158426019Y-99553733D01*
X158521257Y-99506114D01*
X158711733Y-99506114D01*
X158806971Y-99553733D01*
X158378400Y-100125161D02*
X158473638Y-100172780D01*
X158711733Y-100172780D01*
X158806971Y-100125161D01*
X158854590Y-100029923D01*
X158854590Y-99934685D01*
X158806971Y-99839447D01*
X158711733Y-99791828D01*
X158473638Y-99791828D01*
X158378400Y-99744209D01*
X157997447Y-99506114D02*
X157759352Y-100172780D01*
X157521257Y-99506114D02*
X157759352Y-100172780D01*
X157854590Y-100410876D01*
X157902209Y-100458495D01*
X157997447Y-100506114D01*
X156759352Y-100125161D02*
X156854590Y-100172780D01*
X157045066Y-100172780D01*
X157140304Y-100125161D01*
X157187923Y-100029923D01*
X157187923Y-99648971D01*
X157140304Y-99553733D01*
X157045066Y-99506114D01*
X156854590Y-99506114D01*
X156759352Y-99553733D01*
X156711733Y-99648971D01*
X156711733Y-99744209D01*
X157187923Y-99839447D01*
X156283161Y-100172780D02*
X156283161Y-99506114D01*
X156283161Y-99696590D02*
X156235542Y-99601352D01*
X156187923Y-99553733D01*
X156092685Y-99506114D01*
X155997447Y-99506114D01*
X154997447Y-99172780D02*
X154378400Y-99172780D01*
X154711733Y-99553733D01*
X154568876Y-99553733D01*
X154473638Y-99601352D01*
X154426019Y-99648971D01*
X154378400Y-99744209D01*
X154378400Y-99982304D01*
X154426019Y-100077542D01*
X154473638Y-100125161D01*
X154568876Y-100172780D01*
X154854590Y-100172780D01*
X154949828Y-100125161D01*
X154997447Y-100077542D01*
X188710533Y-114930228D02*
X187948628Y-114930228D01*
X188329580Y-115311180D02*
X188329580Y-114549276D01*
X187520057Y-114406419D02*
X187472438Y-114358800D01*
X187377200Y-114311180D01*
X187139104Y-114311180D01*
X187043866Y-114358800D01*
X186996247Y-114406419D01*
X186948628Y-114501657D01*
X186948628Y-114596895D01*
X186996247Y-114739752D01*
X187567676Y-115311180D01*
X186948628Y-115311180D01*
X186091485Y-114644514D02*
X186091485Y-115311180D01*
X186329580Y-114263561D02*
X186567676Y-114977847D01*
X185948628Y-114977847D01*
X185710533Y-114311180D02*
X185377200Y-115311180D01*
X185043866Y-114311180D01*
X183948628Y-115311180D02*
X183948628Y-114311180D01*
X183472438Y-114644514D02*
X183472438Y-115311180D01*
X183472438Y-114739752D02*
X183424819Y-114692133D01*
X183329580Y-114644514D01*
X183186723Y-114644514D01*
X183091485Y-114692133D01*
X183043866Y-114787371D01*
X183043866Y-115311180D01*
X90849485Y-121915180D02*
X91420914Y-121915180D01*
X91135200Y-121915180D02*
X91135200Y-120915180D01*
X91230438Y-121058038D01*
X91325676Y-121153276D01*
X91420914Y-121200895D01*
X115887523Y-104913180D02*
X116078000Y-104913180D01*
X116173238Y-104960800D01*
X116220857Y-105008419D01*
X116316095Y-105151276D01*
X116363714Y-105341752D01*
X116363714Y-105722704D01*
X116316095Y-105817942D01*
X116268476Y-105865561D01*
X116173238Y-105913180D01*
X115982761Y-105913180D01*
X115887523Y-105865561D01*
X115839904Y-105817942D01*
X115792285Y-105722704D01*
X115792285Y-105484609D01*
X115839904Y-105389371D01*
X115887523Y-105341752D01*
X115982761Y-105294133D01*
X116173238Y-105294133D01*
X116268476Y-105341752D01*
X116316095Y-105389371D01*
X116363714Y-105484609D01*
X110963104Y-120915180D02*
X111439295Y-120915180D01*
X111486914Y-121391371D01*
X111439295Y-121343752D01*
X111344057Y-121296133D01*
X111105961Y-121296133D01*
X111010723Y-121343752D01*
X110963104Y-121391371D01*
X110915485Y-121486609D01*
X110915485Y-121724704D01*
X110963104Y-121819942D01*
X111010723Y-121867561D01*
X111105961Y-121915180D01*
X111344057Y-121915180D01*
X111439295Y-121867561D01*
X111486914Y-121819942D01*
X191077885Y-80970380D02*
X191649314Y-80970380D01*
X191363600Y-80970380D02*
X191363600Y-79970380D01*
X191458838Y-80113238D01*
X191554076Y-80208476D01*
X191649314Y-80256095D01*
X133359257Y-104247761D02*
X133216400Y-104295380D01*
X132978304Y-104295380D01*
X132883066Y-104247761D01*
X132835447Y-104200142D01*
X132787828Y-104104904D01*
X132787828Y-104009666D01*
X132835447Y-103914428D01*
X132883066Y-103866809D01*
X132978304Y-103819190D01*
X133168780Y-103771571D01*
X133264019Y-103723952D01*
X133311638Y-103676333D01*
X133359257Y-103581095D01*
X133359257Y-103485857D01*
X133311638Y-103390619D01*
X133264019Y-103343000D01*
X133168780Y-103295380D01*
X132930685Y-103295380D01*
X132787828Y-103343000D01*
X132359257Y-104295380D02*
X132359257Y-103628714D01*
X132359257Y-103295380D02*
X132406876Y-103343000D01*
X132359257Y-103390619D01*
X132311638Y-103343000D01*
X132359257Y-103295380D01*
X132359257Y-103390619D01*
X131454495Y-103628714D02*
X131454495Y-104438238D01*
X131502114Y-104533476D01*
X131549733Y-104581095D01*
X131644971Y-104628714D01*
X131787828Y-104628714D01*
X131883066Y-104581095D01*
X131454495Y-104247761D02*
X131549733Y-104295380D01*
X131740209Y-104295380D01*
X131835447Y-104247761D01*
X131883066Y-104200142D01*
X131930685Y-104104904D01*
X131930685Y-103819190D01*
X131883066Y-103723952D01*
X131835447Y-103676333D01*
X131740209Y-103628714D01*
X131549733Y-103628714D01*
X131454495Y-103676333D01*
X130978304Y-103628714D02*
X130978304Y-104295380D01*
X130978304Y-103723952D02*
X130930685Y-103676333D01*
X130835447Y-103628714D01*
X130692590Y-103628714D01*
X130597352Y-103676333D01*
X130549733Y-103771571D01*
X130549733Y-104295380D01*
X129644971Y-104295380D02*
X129644971Y-103771571D01*
X129692590Y-103676333D01*
X129787828Y-103628714D01*
X129978304Y-103628714D01*
X130073542Y-103676333D01*
X129644971Y-104247761D02*
X129740209Y-104295380D01*
X129978304Y-104295380D01*
X130073542Y-104247761D01*
X130121161Y-104152523D01*
X130121161Y-104057285D01*
X130073542Y-103962047D01*
X129978304Y-103914428D01*
X129740209Y-103914428D01*
X129644971Y-103866809D01*
X129025923Y-104295380D02*
X129121161Y-104247761D01*
X129168780Y-104152523D01*
X129168780Y-103295380D01*
X131978304Y-104953000D02*
X132073542Y-104905380D01*
X132216400Y-104905380D01*
X132359257Y-104953000D01*
X132454495Y-105048238D01*
X132502114Y-105143476D01*
X132549733Y-105333952D01*
X132549733Y-105476809D01*
X132502114Y-105667285D01*
X132454495Y-105762523D01*
X132359257Y-105857761D01*
X132216400Y-105905380D01*
X132121161Y-105905380D01*
X131978304Y-105857761D01*
X131930685Y-105810142D01*
X131930685Y-105476809D01*
X132121161Y-105476809D01*
X131502114Y-105905380D02*
X131502114Y-104905380D01*
X130930685Y-105905380D01*
X130930685Y-104905380D01*
X130454495Y-105905380D02*
X130454495Y-104905380D01*
X130216400Y-104905380D01*
X130073542Y-104953000D01*
X129978304Y-105048238D01*
X129930685Y-105143476D01*
X129883066Y-105333952D01*
X129883066Y-105476809D01*
X129930685Y-105667285D01*
X129978304Y-105762523D01*
X130073542Y-105857761D01*
X130216400Y-105905380D01*
X130454495Y-105905380D01*
X149893161Y-78596942D02*
X149940780Y-78644561D01*
X150083638Y-78692180D01*
X150178876Y-78692180D01*
X150321733Y-78644561D01*
X150416971Y-78549323D01*
X150464590Y-78454085D01*
X150512209Y-78263609D01*
X150512209Y-78120752D01*
X150464590Y-77930276D01*
X150416971Y-77835038D01*
X150321733Y-77739800D01*
X150178876Y-77692180D01*
X150083638Y-77692180D01*
X149940780Y-77739800D01*
X149893161Y-77787419D01*
X149464590Y-78692180D02*
X149464590Y-78025514D01*
X149464590Y-78215990D02*
X149416971Y-78120752D01*
X149369352Y-78073133D01*
X149274114Y-78025514D01*
X149178876Y-78025514D01*
X148464590Y-78644561D02*
X148559828Y-78692180D01*
X148750304Y-78692180D01*
X148845542Y-78644561D01*
X148893161Y-78549323D01*
X148893161Y-78168371D01*
X148845542Y-78073133D01*
X148750304Y-78025514D01*
X148559828Y-78025514D01*
X148464590Y-78073133D01*
X148416971Y-78168371D01*
X148416971Y-78263609D01*
X148893161Y-78358847D01*
X147559828Y-78692180D02*
X147559828Y-77692180D01*
X147559828Y-78644561D02*
X147655066Y-78692180D01*
X147845542Y-78692180D01*
X147940780Y-78644561D01*
X147988400Y-78596942D01*
X148036019Y-78501704D01*
X148036019Y-78215990D01*
X147988400Y-78120752D01*
X147940780Y-78073133D01*
X147845542Y-78025514D01*
X147655066Y-78025514D01*
X147559828Y-78073133D01*
X147083638Y-78692180D02*
X147083638Y-78025514D01*
X147083638Y-77692180D02*
X147131257Y-77739800D01*
X147083638Y-77787419D01*
X147036019Y-77739800D01*
X147083638Y-77692180D01*
X147083638Y-77787419D01*
X146750304Y-78025514D02*
X146369352Y-78025514D01*
X146607447Y-77692180D02*
X146607447Y-78549323D01*
X146559828Y-78644561D01*
X146464590Y-78692180D01*
X146369352Y-78692180D01*
X150750304Y-79778371D02*
X150607447Y-79825990D01*
X150559828Y-79873609D01*
X150512209Y-79968847D01*
X150512209Y-80111704D01*
X150559828Y-80206942D01*
X150607447Y-80254561D01*
X150702685Y-80302180D01*
X151083638Y-80302180D01*
X151083638Y-79302180D01*
X150750304Y-79302180D01*
X150655066Y-79349800D01*
X150607447Y-79397419D01*
X150559828Y-79492657D01*
X150559828Y-79587895D01*
X150607447Y-79683133D01*
X150655066Y-79730752D01*
X150750304Y-79778371D01*
X151083638Y-79778371D01*
X149655066Y-79635514D02*
X149655066Y-80302180D01*
X150083638Y-79635514D02*
X150083638Y-80159323D01*
X150036019Y-80254561D01*
X149940780Y-80302180D01*
X149797923Y-80302180D01*
X149702685Y-80254561D01*
X149655066Y-80206942D01*
X149321733Y-79635514D02*
X148940780Y-79635514D01*
X149178876Y-79302180D02*
X149178876Y-80159323D01*
X149131257Y-80254561D01*
X149036019Y-80302180D01*
X148940780Y-80302180D01*
X148750304Y-79635514D02*
X148369352Y-79635514D01*
X148607447Y-79302180D02*
X148607447Y-80159323D01*
X148559828Y-80254561D01*
X148464590Y-80302180D01*
X148369352Y-80302180D01*
X147893161Y-80302180D02*
X147988400Y-80254561D01*
X148036019Y-80206942D01*
X148083638Y-80111704D01*
X148083638Y-79825990D01*
X148036019Y-79730752D01*
X147988400Y-79683133D01*
X147893161Y-79635514D01*
X147750304Y-79635514D01*
X147655066Y-79683133D01*
X147607447Y-79730752D01*
X147559828Y-79825990D01*
X147559828Y-80111704D01*
X147607447Y-80206942D01*
X147655066Y-80254561D01*
X147750304Y-80302180D01*
X147893161Y-80302180D01*
X147131257Y-79635514D02*
X147131257Y-80302180D01*
X147131257Y-79730752D02*
X147083638Y-79683133D01*
X146988400Y-79635514D01*
X146845542Y-79635514D01*
X146750304Y-79683133D01*
X146702685Y-79778371D01*
X146702685Y-80302180D01*
X146274114Y-80254561D02*
X146178876Y-80302180D01*
X145988400Y-80302180D01*
X145893161Y-80254561D01*
X145845542Y-80159323D01*
X145845542Y-80111704D01*
X145893161Y-80016466D01*
X145988400Y-79968847D01*
X146131257Y-79968847D01*
X146226495Y-79921228D01*
X146274114Y-79825990D01*
X146274114Y-79778371D01*
X146226495Y-79683133D01*
X146131257Y-79635514D01*
X145988400Y-79635514D01*
X145893161Y-79683133D01*
X191554076Y-95261180D02*
X192030266Y-95261180D01*
X192077885Y-95737371D01*
X192030266Y-95689752D01*
X191935028Y-95642133D01*
X191696933Y-95642133D01*
X191601695Y-95689752D01*
X191554076Y-95737371D01*
X191506457Y-95832609D01*
X191506457Y-96070704D01*
X191554076Y-96165942D01*
X191601695Y-96213561D01*
X191696933Y-96261180D01*
X191935028Y-96261180D01*
X192030266Y-96213561D01*
X192077885Y-96165942D01*
X191220742Y-95261180D02*
X190887409Y-96261180D01*
X190554076Y-95261180D01*
X121542133Y-72401180D02*
X120875466Y-72401180D01*
X121304038Y-73401180D01*
X204673104Y-111971200D02*
X204768342Y-111923580D01*
X204911200Y-111923580D01*
X205054057Y-111971200D01*
X205149295Y-112066438D01*
X205196914Y-112161676D01*
X205244533Y-112352152D01*
X205244533Y-112495009D01*
X205196914Y-112685485D01*
X205149295Y-112780723D01*
X205054057Y-112875961D01*
X204911200Y-112923580D01*
X204815961Y-112923580D01*
X204673104Y-112875961D01*
X204625485Y-112828342D01*
X204625485Y-112495009D01*
X204815961Y-112495009D01*
X204196914Y-112923580D02*
X204196914Y-111923580D01*
X203625485Y-112923580D01*
X203625485Y-111923580D01*
X203149295Y-112923580D02*
X203149295Y-111923580D01*
X202911200Y-111923580D01*
X202768342Y-111971200D01*
X202673104Y-112066438D01*
X202625485Y-112161676D01*
X202577866Y-112352152D01*
X202577866Y-112495009D01*
X202625485Y-112685485D01*
X202673104Y-112780723D01*
X202768342Y-112875961D01*
X202911200Y-112923580D01*
X203149295Y-112923580D01*
X160381580Y-87421980D02*
X160381580Y-86421980D01*
X160000628Y-86421980D01*
X159905390Y-86469600D01*
X159857771Y-86517219D01*
X159810152Y-86612457D01*
X159810152Y-86755314D01*
X159857771Y-86850552D01*
X159905390Y-86898171D01*
X160000628Y-86945790D01*
X160381580Y-86945790D01*
X159238723Y-87421980D02*
X159333961Y-87374361D01*
X159381580Y-87279123D01*
X159381580Y-86421980D01*
X158429200Y-87421980D02*
X158429200Y-86898171D01*
X158476819Y-86802933D01*
X158572057Y-86755314D01*
X158762533Y-86755314D01*
X158857771Y-86802933D01*
X158429200Y-87374361D02*
X158524438Y-87421980D01*
X158762533Y-87421980D01*
X158857771Y-87374361D01*
X158905390Y-87279123D01*
X158905390Y-87183885D01*
X158857771Y-87088647D01*
X158762533Y-87041028D01*
X158524438Y-87041028D01*
X158429200Y-86993409D01*
X158048247Y-86755314D02*
X157810152Y-87421980D01*
X157572057Y-86755314D02*
X157810152Y-87421980D01*
X157905390Y-87660076D01*
X157953009Y-87707695D01*
X158048247Y-87755314D01*
X156810152Y-87374361D02*
X156905390Y-87421980D01*
X157095866Y-87421980D01*
X157191104Y-87374361D01*
X157238723Y-87279123D01*
X157238723Y-86898171D01*
X157191104Y-86802933D01*
X157095866Y-86755314D01*
X156905390Y-86755314D01*
X156810152Y-86802933D01*
X156762533Y-86898171D01*
X156762533Y-86993409D01*
X157238723Y-87088647D01*
X156333961Y-87421980D02*
X156333961Y-86755314D01*
X156333961Y-86945790D02*
X156286342Y-86850552D01*
X156238723Y-86802933D01*
X156143485Y-86755314D01*
X156048247Y-86755314D01*
X154524438Y-86755314D02*
X154524438Y-87421980D01*
X154762533Y-86374361D02*
X155000628Y-87088647D01*
X154381580Y-87088647D01*
X212903961Y-114930228D02*
X212142057Y-114930228D01*
X212523009Y-115311180D02*
X212523009Y-114549276D01*
X211713485Y-114406419D02*
X211665866Y-114358800D01*
X211570628Y-114311180D01*
X211332533Y-114311180D01*
X211237295Y-114358800D01*
X211189676Y-114406419D01*
X211142057Y-114501657D01*
X211142057Y-114596895D01*
X211189676Y-114739752D01*
X211761104Y-115311180D01*
X211142057Y-115311180D01*
X210284914Y-114644514D02*
X210284914Y-115311180D01*
X210523009Y-114263561D02*
X210761104Y-114977847D01*
X210142057Y-114977847D01*
X209903961Y-114311180D02*
X209570628Y-115311180D01*
X209237295Y-114311180D01*
X207951580Y-114311180D02*
X207761104Y-114311180D01*
X207665866Y-114358800D01*
X207570628Y-114454038D01*
X207523009Y-114644514D01*
X207523009Y-114977847D01*
X207570628Y-115168323D01*
X207665866Y-115263561D01*
X207761104Y-115311180D01*
X207951580Y-115311180D01*
X208046819Y-115263561D01*
X208142057Y-115168323D01*
X208189676Y-114977847D01*
X208189676Y-114644514D01*
X208142057Y-114454038D01*
X208046819Y-114358800D01*
X207951580Y-114311180D01*
X206665866Y-114644514D02*
X206665866Y-115311180D01*
X207094438Y-114644514D02*
X207094438Y-115168323D01*
X207046819Y-115263561D01*
X206951580Y-115311180D01*
X206808723Y-115311180D01*
X206713485Y-115263561D01*
X206665866Y-115215942D01*
X206332533Y-114644514D02*
X205951580Y-114644514D01*
X206189676Y-114311180D02*
X206189676Y-115168323D01*
X206142057Y-115263561D01*
X206046819Y-115311180D01*
X205951580Y-115311180D01*
X101476133Y-88606380D02*
X100857085Y-88606380D01*
X101190419Y-88987333D01*
X101047561Y-88987333D01*
X100952323Y-89034952D01*
X100904704Y-89082571D01*
X100857085Y-89177809D01*
X100857085Y-89415904D01*
X100904704Y-89511142D01*
X100952323Y-89558761D01*
X101047561Y-89606380D01*
X101333276Y-89606380D01*
X101428514Y-89558761D01*
X101476133Y-89511142D01*
X207729980Y-103938342D02*
X207777600Y-103985961D01*
X207920457Y-104033580D01*
X208015695Y-104033580D01*
X208158552Y-103985961D01*
X208253790Y-103890723D01*
X208301409Y-103795485D01*
X208349028Y-103605009D01*
X208349028Y-103462152D01*
X208301409Y-103271676D01*
X208253790Y-103176438D01*
X208158552Y-103081200D01*
X208015695Y-103033580D01*
X207920457Y-103033580D01*
X207777600Y-103081200D01*
X207729980Y-103128819D01*
X207158552Y-104033580D02*
X207253790Y-103985961D01*
X207301409Y-103938342D01*
X207349028Y-103843104D01*
X207349028Y-103557390D01*
X207301409Y-103462152D01*
X207253790Y-103414533D01*
X207158552Y-103366914D01*
X207015695Y-103366914D01*
X206920457Y-103414533D01*
X206872838Y-103462152D01*
X206825219Y-103557390D01*
X206825219Y-103843104D01*
X206872838Y-103938342D01*
X206920457Y-103985961D01*
X207015695Y-104033580D01*
X207158552Y-104033580D01*
X206396647Y-104033580D02*
X206396647Y-103366914D01*
X206396647Y-103033580D02*
X206444266Y-103081200D01*
X206396647Y-103128819D01*
X206349028Y-103081200D01*
X206396647Y-103033580D01*
X206396647Y-103128819D01*
X205920457Y-103366914D02*
X205920457Y-104033580D01*
X205920457Y-103462152D02*
X205872838Y-103414533D01*
X205777600Y-103366914D01*
X205634742Y-103366914D01*
X205539504Y-103414533D01*
X205491885Y-103509771D01*
X205491885Y-104033580D01*
X204253790Y-104033580D02*
X204253790Y-103033580D01*
X203872838Y-103033580D01*
X203777600Y-103081200D01*
X203729980Y-103128819D01*
X203682361Y-103224057D01*
X203682361Y-103366914D01*
X203729980Y-103462152D01*
X203777600Y-103509771D01*
X203872838Y-103557390D01*
X204253790Y-103557390D01*
X203110933Y-104033580D02*
X203206171Y-103985961D01*
X203253790Y-103938342D01*
X203301409Y-103843104D01*
X203301409Y-103557390D01*
X203253790Y-103462152D01*
X203206171Y-103414533D01*
X203110933Y-103366914D01*
X202968076Y-103366914D01*
X202872838Y-103414533D01*
X202825219Y-103462152D01*
X202777600Y-103557390D01*
X202777600Y-103843104D01*
X202825219Y-103938342D01*
X202872838Y-103985961D01*
X202968076Y-104033580D01*
X203110933Y-104033580D01*
X202206171Y-104033580D02*
X202301409Y-103985961D01*
X202349028Y-103938342D01*
X202396647Y-103843104D01*
X202396647Y-103557390D01*
X202349028Y-103462152D01*
X202301409Y-103414533D01*
X202206171Y-103366914D01*
X202063314Y-103366914D01*
X201968076Y-103414533D01*
X201920457Y-103462152D01*
X201872838Y-103557390D01*
X201872838Y-103843104D01*
X201920457Y-103938342D01*
X201968076Y-103985961D01*
X202063314Y-104033580D01*
X202206171Y-104033580D01*
X201301409Y-104033580D02*
X201396647Y-103985961D01*
X201444266Y-103890723D01*
X201444266Y-103033580D01*
X199872838Y-103033580D02*
X199872838Y-103747866D01*
X199920457Y-103890723D01*
X200015695Y-103985961D01*
X200158552Y-104033580D01*
X200253790Y-104033580D01*
X198968076Y-103366914D02*
X198968076Y-104033580D01*
X199396647Y-103366914D02*
X199396647Y-103890723D01*
X199349028Y-103985961D01*
X199253790Y-104033580D01*
X199110933Y-104033580D01*
X199015695Y-103985961D01*
X198968076Y-103938342D01*
X198491885Y-104033580D02*
X198491885Y-103366914D01*
X198491885Y-103462152D02*
X198444266Y-103414533D01*
X198349028Y-103366914D01*
X198206171Y-103366914D01*
X198110933Y-103414533D01*
X198063314Y-103509771D01*
X198063314Y-104033580D01*
X198063314Y-103509771D02*
X198015695Y-103414533D01*
X197920457Y-103366914D01*
X197777600Y-103366914D01*
X197682361Y-103414533D01*
X197634742Y-103509771D01*
X197634742Y-104033580D01*
X197158552Y-103366914D02*
X197158552Y-104366914D01*
X197158552Y-103414533D02*
X197063314Y-103366914D01*
X196872838Y-103366914D01*
X196777600Y-103414533D01*
X196729980Y-103462152D01*
X196682361Y-103557390D01*
X196682361Y-103843104D01*
X196729980Y-103938342D01*
X196777600Y-103985961D01*
X196872838Y-104033580D01*
X197063314Y-104033580D01*
X197158552Y-103985961D01*
X195872838Y-103985961D02*
X195968076Y-104033580D01*
X196158552Y-104033580D01*
X196253790Y-103985961D01*
X196301409Y-103890723D01*
X196301409Y-103509771D01*
X196253790Y-103414533D01*
X196158552Y-103366914D01*
X195968076Y-103366914D01*
X195872838Y-103414533D01*
X195825219Y-103509771D01*
X195825219Y-103605009D01*
X196301409Y-103700247D01*
X195396647Y-104033580D02*
X195396647Y-103366914D01*
X195396647Y-103557390D02*
X195349028Y-103462152D01*
X195301409Y-103414533D01*
X195206171Y-103366914D01*
X195110933Y-103366914D01*
X115938323Y-88606380D02*
X116128800Y-88606380D01*
X116224038Y-88654000D01*
X116271657Y-88701619D01*
X116366895Y-88844476D01*
X116414514Y-89034952D01*
X116414514Y-89415904D01*
X116366895Y-89511142D01*
X116319276Y-89558761D01*
X116224038Y-89606380D01*
X116033561Y-89606380D01*
X115938323Y-89558761D01*
X115890704Y-89511142D01*
X115843085Y-89415904D01*
X115843085Y-89177809D01*
X115890704Y-89082571D01*
X115938323Y-89034952D01*
X116033561Y-88987333D01*
X116224038Y-88987333D01*
X116319276Y-89034952D01*
X116366895Y-89082571D01*
X116414514Y-89177809D01*
X181638533Y-79970380D02*
X181019485Y-79970380D01*
X181352819Y-80351333D01*
X181209961Y-80351333D01*
X181114723Y-80398952D01*
X181067104Y-80446571D01*
X181019485Y-80541809D01*
X181019485Y-80779904D01*
X181067104Y-80875142D01*
X181114723Y-80922761D01*
X181209961Y-80970380D01*
X181495676Y-80970380D01*
X181590914Y-80922761D01*
X181638533Y-80875142D01*
X115938323Y-120915180D02*
X116128800Y-120915180D01*
X116224038Y-120962800D01*
X116271657Y-121010419D01*
X116366895Y-121153276D01*
X116414514Y-121343752D01*
X116414514Y-121724704D01*
X116366895Y-121819942D01*
X116319276Y-121867561D01*
X116224038Y-121915180D01*
X116033561Y-121915180D01*
X115938323Y-121867561D01*
X115890704Y-121819942D01*
X115843085Y-121724704D01*
X115843085Y-121486609D01*
X115890704Y-121391371D01*
X115938323Y-121343752D01*
X116033561Y-121296133D01*
X116224038Y-121296133D01*
X116319276Y-121343752D01*
X116366895Y-121391371D01*
X116414514Y-121486609D01*
X110912304Y-104913180D02*
X111388495Y-104913180D01*
X111436114Y-105389371D01*
X111388495Y-105341752D01*
X111293257Y-105294133D01*
X111055161Y-105294133D01*
X110959923Y-105341752D01*
X110912304Y-105389371D01*
X110864685Y-105484609D01*
X110864685Y-105722704D01*
X110912304Y-105817942D01*
X110959923Y-105865561D01*
X111055161Y-105913180D01*
X111293257Y-105913180D01*
X111388495Y-105865561D01*
X111436114Y-105817942D01*
X161674133Y-79970380D02*
X161007466Y-79970380D01*
X161436038Y-80970380D01*
X171059504Y-79970380D02*
X171535695Y-79970380D01*
X171583314Y-80446571D01*
X171535695Y-80398952D01*
X171440457Y-80351333D01*
X171202361Y-80351333D01*
X171107123Y-80398952D01*
X171059504Y-80446571D01*
X171011885Y-80541809D01*
X171011885Y-80779904D01*
X171059504Y-80875142D01*
X171107123Y-80922761D01*
X171202361Y-80970380D01*
X171440457Y-80970380D01*
X171535695Y-80922761D01*
X171583314Y-80875142D01*
X176253066Y-103297961D02*
X176919733Y-102345580D01*
X177395923Y-103297961D02*
X177395923Y-101297961D01*
X176634019Y-101297961D01*
X176443542Y-101393200D01*
X176348304Y-101488438D01*
X176253066Y-101678914D01*
X176253066Y-101964628D01*
X176348304Y-102155104D01*
X176443542Y-102250342D01*
X176634019Y-102345580D01*
X177395923Y-102345580D01*
X175395923Y-103297961D02*
X175395923Y-101297961D01*
X174634019Y-101297961D01*
X174443542Y-101393200D01*
X174348304Y-101488438D01*
X174253066Y-101678914D01*
X174253066Y-101964628D01*
X174348304Y-102155104D01*
X174443542Y-102250342D01*
X174634019Y-102345580D01*
X175395923Y-102345580D01*
X173395923Y-103297961D02*
X173395923Y-101964628D01*
X173395923Y-101297961D02*
X173491161Y-101393200D01*
X173395923Y-101488438D01*
X173300685Y-101393200D01*
X173395923Y-101297961D01*
X173395923Y-101488438D01*
X170919733Y-103297961D02*
X170919733Y-101297961D01*
X170253066Y-102726533D01*
X169586400Y-101297961D01*
X169586400Y-103297961D01*
X168729257Y-102726533D02*
X167776876Y-102726533D01*
X168919733Y-103297961D02*
X168253066Y-101297961D01*
X167586400Y-103297961D01*
X166919733Y-103297961D02*
X166919733Y-101297961D01*
X166253066Y-102726533D01*
X165586400Y-101297961D01*
X165586400Y-103297961D01*
X164634019Y-102250342D02*
X163967352Y-102250342D01*
X163681638Y-103297961D02*
X164634019Y-103297961D01*
X164634019Y-101297961D01*
X163681638Y-101297961D01*
X178157828Y-105470342D02*
X178824495Y-105470342D01*
X178824495Y-106517961D02*
X178824495Y-104517961D01*
X177872114Y-104517961D01*
X176824495Y-106517961D02*
X177014971Y-106422723D01*
X177110209Y-106327485D01*
X177205447Y-106137009D01*
X177205447Y-105565580D01*
X177110209Y-105375104D01*
X177014971Y-105279866D01*
X176824495Y-105184628D01*
X176538780Y-105184628D01*
X176348304Y-105279866D01*
X176253066Y-105375104D01*
X176157828Y-105565580D01*
X176157828Y-106137009D01*
X176253066Y-106327485D01*
X176348304Y-106422723D01*
X176538780Y-106517961D01*
X176824495Y-106517961D01*
X174443542Y-105184628D02*
X174443542Y-106517961D01*
X175300685Y-105184628D02*
X175300685Y-106232247D01*
X175205447Y-106422723D01*
X175014971Y-106517961D01*
X174729257Y-106517961D01*
X174538780Y-106422723D01*
X174443542Y-106327485D01*
X173491161Y-106517961D02*
X173491161Y-105184628D01*
X173491161Y-105565580D02*
X173395923Y-105375104D01*
X173300685Y-105279866D01*
X173110209Y-105184628D01*
X172919733Y-105184628D01*
X170729257Y-106517961D02*
X170729257Y-104517961D01*
X169967352Y-104517961D01*
X169776876Y-104613200D01*
X169681638Y-104708438D01*
X169586400Y-104898914D01*
X169586400Y-105184628D01*
X169681638Y-105375104D01*
X169776876Y-105470342D01*
X169967352Y-105565580D01*
X170729257Y-105565580D01*
X168443542Y-106517961D02*
X168634019Y-106422723D01*
X168729257Y-106232247D01*
X168729257Y-104517961D01*
X166824495Y-106517961D02*
X166824495Y-105470342D01*
X166919733Y-105279866D01*
X167110209Y-105184628D01*
X167491161Y-105184628D01*
X167681638Y-105279866D01*
X166824495Y-106422723D02*
X167014971Y-106517961D01*
X167491161Y-106517961D01*
X167681638Y-106422723D01*
X167776876Y-106232247D01*
X167776876Y-106041771D01*
X167681638Y-105851295D01*
X167491161Y-105756057D01*
X167014971Y-105756057D01*
X166824495Y-105660819D01*
X166062590Y-105184628D02*
X165586400Y-106517961D01*
X165110209Y-105184628D02*
X165586400Y-106517961D01*
X165776876Y-106994152D01*
X165872114Y-107089390D01*
X166062590Y-107184628D01*
X163586400Y-106422723D02*
X163776876Y-106517961D01*
X164157828Y-106517961D01*
X164348304Y-106422723D01*
X164443542Y-106232247D01*
X164443542Y-105470342D01*
X164348304Y-105279866D01*
X164157828Y-105184628D01*
X163776876Y-105184628D01*
X163586400Y-105279866D01*
X163491161Y-105470342D01*
X163491161Y-105660819D01*
X164443542Y-105851295D01*
X162634019Y-106517961D02*
X162634019Y-105184628D01*
X162634019Y-105565580D02*
X162538780Y-105375104D01*
X162443542Y-105279866D01*
X162253066Y-105184628D01*
X162062590Y-105184628D01*
X180729257Y-109737961D02*
X180729257Y-107737961D01*
X179776876Y-108404628D02*
X179776876Y-109737961D01*
X179776876Y-108595104D02*
X179681638Y-108499866D01*
X179491161Y-108404628D01*
X179205447Y-108404628D01*
X179014971Y-108499866D01*
X178919733Y-108690342D01*
X178919733Y-109737961D01*
X178253066Y-108404628D02*
X177491161Y-108404628D01*
X177967352Y-107737961D02*
X177967352Y-109452247D01*
X177872114Y-109642723D01*
X177681638Y-109737961D01*
X177491161Y-109737961D01*
X176062590Y-109642723D02*
X176253066Y-109737961D01*
X176634019Y-109737961D01*
X176824495Y-109642723D01*
X176919733Y-109452247D01*
X176919733Y-108690342D01*
X176824495Y-108499866D01*
X176634019Y-108404628D01*
X176253066Y-108404628D01*
X176062590Y-108499866D01*
X175967352Y-108690342D01*
X175967352Y-108880819D01*
X176919733Y-109071295D01*
X175110209Y-109737961D02*
X175110209Y-108404628D01*
X175110209Y-108785580D02*
X175014971Y-108595104D01*
X174919733Y-108499866D01*
X174729257Y-108404628D01*
X174538780Y-108404628D01*
X174157828Y-108404628D02*
X173395923Y-108404628D01*
X173872114Y-109737961D02*
X173872114Y-108023676D01*
X173776876Y-107833200D01*
X173586400Y-107737961D01*
X173395923Y-107737961D01*
X171872114Y-109737961D02*
X171872114Y-108690342D01*
X171967352Y-108499866D01*
X172157828Y-108404628D01*
X172538780Y-108404628D01*
X172729257Y-108499866D01*
X171872114Y-109642723D02*
X172062590Y-109737961D01*
X172538780Y-109737961D01*
X172729257Y-109642723D01*
X172824495Y-109452247D01*
X172824495Y-109261771D01*
X172729257Y-109071295D01*
X172538780Y-108976057D01*
X172062590Y-108976057D01*
X171872114Y-108880819D01*
X170062590Y-109642723D02*
X170253066Y-109737961D01*
X170634019Y-109737961D01*
X170824495Y-109642723D01*
X170919733Y-109547485D01*
X171014971Y-109357009D01*
X171014971Y-108785580D01*
X170919733Y-108595104D01*
X170824495Y-108499866D01*
X170634019Y-108404628D01*
X170253066Y-108404628D01*
X170062590Y-108499866D01*
X168443542Y-109642723D02*
X168634019Y-109737961D01*
X169014971Y-109737961D01*
X169205447Y-109642723D01*
X169300685Y-109452247D01*
X169300685Y-108690342D01*
X169205447Y-108499866D01*
X169014971Y-108404628D01*
X168634019Y-108404628D01*
X168443542Y-108499866D01*
X168348304Y-108690342D01*
X168348304Y-108880819D01*
X169300685Y-109071295D01*
X166253066Y-107737961D02*
X165586400Y-109737961D01*
X164919733Y-107737961D01*
X163872114Y-107737961D02*
X163681638Y-107737961D01*
X163491161Y-107833200D01*
X163395923Y-107928438D01*
X163300685Y-108118914D01*
X163205447Y-108499866D01*
X163205447Y-108976057D01*
X163300685Y-109357009D01*
X163395923Y-109547485D01*
X163491161Y-109642723D01*
X163681638Y-109737961D01*
X163872114Y-109737961D01*
X164062590Y-109642723D01*
X164157828Y-109547485D01*
X164253066Y-109357009D01*
X164348304Y-108976057D01*
X164348304Y-108499866D01*
X164253066Y-108118914D01*
X164157828Y-107928438D01*
X164062590Y-107833200D01*
X163872114Y-107737961D01*
X162348304Y-109547485D02*
X162253066Y-109642723D01*
X162348304Y-109737961D01*
X162443542Y-109642723D01*
X162348304Y-109547485D01*
X162348304Y-109737961D01*
X161586400Y-107737961D02*
X160348304Y-107737961D01*
X161014971Y-108499866D01*
X160729257Y-108499866D01*
X160538780Y-108595104D01*
X160443542Y-108690342D01*
X160348304Y-108880819D01*
X160348304Y-109357009D01*
X160443542Y-109547485D01*
X160538780Y-109642723D01*
X160729257Y-109737961D01*
X161300685Y-109737961D01*
X161491161Y-109642723D01*
X161586400Y-109547485D01*
X121491333Y-88606380D02*
X120824666Y-88606380D01*
X121253238Y-89606380D01*
X186569314Y-80065619D02*
X186521695Y-80018000D01*
X186426457Y-79970380D01*
X186188361Y-79970380D01*
X186093123Y-80018000D01*
X186045504Y-80065619D01*
X185997885Y-80160857D01*
X185997885Y-80256095D01*
X186045504Y-80398952D01*
X186616933Y-80970380D01*
X185997885Y-80970380D01*
X110963104Y-88606380D02*
X111439295Y-88606380D01*
X111486914Y-89082571D01*
X111439295Y-89034952D01*
X111344057Y-88987333D01*
X111105961Y-88987333D01*
X111010723Y-89034952D01*
X110963104Y-89082571D01*
X110915485Y-89177809D01*
X110915485Y-89415904D01*
X110963104Y-89511142D01*
X111010723Y-89558761D01*
X111105961Y-89606380D01*
X111344057Y-89606380D01*
X111439295Y-89558761D01*
X111486914Y-89511142D01*
X114153580Y-87980780D02*
X114153580Y-86980780D01*
X113772628Y-86980780D01*
X113677390Y-87028400D01*
X113629771Y-87076019D01*
X113582152Y-87171257D01*
X113582152Y-87314114D01*
X113629771Y-87409352D01*
X113677390Y-87456971D01*
X113772628Y-87504590D01*
X114153580Y-87504590D01*
X113010723Y-87980780D02*
X113105961Y-87933161D01*
X113153580Y-87837923D01*
X113153580Y-86980780D01*
X112201200Y-87980780D02*
X112201200Y-87456971D01*
X112248819Y-87361733D01*
X112344057Y-87314114D01*
X112534533Y-87314114D01*
X112629771Y-87361733D01*
X112201200Y-87933161D02*
X112296438Y-87980780D01*
X112534533Y-87980780D01*
X112629771Y-87933161D01*
X112677390Y-87837923D01*
X112677390Y-87742685D01*
X112629771Y-87647447D01*
X112534533Y-87599828D01*
X112296438Y-87599828D01*
X112201200Y-87552209D01*
X111820247Y-87314114D02*
X111582152Y-87980780D01*
X111344057Y-87314114D02*
X111582152Y-87980780D01*
X111677390Y-88218876D01*
X111725009Y-88266495D01*
X111820247Y-88314114D01*
X110582152Y-87933161D02*
X110677390Y-87980780D01*
X110867866Y-87980780D01*
X110963104Y-87933161D01*
X111010723Y-87837923D01*
X111010723Y-87456971D01*
X110963104Y-87361733D01*
X110867866Y-87314114D01*
X110677390Y-87314114D01*
X110582152Y-87361733D01*
X110534533Y-87456971D01*
X110534533Y-87552209D01*
X111010723Y-87647447D01*
X110105961Y-87980780D02*
X110105961Y-87314114D01*
X110105961Y-87504590D02*
X110058342Y-87409352D01*
X110010723Y-87361733D01*
X109915485Y-87314114D01*
X109820247Y-87314114D01*
X108820247Y-86980780D02*
X108201200Y-86980780D01*
X108534533Y-87361733D01*
X108391676Y-87361733D01*
X108296438Y-87409352D01*
X108248819Y-87456971D01*
X108201200Y-87552209D01*
X108201200Y-87790304D01*
X108248819Y-87885542D01*
X108296438Y-87933161D01*
X108391676Y-87980780D01*
X108677390Y-87980780D01*
X108772628Y-87933161D01*
X108820247Y-87885542D01*
X96399314Y-88701619D02*
X96351695Y-88654000D01*
X96256457Y-88606380D01*
X96018361Y-88606380D01*
X95923123Y-88654000D01*
X95875504Y-88701619D01*
X95827885Y-88796857D01*
X95827885Y-88892095D01*
X95875504Y-89034952D01*
X96446933Y-89606380D01*
X95827885Y-89606380D01*
X133308457Y-87940961D02*
X133165600Y-87988580D01*
X132927504Y-87988580D01*
X132832266Y-87940961D01*
X132784647Y-87893342D01*
X132737028Y-87798104D01*
X132737028Y-87702866D01*
X132784647Y-87607628D01*
X132832266Y-87560009D01*
X132927504Y-87512390D01*
X133117980Y-87464771D01*
X133213219Y-87417152D01*
X133260838Y-87369533D01*
X133308457Y-87274295D01*
X133308457Y-87179057D01*
X133260838Y-87083819D01*
X133213219Y-87036200D01*
X133117980Y-86988580D01*
X132879885Y-86988580D01*
X132737028Y-87036200D01*
X132308457Y-87988580D02*
X132308457Y-87321914D01*
X132308457Y-86988580D02*
X132356076Y-87036200D01*
X132308457Y-87083819D01*
X132260838Y-87036200D01*
X132308457Y-86988580D01*
X132308457Y-87083819D01*
X131403695Y-87321914D02*
X131403695Y-88131438D01*
X131451314Y-88226676D01*
X131498933Y-88274295D01*
X131594171Y-88321914D01*
X131737028Y-88321914D01*
X131832266Y-88274295D01*
X131403695Y-87940961D02*
X131498933Y-87988580D01*
X131689409Y-87988580D01*
X131784647Y-87940961D01*
X131832266Y-87893342D01*
X131879885Y-87798104D01*
X131879885Y-87512390D01*
X131832266Y-87417152D01*
X131784647Y-87369533D01*
X131689409Y-87321914D01*
X131498933Y-87321914D01*
X131403695Y-87369533D01*
X130927504Y-87321914D02*
X130927504Y-87988580D01*
X130927504Y-87417152D02*
X130879885Y-87369533D01*
X130784647Y-87321914D01*
X130641790Y-87321914D01*
X130546552Y-87369533D01*
X130498933Y-87464771D01*
X130498933Y-87988580D01*
X129594171Y-87988580D02*
X129594171Y-87464771D01*
X129641790Y-87369533D01*
X129737028Y-87321914D01*
X129927504Y-87321914D01*
X130022742Y-87369533D01*
X129594171Y-87940961D02*
X129689409Y-87988580D01*
X129927504Y-87988580D01*
X130022742Y-87940961D01*
X130070361Y-87845723D01*
X130070361Y-87750485D01*
X130022742Y-87655247D01*
X129927504Y-87607628D01*
X129689409Y-87607628D01*
X129594171Y-87560009D01*
X128975123Y-87988580D02*
X129070361Y-87940961D01*
X129117980Y-87845723D01*
X129117980Y-86988580D01*
X131927504Y-88646200D02*
X132022742Y-88598580D01*
X132165600Y-88598580D01*
X132308457Y-88646200D01*
X132403695Y-88741438D01*
X132451314Y-88836676D01*
X132498933Y-89027152D01*
X132498933Y-89170009D01*
X132451314Y-89360485D01*
X132403695Y-89455723D01*
X132308457Y-89550961D01*
X132165600Y-89598580D01*
X132070361Y-89598580D01*
X131927504Y-89550961D01*
X131879885Y-89503342D01*
X131879885Y-89170009D01*
X132070361Y-89170009D01*
X131451314Y-89598580D02*
X131451314Y-88598580D01*
X130879885Y-89598580D01*
X130879885Y-88598580D01*
X130403695Y-89598580D02*
X130403695Y-88598580D01*
X130165600Y-88598580D01*
X130022742Y-88646200D01*
X129927504Y-88741438D01*
X129879885Y-88836676D01*
X129832266Y-89027152D01*
X129832266Y-89170009D01*
X129879885Y-89360485D01*
X129927504Y-89455723D01*
X130022742Y-89550961D01*
X130165600Y-89598580D01*
X130403695Y-89598580D01*
X115989123Y-72401180D02*
X116179600Y-72401180D01*
X116274838Y-72448800D01*
X116322457Y-72496419D01*
X116417695Y-72639276D01*
X116465314Y-72829752D01*
X116465314Y-73210704D01*
X116417695Y-73305942D01*
X116370076Y-73353561D01*
X116274838Y-73401180D01*
X116084361Y-73401180D01*
X115989123Y-73353561D01*
X115941504Y-73305942D01*
X115893885Y-73210704D01*
X115893885Y-72972609D01*
X115941504Y-72877371D01*
X115989123Y-72829752D01*
X116084361Y-72782133D01*
X116274838Y-72782133D01*
X116370076Y-72829752D01*
X116417695Y-72877371D01*
X116465314Y-72972609D01*
X101526933Y-72401180D02*
X100907885Y-72401180D01*
X101241219Y-72782133D01*
X101098361Y-72782133D01*
X101003123Y-72829752D01*
X100955504Y-72877371D01*
X100907885Y-72972609D01*
X100907885Y-73210704D01*
X100955504Y-73305942D01*
X101003123Y-73353561D01*
X101098361Y-73401180D01*
X101384076Y-73401180D01*
X101479314Y-73353561D01*
X101526933Y-73305942D01*
X166179523Y-79970380D02*
X166370000Y-79970380D01*
X166465238Y-80018000D01*
X166512857Y-80065619D01*
X166608095Y-80208476D01*
X166655714Y-80398952D01*
X166655714Y-80779904D01*
X166608095Y-80875142D01*
X166560476Y-80922761D01*
X166465238Y-80970380D01*
X166274761Y-80970380D01*
X166179523Y-80922761D01*
X166131904Y-80875142D01*
X166084285Y-80779904D01*
X166084285Y-80541809D01*
X166131904Y-80446571D01*
X166179523Y-80398952D01*
X166274761Y-80351333D01*
X166465238Y-80351333D01*
X166560476Y-80398952D01*
X166608095Y-80446571D01*
X166655714Y-80541809D01*
X178761733Y-70153161D02*
X178618876Y-70200780D01*
X178380780Y-70200780D01*
X178285542Y-70153161D01*
X178237923Y-70105542D01*
X178190304Y-70010304D01*
X178190304Y-69915066D01*
X178237923Y-69819828D01*
X178285542Y-69772209D01*
X178380780Y-69724590D01*
X178571257Y-69676971D01*
X178666495Y-69629352D01*
X178714114Y-69581733D01*
X178761733Y-69486495D01*
X178761733Y-69391257D01*
X178714114Y-69296019D01*
X178666495Y-69248400D01*
X178571257Y-69200780D01*
X178333161Y-69200780D01*
X178190304Y-69248400D01*
X177761733Y-69534114D02*
X177761733Y-70534114D01*
X177761733Y-69581733D02*
X177666495Y-69534114D01*
X177476019Y-69534114D01*
X177380780Y-69581733D01*
X177333161Y-69629352D01*
X177285542Y-69724590D01*
X177285542Y-70010304D01*
X177333161Y-70105542D01*
X177380780Y-70153161D01*
X177476019Y-70200780D01*
X177666495Y-70200780D01*
X177761733Y-70153161D01*
X176428400Y-70200780D02*
X176428400Y-69676971D01*
X176476019Y-69581733D01*
X176571257Y-69534114D01*
X176761733Y-69534114D01*
X176856971Y-69581733D01*
X176428400Y-70153161D02*
X176523638Y-70200780D01*
X176761733Y-70200780D01*
X176856971Y-70153161D01*
X176904590Y-70057923D01*
X176904590Y-69962685D01*
X176856971Y-69867447D01*
X176761733Y-69819828D01*
X176523638Y-69819828D01*
X176428400Y-69772209D01*
X175952209Y-70200780D02*
X175952209Y-69534114D01*
X175952209Y-69724590D02*
X175904590Y-69629352D01*
X175856971Y-69581733D01*
X175761733Y-69534114D01*
X175666495Y-69534114D01*
X174952209Y-70153161D02*
X175047447Y-70200780D01*
X175237923Y-70200780D01*
X175333161Y-70153161D01*
X175380780Y-70057923D01*
X175380780Y-69676971D01*
X175333161Y-69581733D01*
X175237923Y-69534114D01*
X175047447Y-69534114D01*
X174952209Y-69581733D01*
X174904590Y-69676971D01*
X174904590Y-69772209D01*
X175380780Y-69867447D01*
X174523638Y-70153161D02*
X174428400Y-70200780D01*
X174237923Y-70200780D01*
X174142685Y-70153161D01*
X174095066Y-70057923D01*
X174095066Y-70010304D01*
X174142685Y-69915066D01*
X174237923Y-69867447D01*
X174380780Y-69867447D01*
X174476019Y-69819828D01*
X174523638Y-69724590D01*
X174523638Y-69676971D01*
X174476019Y-69581733D01*
X174380780Y-69534114D01*
X174237923Y-69534114D01*
X174142685Y-69581733D01*
X198434057Y-80930561D02*
X198291200Y-80978180D01*
X198053104Y-80978180D01*
X197957866Y-80930561D01*
X197910247Y-80882942D01*
X197862628Y-80787704D01*
X197862628Y-80692466D01*
X197910247Y-80597228D01*
X197957866Y-80549609D01*
X198053104Y-80501990D01*
X198243580Y-80454371D01*
X198338819Y-80406752D01*
X198386438Y-80359133D01*
X198434057Y-80263895D01*
X198434057Y-80168657D01*
X198386438Y-80073419D01*
X198338819Y-80025800D01*
X198243580Y-79978180D01*
X198005485Y-79978180D01*
X197862628Y-80025800D01*
X197434057Y-80978180D02*
X197434057Y-80311514D01*
X197434057Y-79978180D02*
X197481676Y-80025800D01*
X197434057Y-80073419D01*
X197386438Y-80025800D01*
X197434057Y-79978180D01*
X197434057Y-80073419D01*
X196529295Y-80311514D02*
X196529295Y-81121038D01*
X196576914Y-81216276D01*
X196624533Y-81263895D01*
X196719771Y-81311514D01*
X196862628Y-81311514D01*
X196957866Y-81263895D01*
X196529295Y-80930561D02*
X196624533Y-80978180D01*
X196815009Y-80978180D01*
X196910247Y-80930561D01*
X196957866Y-80882942D01*
X197005485Y-80787704D01*
X197005485Y-80501990D01*
X196957866Y-80406752D01*
X196910247Y-80359133D01*
X196815009Y-80311514D01*
X196624533Y-80311514D01*
X196529295Y-80359133D01*
X196053104Y-80311514D02*
X196053104Y-80978180D01*
X196053104Y-80406752D02*
X196005485Y-80359133D01*
X195910247Y-80311514D01*
X195767390Y-80311514D01*
X195672152Y-80359133D01*
X195624533Y-80454371D01*
X195624533Y-80978180D01*
X194719771Y-80978180D02*
X194719771Y-80454371D01*
X194767390Y-80359133D01*
X194862628Y-80311514D01*
X195053104Y-80311514D01*
X195148342Y-80359133D01*
X194719771Y-80930561D02*
X194815009Y-80978180D01*
X195053104Y-80978180D01*
X195148342Y-80930561D01*
X195195961Y-80835323D01*
X195195961Y-80740085D01*
X195148342Y-80644847D01*
X195053104Y-80597228D01*
X194815009Y-80597228D01*
X194719771Y-80549609D01*
X194100723Y-80978180D02*
X194195961Y-80930561D01*
X194243580Y-80835323D01*
X194243580Y-79978180D01*
X197053104Y-81635800D02*
X197148342Y-81588180D01*
X197291200Y-81588180D01*
X197434057Y-81635800D01*
X197529295Y-81731038D01*
X197576914Y-81826276D01*
X197624533Y-82016752D01*
X197624533Y-82159609D01*
X197576914Y-82350085D01*
X197529295Y-82445323D01*
X197434057Y-82540561D01*
X197291200Y-82588180D01*
X197195961Y-82588180D01*
X197053104Y-82540561D01*
X197005485Y-82492942D01*
X197005485Y-82159609D01*
X197195961Y-82159609D01*
X196576914Y-82588180D02*
X196576914Y-81588180D01*
X196005485Y-82588180D01*
X196005485Y-81588180D01*
X195529295Y-82588180D02*
X195529295Y-81588180D01*
X195291200Y-81588180D01*
X195148342Y-81635800D01*
X195053104Y-81731038D01*
X195005485Y-81826276D01*
X194957866Y-82016752D01*
X194957866Y-82159609D01*
X195005485Y-82350085D01*
X195053104Y-82445323D01*
X195148342Y-82540561D01*
X195291200Y-82588180D01*
X195529295Y-82588180D01*
X156508438Y-80398952D02*
X156603676Y-80351333D01*
X156651295Y-80303714D01*
X156698914Y-80208476D01*
X156698914Y-80160857D01*
X156651295Y-80065619D01*
X156603676Y-80018000D01*
X156508438Y-79970380D01*
X156317961Y-79970380D01*
X156222723Y-80018000D01*
X156175104Y-80065619D01*
X156127485Y-80160857D01*
X156127485Y-80208476D01*
X156175104Y-80303714D01*
X156222723Y-80351333D01*
X156317961Y-80398952D01*
X156508438Y-80398952D01*
X156603676Y-80446571D01*
X156651295Y-80494190D01*
X156698914Y-80589428D01*
X156698914Y-80779904D01*
X156651295Y-80875142D01*
X156603676Y-80922761D01*
X156508438Y-80970380D01*
X156317961Y-80970380D01*
X156222723Y-80922761D01*
X156175104Y-80875142D01*
X156127485Y-80779904D01*
X156127485Y-80589428D01*
X156175104Y-80494190D01*
X156222723Y-80446571D01*
X156317961Y-80398952D01*
X133359257Y-120249761D02*
X133216400Y-120297380D01*
X132978304Y-120297380D01*
X132883066Y-120249761D01*
X132835447Y-120202142D01*
X132787828Y-120106904D01*
X132787828Y-120011666D01*
X132835447Y-119916428D01*
X132883066Y-119868809D01*
X132978304Y-119821190D01*
X133168780Y-119773571D01*
X133264019Y-119725952D01*
X133311638Y-119678333D01*
X133359257Y-119583095D01*
X133359257Y-119487857D01*
X133311638Y-119392619D01*
X133264019Y-119345000D01*
X133168780Y-119297380D01*
X132930685Y-119297380D01*
X132787828Y-119345000D01*
X132359257Y-120297380D02*
X132359257Y-119630714D01*
X132359257Y-119297380D02*
X132406876Y-119345000D01*
X132359257Y-119392619D01*
X132311638Y-119345000D01*
X132359257Y-119297380D01*
X132359257Y-119392619D01*
X131454495Y-119630714D02*
X131454495Y-120440238D01*
X131502114Y-120535476D01*
X131549733Y-120583095D01*
X131644971Y-120630714D01*
X131787828Y-120630714D01*
X131883066Y-120583095D01*
X131454495Y-120249761D02*
X131549733Y-120297380D01*
X131740209Y-120297380D01*
X131835447Y-120249761D01*
X131883066Y-120202142D01*
X131930685Y-120106904D01*
X131930685Y-119821190D01*
X131883066Y-119725952D01*
X131835447Y-119678333D01*
X131740209Y-119630714D01*
X131549733Y-119630714D01*
X131454495Y-119678333D01*
X130978304Y-119630714D02*
X130978304Y-120297380D01*
X130978304Y-119725952D02*
X130930685Y-119678333D01*
X130835447Y-119630714D01*
X130692590Y-119630714D01*
X130597352Y-119678333D01*
X130549733Y-119773571D01*
X130549733Y-120297380D01*
X129644971Y-120297380D02*
X129644971Y-119773571D01*
X129692590Y-119678333D01*
X129787828Y-119630714D01*
X129978304Y-119630714D01*
X130073542Y-119678333D01*
X129644971Y-120249761D02*
X129740209Y-120297380D01*
X129978304Y-120297380D01*
X130073542Y-120249761D01*
X130121161Y-120154523D01*
X130121161Y-120059285D01*
X130073542Y-119964047D01*
X129978304Y-119916428D01*
X129740209Y-119916428D01*
X129644971Y-119868809D01*
X129025923Y-120297380D02*
X129121161Y-120249761D01*
X129168780Y-120154523D01*
X129168780Y-119297380D01*
X131978304Y-120955000D02*
X132073542Y-120907380D01*
X132216400Y-120907380D01*
X132359257Y-120955000D01*
X132454495Y-121050238D01*
X132502114Y-121145476D01*
X132549733Y-121335952D01*
X132549733Y-121478809D01*
X132502114Y-121669285D01*
X132454495Y-121764523D01*
X132359257Y-121859761D01*
X132216400Y-121907380D01*
X132121161Y-121907380D01*
X131978304Y-121859761D01*
X131930685Y-121812142D01*
X131930685Y-121478809D01*
X132121161Y-121478809D01*
X131502114Y-121907380D02*
X131502114Y-120907380D01*
X130930685Y-121907380D01*
X130930685Y-120907380D01*
X130454495Y-121907380D02*
X130454495Y-120907380D01*
X130216400Y-120907380D01*
X130073542Y-120955000D01*
X129978304Y-121050238D01*
X129930685Y-121145476D01*
X129883066Y-121335952D01*
X129883066Y-121478809D01*
X129930685Y-121669285D01*
X129978304Y-121764523D01*
X130073542Y-121859761D01*
X130216400Y-121907380D01*
X130454495Y-121907380D01*
X105981523Y-72785314D02*
X105981523Y-73451980D01*
X106219619Y-72404361D02*
X106457714Y-73118647D01*
X105838666Y-73118647D01*
X90849485Y-89606380D02*
X91420914Y-89606380D01*
X91135200Y-89606380D02*
X91135200Y-88606380D01*
X91230438Y-88749238D01*
X91325676Y-88844476D01*
X91420914Y-88892095D01*
X207964019Y-100341180D02*
X207773542Y-100341180D01*
X207678304Y-100388800D01*
X207583066Y-100484038D01*
X207535447Y-100674514D01*
X207535447Y-101007847D01*
X207583066Y-101198323D01*
X207678304Y-101293561D01*
X207773542Y-101341180D01*
X207964019Y-101341180D01*
X208059257Y-101293561D01*
X208154495Y-101198323D01*
X208202114Y-101007847D01*
X208202114Y-100674514D01*
X208154495Y-100484038D01*
X208059257Y-100388800D01*
X207964019Y-100341180D01*
X207106876Y-100674514D02*
X207106876Y-101341180D01*
X207106876Y-100769752D02*
X207059257Y-100722133D01*
X206964019Y-100674514D01*
X206821161Y-100674514D01*
X206725923Y-100722133D01*
X206678304Y-100817371D01*
X206678304Y-101341180D01*
X114153580Y-120289580D02*
X114153580Y-119289580D01*
X113772628Y-119289580D01*
X113677390Y-119337200D01*
X113629771Y-119384819D01*
X113582152Y-119480057D01*
X113582152Y-119622914D01*
X113629771Y-119718152D01*
X113677390Y-119765771D01*
X113772628Y-119813390D01*
X114153580Y-119813390D01*
X113010723Y-120289580D02*
X113105961Y-120241961D01*
X113153580Y-120146723D01*
X113153580Y-119289580D01*
X112201200Y-120289580D02*
X112201200Y-119765771D01*
X112248819Y-119670533D01*
X112344057Y-119622914D01*
X112534533Y-119622914D01*
X112629771Y-119670533D01*
X112201200Y-120241961D02*
X112296438Y-120289580D01*
X112534533Y-120289580D01*
X112629771Y-120241961D01*
X112677390Y-120146723D01*
X112677390Y-120051485D01*
X112629771Y-119956247D01*
X112534533Y-119908628D01*
X112296438Y-119908628D01*
X112201200Y-119861009D01*
X111820247Y-119622914D02*
X111582152Y-120289580D01*
X111344057Y-119622914D02*
X111582152Y-120289580D01*
X111677390Y-120527676D01*
X111725009Y-120575295D01*
X111820247Y-120622914D01*
X110582152Y-120241961D02*
X110677390Y-120289580D01*
X110867866Y-120289580D01*
X110963104Y-120241961D01*
X111010723Y-120146723D01*
X111010723Y-119765771D01*
X110963104Y-119670533D01*
X110867866Y-119622914D01*
X110677390Y-119622914D01*
X110582152Y-119670533D01*
X110534533Y-119765771D01*
X110534533Y-119861009D01*
X111010723Y-119956247D01*
X110105961Y-120289580D02*
X110105961Y-119622914D01*
X110105961Y-119813390D02*
X110058342Y-119718152D01*
X110010723Y-119670533D01*
X109915485Y-119622914D01*
X109820247Y-119622914D01*
X108201200Y-120289580D02*
X108772628Y-120289580D01*
X108486914Y-120289580D02*
X108486914Y-119289580D01*
X108582152Y-119432438D01*
X108677390Y-119527676D01*
X108772628Y-119575295D01*
X160127580Y-125521980D02*
X160127580Y-124521980D01*
X159746628Y-124521980D01*
X159651390Y-124569600D01*
X159603771Y-124617219D01*
X159556152Y-124712457D01*
X159556152Y-124855314D01*
X159603771Y-124950552D01*
X159651390Y-124998171D01*
X159746628Y-125045790D01*
X160127580Y-125045790D01*
X158984723Y-125521980D02*
X159079961Y-125474361D01*
X159127580Y-125379123D01*
X159127580Y-124521980D01*
X158175200Y-125521980D02*
X158175200Y-124998171D01*
X158222819Y-124902933D01*
X158318057Y-124855314D01*
X158508533Y-124855314D01*
X158603771Y-124902933D01*
X158175200Y-125474361D02*
X158270438Y-125521980D01*
X158508533Y-125521980D01*
X158603771Y-125474361D01*
X158651390Y-125379123D01*
X158651390Y-125283885D01*
X158603771Y-125188647D01*
X158508533Y-125141028D01*
X158270438Y-125141028D01*
X158175200Y-125093409D01*
X157794247Y-124855314D02*
X157556152Y-125521980D01*
X157318057Y-124855314D02*
X157556152Y-125521980D01*
X157651390Y-125760076D01*
X157699009Y-125807695D01*
X157794247Y-125855314D01*
X156556152Y-125474361D02*
X156651390Y-125521980D01*
X156841866Y-125521980D01*
X156937104Y-125474361D01*
X156984723Y-125379123D01*
X156984723Y-124998171D01*
X156937104Y-124902933D01*
X156841866Y-124855314D01*
X156651390Y-124855314D01*
X156556152Y-124902933D01*
X156508533Y-124998171D01*
X156508533Y-125093409D01*
X156984723Y-125188647D01*
X156079961Y-125521980D02*
X156079961Y-124855314D01*
X156079961Y-125045790D02*
X156032342Y-124950552D01*
X155984723Y-124902933D01*
X155889485Y-124855314D01*
X155794247Y-124855314D01*
X154175200Y-125521980D02*
X154746628Y-125521980D01*
X154460914Y-125521980D02*
X154460914Y-124521980D01*
X154556152Y-124664838D01*
X154651390Y-124760076D01*
X154746628Y-124807695D01*
X199450247Y-112923580D02*
X200021676Y-112923580D01*
X199735961Y-112923580D02*
X199735961Y-111923580D01*
X199831200Y-112066438D01*
X199926438Y-112161676D01*
X200021676Y-112209295D01*
X199069295Y-112018819D02*
X199021676Y-111971200D01*
X198926438Y-111923580D01*
X198688342Y-111923580D01*
X198593104Y-111971200D01*
X198545485Y-112018819D01*
X198497866Y-112114057D01*
X198497866Y-112209295D01*
X198545485Y-112352152D01*
X199116914Y-112923580D01*
X198497866Y-112923580D01*
X198212152Y-111923580D02*
X197878819Y-112923580D01*
X197545485Y-111923580D01*
X208432304Y-95359600D02*
X208527542Y-95311980D01*
X208670400Y-95311980D01*
X208813257Y-95359600D01*
X208908495Y-95454838D01*
X208956114Y-95550076D01*
X209003733Y-95740552D01*
X209003733Y-95883409D01*
X208956114Y-96073885D01*
X208908495Y-96169123D01*
X208813257Y-96264361D01*
X208670400Y-96311980D01*
X208575161Y-96311980D01*
X208432304Y-96264361D01*
X208384685Y-96216742D01*
X208384685Y-95883409D01*
X208575161Y-95883409D01*
X207956114Y-96311980D02*
X207956114Y-95311980D01*
X207384685Y-96311980D01*
X207384685Y-95311980D01*
X206908495Y-96311980D02*
X206908495Y-95311980D01*
X206670400Y-95311980D01*
X206527542Y-95359600D01*
X206432304Y-95454838D01*
X206384685Y-95550076D01*
X206337066Y-95740552D01*
X206337066Y-95883409D01*
X206384685Y-96073885D01*
X206432304Y-96169123D01*
X206527542Y-96264361D01*
X206670400Y-96311980D01*
X206908495Y-96311980D01*
X90798685Y-105913180D02*
X91370114Y-105913180D01*
X91084400Y-105913180D02*
X91084400Y-104913180D01*
X91179638Y-105056038D01*
X91274876Y-105151276D01*
X91370114Y-105198895D01*
X114153580Y-71775580D02*
X114153580Y-70775580D01*
X113772628Y-70775580D01*
X113677390Y-70823200D01*
X113629771Y-70870819D01*
X113582152Y-70966057D01*
X113582152Y-71108914D01*
X113629771Y-71204152D01*
X113677390Y-71251771D01*
X113772628Y-71299390D01*
X114153580Y-71299390D01*
X113010723Y-71775580D02*
X113105961Y-71727961D01*
X113153580Y-71632723D01*
X113153580Y-70775580D01*
X112201200Y-71775580D02*
X112201200Y-71251771D01*
X112248819Y-71156533D01*
X112344057Y-71108914D01*
X112534533Y-71108914D01*
X112629771Y-71156533D01*
X112201200Y-71727961D02*
X112296438Y-71775580D01*
X112534533Y-71775580D01*
X112629771Y-71727961D01*
X112677390Y-71632723D01*
X112677390Y-71537485D01*
X112629771Y-71442247D01*
X112534533Y-71394628D01*
X112296438Y-71394628D01*
X112201200Y-71347009D01*
X111820247Y-71108914D02*
X111582152Y-71775580D01*
X111344057Y-71108914D02*
X111582152Y-71775580D01*
X111677390Y-72013676D01*
X111725009Y-72061295D01*
X111820247Y-72108914D01*
X110582152Y-71727961D02*
X110677390Y-71775580D01*
X110867866Y-71775580D01*
X110963104Y-71727961D01*
X111010723Y-71632723D01*
X111010723Y-71251771D01*
X110963104Y-71156533D01*
X110867866Y-71108914D01*
X110677390Y-71108914D01*
X110582152Y-71156533D01*
X110534533Y-71251771D01*
X110534533Y-71347009D01*
X111010723Y-71442247D01*
X110105961Y-71775580D02*
X110105961Y-71108914D01*
X110105961Y-71299390D02*
X110058342Y-71204152D01*
X110010723Y-71156533D01*
X109915485Y-71108914D01*
X109820247Y-71108914D01*
X108296438Y-71108914D02*
X108296438Y-71775580D01*
X108534533Y-70727961D02*
X108772628Y-71442247D01*
X108153580Y-71442247D01*
X126282438Y-121343752D02*
X126377676Y-121296133D01*
X126425295Y-121248514D01*
X126472914Y-121153276D01*
X126472914Y-121105657D01*
X126425295Y-121010419D01*
X126377676Y-120962800D01*
X126282438Y-120915180D01*
X126091961Y-120915180D01*
X125996723Y-120962800D01*
X125949104Y-121010419D01*
X125901485Y-121105657D01*
X125901485Y-121153276D01*
X125949104Y-121248514D01*
X125996723Y-121296133D01*
X126091961Y-121343752D01*
X126282438Y-121343752D01*
X126377676Y-121391371D01*
X126425295Y-121438990D01*
X126472914Y-121534228D01*
X126472914Y-121724704D01*
X126425295Y-121819942D01*
X126377676Y-121867561D01*
X126282438Y-121915180D01*
X126091961Y-121915180D01*
X125996723Y-121867561D01*
X125949104Y-121819942D01*
X125901485Y-121724704D01*
X125901485Y-121534228D01*
X125949104Y-121438990D01*
X125996723Y-121391371D01*
X126091961Y-121343752D01*
X126333238Y-72829752D02*
X126428476Y-72782133D01*
X126476095Y-72734514D01*
X126523714Y-72639276D01*
X126523714Y-72591657D01*
X126476095Y-72496419D01*
X126428476Y-72448800D01*
X126333238Y-72401180D01*
X126142761Y-72401180D01*
X126047523Y-72448800D01*
X125999904Y-72496419D01*
X125952285Y-72591657D01*
X125952285Y-72639276D01*
X125999904Y-72734514D01*
X126047523Y-72782133D01*
X126142761Y-72829752D01*
X126333238Y-72829752D01*
X126428476Y-72877371D01*
X126476095Y-72924990D01*
X126523714Y-73020228D01*
X126523714Y-73210704D01*
X126476095Y-73305942D01*
X126428476Y-73353561D01*
X126333238Y-73401180D01*
X126142761Y-73401180D01*
X126047523Y-73353561D01*
X125999904Y-73305942D01*
X125952285Y-73210704D01*
X125952285Y-73020228D01*
X125999904Y-72924990D01*
X126047523Y-72877371D01*
X126142761Y-72829752D01*
X96450114Y-72496419D02*
X96402495Y-72448800D01*
X96307257Y-72401180D01*
X96069161Y-72401180D01*
X95973923Y-72448800D01*
X95926304Y-72496419D01*
X95878685Y-72591657D01*
X95878685Y-72686895D01*
X95926304Y-72829752D01*
X96497733Y-73401180D01*
X95878685Y-73401180D01*
X176136323Y-80354514D02*
X176136323Y-81021180D01*
X176374419Y-79973561D02*
X176612514Y-80687847D01*
X175993466Y-80687847D01*
X90900285Y-73401180D02*
X91471714Y-73401180D01*
X91186000Y-73401180D02*
X91186000Y-72401180D01*
X91281238Y-72544038D01*
X91376476Y-72639276D01*
X91471714Y-72686895D01*
X96348514Y-105008419D02*
X96300895Y-104960800D01*
X96205657Y-104913180D01*
X95967561Y-104913180D01*
X95872323Y-104960800D01*
X95824704Y-105008419D01*
X95777085Y-105103657D01*
X95777085Y-105198895D01*
X95824704Y-105341752D01*
X96396133Y-105913180D01*
X95777085Y-105913180D01*
X160229180Y-112771180D02*
X160229180Y-111771180D01*
X159848228Y-111771180D01*
X159752990Y-111818800D01*
X159705371Y-111866419D01*
X159657752Y-111961657D01*
X159657752Y-112104514D01*
X159705371Y-112199752D01*
X159752990Y-112247371D01*
X159848228Y-112294990D01*
X160229180Y-112294990D01*
X159086323Y-112771180D02*
X159181561Y-112723561D01*
X159229180Y-112628323D01*
X159229180Y-111771180D01*
X158276800Y-112771180D02*
X158276800Y-112247371D01*
X158324419Y-112152133D01*
X158419657Y-112104514D01*
X158610133Y-112104514D01*
X158705371Y-112152133D01*
X158276800Y-112723561D02*
X158372038Y-112771180D01*
X158610133Y-112771180D01*
X158705371Y-112723561D01*
X158752990Y-112628323D01*
X158752990Y-112533085D01*
X158705371Y-112437847D01*
X158610133Y-112390228D01*
X158372038Y-112390228D01*
X158276800Y-112342609D01*
X157895847Y-112104514D02*
X157657752Y-112771180D01*
X157419657Y-112104514D02*
X157657752Y-112771180D01*
X157752990Y-113009276D01*
X157800609Y-113056895D01*
X157895847Y-113104514D01*
X156657752Y-112723561D02*
X156752990Y-112771180D01*
X156943466Y-112771180D01*
X157038704Y-112723561D01*
X157086323Y-112628323D01*
X157086323Y-112247371D01*
X157038704Y-112152133D01*
X156943466Y-112104514D01*
X156752990Y-112104514D01*
X156657752Y-112152133D01*
X156610133Y-112247371D01*
X156610133Y-112342609D01*
X157086323Y-112437847D01*
X156181561Y-112771180D02*
X156181561Y-112104514D01*
X156181561Y-112294990D02*
X156133942Y-112199752D01*
X156086323Y-112152133D01*
X155991085Y-112104514D01*
X155895847Y-112104514D01*
X154848228Y-111866419D02*
X154800609Y-111818800D01*
X154705371Y-111771180D01*
X154467276Y-111771180D01*
X154372038Y-111818800D01*
X154324419Y-111866419D01*
X154276800Y-111961657D01*
X154276800Y-112056895D01*
X154324419Y-112199752D01*
X154895847Y-112771180D01*
X154276800Y-112771180D01*
X101476133Y-120915180D02*
X100857085Y-120915180D01*
X101190419Y-121296133D01*
X101047561Y-121296133D01*
X100952323Y-121343752D01*
X100904704Y-121391371D01*
X100857085Y-121486609D01*
X100857085Y-121724704D01*
X100904704Y-121819942D01*
X100952323Y-121867561D01*
X101047561Y-121915180D01*
X101333276Y-121915180D01*
X101428514Y-121867561D01*
X101476133Y-121819942D01*
D11*
X143154400Y-105323098D02*
X143154400Y-93867698D01*
X153568400Y-93867698D02*
X153568400Y-105323098D01*
X143154400Y-93867698D02*
X153568400Y-93867698D01*
X153568400Y-105323098D02*
X143154400Y-105323098D01*
D12*
X142900400Y-99696099D02*
G75*
G03*
X142900400Y-99696099I-381000J0D01*
G01*
D13*
X181218700Y-116950400D02*
X181218700Y-118850400D01*
X181218700Y-122850400D02*
X181218700Y-131650400D01*
X190418700Y-116950400D02*
X187818700Y-116950400D01*
X183918700Y-116950400D02*
X181218700Y-116950400D01*
X189568700Y-116750400D02*
X190618700Y-116750400D01*
X190418700Y-131650400D02*
X190418700Y-116950400D01*
X190618700Y-117800400D02*
X190618700Y-116750400D01*
X181218700Y-131650400D02*
X190418700Y-131650400D01*
X153758900Y-70789600D02*
X198996300Y-70789600D01*
X198996300Y-79222400D02*
X153758900Y-79222400D01*
X153758900Y-79222400D02*
X153758900Y-70789600D01*
X198996300Y-70789600D02*
X198996300Y-79222400D01*
X153504900Y-75006000D02*
G75*
G03*
X153504900Y-75006000I-381000J0D01*
G01*
X195432600Y-94529600D02*
X205652600Y-94529600D01*
X195432600Y-97189600D02*
X205652600Y-97189600D01*
X194162600Y-94529600D02*
X192832600Y-94529600D01*
X195432600Y-94529600D02*
X195432600Y-97189600D01*
X192832600Y-94529600D02*
X192832600Y-95859600D01*
X205652600Y-94529600D02*
X205652600Y-97189600D01*
X199288400Y-99609600D02*
X197958400Y-99609600D01*
X200558400Y-99609600D02*
X200558400Y-102269600D01*
X200558400Y-102269600D02*
X205698400Y-102269600D01*
X197958400Y-99609600D02*
X197958400Y-100939600D01*
X200558400Y-99609600D02*
X205698400Y-99609600D01*
X205698400Y-99609600D02*
X205698400Y-102269600D01*
X42678200Y-80207850D02*
X67925800Y-80207850D01*
X67925800Y-80207850D02*
X67925800Y-99054650D01*
X67925800Y-99054650D02*
X42678200Y-99054650D01*
X42678200Y-99054650D02*
X42678200Y-80207850D01*
X70084800Y-97251250D02*
G75*
G03*
X70084800Y-97251250I-381000J0D01*
G01*
X133769100Y-74040800D02*
X133769100Y-82473600D01*
X88531700Y-74040800D02*
X133769100Y-74040800D01*
X133769100Y-82473600D02*
X88531700Y-82473600D01*
X88531700Y-82473600D02*
X88531700Y-74040800D01*
X88277700Y-78257200D02*
G75*
G03*
X88277700Y-78257200I-381000J0D01*
G01*
X195755100Y-116950400D02*
X193055100Y-116950400D01*
X193055100Y-116950400D02*
X193055100Y-118850400D01*
X202455100Y-117800400D02*
X202455100Y-116750400D01*
X202255100Y-131650400D02*
X202255100Y-116950400D01*
X202255100Y-116950400D02*
X199655100Y-116950400D01*
X193055100Y-131650400D02*
X202255100Y-131650400D01*
X201405100Y-116750400D02*
X202455100Y-116750400D01*
X193055100Y-122850400D02*
X193055100Y-131650400D01*
X88567301Y-90271600D02*
X133804701Y-90271600D01*
X133804701Y-90271600D02*
X133804701Y-98704400D01*
X133804701Y-98704400D02*
X88567301Y-98704400D01*
X88567301Y-98704400D02*
X88567301Y-90271600D01*
X88313301Y-94488000D02*
G75*
G03*
X88313301Y-94488000I-381000J0D01*
G01*
D11*
X153619200Y-81167698D02*
X153619200Y-92623098D01*
X143205200Y-92623098D02*
X143205200Y-81167698D01*
X143205200Y-81167698D02*
X153619200Y-81167698D01*
X153619200Y-92623098D02*
X143205200Y-92623098D01*
D12*
X142951200Y-86996099D02*
G75*
G03*
X142951200Y-86996099I-381000J0D01*
G01*
D13*
X133769100Y-122504000D02*
X133769100Y-130936800D01*
X133769100Y-130936800D02*
X88531700Y-130936800D01*
X88531700Y-130936800D02*
X88531700Y-122504000D01*
X88531700Y-122504000D02*
X133769100Y-122504000D01*
X88277700Y-126720400D02*
G75*
G03*
X88277700Y-126720400I-381000J0D01*
G01*
D11*
X143154400Y-106516898D02*
X153568400Y-106516898D01*
X153568400Y-117972298D02*
X143154400Y-117972298D01*
X153568400Y-106516898D02*
X153568400Y-117972298D01*
X143154400Y-117972298D02*
X143154400Y-106516898D01*
D12*
X142900400Y-112345299D02*
G75*
G03*
X142900400Y-112345299I-381000J0D01*
G01*
D11*
X143154400Y-119267698D02*
X153568400Y-119267698D01*
X153568400Y-119267698D02*
X153568400Y-130723098D01*
X153568400Y-130723098D02*
X143154400Y-130723098D01*
X143154400Y-130723098D02*
X143154400Y-119267698D01*
D12*
X142900400Y-125096099D02*
G75*
G03*
X142900400Y-125096099I-381000J0D01*
G01*
D13*
X88531700Y-106476800D02*
X133769100Y-106476800D01*
X133769100Y-114909600D02*
X88531700Y-114909600D01*
X88531700Y-114909600D02*
X88531700Y-106476800D01*
X133769100Y-106476800D02*
X133769100Y-114909600D01*
X88277700Y-110693200D02*
G75*
G03*
X88277700Y-110693200I-381000J0D01*
G01*
X214040700Y-116950400D02*
X211440700Y-116950400D01*
X204840700Y-131650400D02*
X214040700Y-131650400D01*
X214040700Y-131650400D02*
X214040700Y-116950400D01*
X214240700Y-117800400D02*
X214240700Y-116750400D01*
X207540700Y-116950400D02*
X204840700Y-116950400D01*
X204840700Y-122850400D02*
X204840700Y-131650400D01*
X213190700Y-116750400D02*
X214240700Y-116750400D01*
X204840700Y-116950400D02*
X204840700Y-118850400D01*
X200111200Y-108550400D02*
X207791200Y-108550400D01*
X198841200Y-108550400D02*
X197511200Y-108550400D01*
X200111200Y-108550400D02*
X200111200Y-111210400D01*
X200111200Y-111210400D02*
X207791200Y-111210400D01*
X207791200Y-108550400D02*
X207791200Y-111210400D01*
X197511200Y-108550400D02*
X197511200Y-109880400D01*
%LPC*%
D14*
X70242200Y-81909650D03*
D15*
X72782200Y-81909650D03*
X75322200Y-81909650D03*
X77862200Y-81909650D03*
X80402200Y-81909650D03*
D14*
X222382000Y-80446800D03*
D15*
X222382000Y-77906800D03*
X224922000Y-80446800D03*
X224922000Y-77906800D03*
X227462000Y-80446800D03*
X227462000Y-77906800D03*
X230002000Y-80446800D03*
X230002000Y-77906800D03*
X232542000Y-80446800D03*
X232542000Y-77906800D03*
X235082000Y-80446800D03*
X235082000Y-77906800D03*
X237622000Y-80446800D03*
X237622000Y-77906800D03*
X240162000Y-80446800D03*
X240162000Y-77906800D03*
X242702000Y-80446800D03*
X242702000Y-77906800D03*
X245242000Y-80446800D03*
X245242000Y-77906800D03*
X247782000Y-80446800D03*
X247782000Y-77906800D03*
X250322000Y-80446800D03*
X250322000Y-77906800D03*
X252862000Y-80446800D03*
X252862000Y-77906800D03*
X255402000Y-80446800D03*
X255402000Y-77906800D03*
X257942000Y-80446800D03*
X257942000Y-77906800D03*
X260482000Y-80446800D03*
X260482000Y-77906800D03*
X263022000Y-80446800D03*
X263022000Y-77906800D03*
X265562000Y-80446800D03*
X265562000Y-77906800D03*
X268102000Y-80446800D03*
X268102000Y-77906800D03*
X270642000Y-80446800D03*
X270642000Y-77906800D03*
D16*
X145821400Y-99696099D03*
X150901400Y-99696099D03*
D17*
X185818700Y-117850400D03*
D18*
X185818700Y-123850400D03*
D19*
X181118700Y-120850400D03*
D20*
X156377599Y-75006000D03*
X161377599Y-75006000D03*
X166377600Y-75006000D03*
X171377600Y-75006000D03*
X176377600Y-75006000D03*
X181377600Y-75006000D03*
X186377600Y-75006000D03*
X191377600Y-75006000D03*
X196377601Y-75006000D03*
D14*
X194162600Y-95859600D03*
D15*
X196702600Y-95859600D03*
X199242600Y-95859600D03*
X201782600Y-95859600D03*
X204322600Y-95859600D03*
D14*
X199288400Y-100939600D03*
D15*
X201828400Y-100939600D03*
X204368400Y-100939600D03*
D21*
X65462000Y-97251250D03*
X62922000Y-97251250D03*
X60382000Y-97251250D03*
X57842000Y-97251250D03*
X55302000Y-97251250D03*
X52762000Y-97251250D03*
X50222000Y-97251250D03*
X47682000Y-97251250D03*
X45142000Y-97251250D03*
X65462000Y-82011250D03*
X62922000Y-82011250D03*
X60382000Y-82011250D03*
X57842000Y-82011250D03*
X55302000Y-82011250D03*
X52762000Y-82011250D03*
X50222000Y-82011250D03*
X47682000Y-82011250D03*
X45142000Y-82011250D03*
D20*
X91150399Y-78257200D03*
X96150399Y-78257200D03*
X101150400Y-78257200D03*
X106150400Y-78257200D03*
X111150400Y-78257200D03*
X116150400Y-78257200D03*
X121150400Y-78257200D03*
X126150400Y-78257200D03*
X131150401Y-78257200D03*
D17*
X197655100Y-117850400D03*
D18*
X197655100Y-123850400D03*
D19*
X192955100Y-120850400D03*
D20*
X91186000Y-94488000D03*
X96186000Y-94488000D03*
X101186001Y-94488000D03*
X106186001Y-94488000D03*
X111186001Y-94488000D03*
X116186001Y-94488000D03*
X121186001Y-94488000D03*
X126186001Y-94488000D03*
X131186002Y-94488000D03*
D16*
X145872200Y-86996099D03*
X150952200Y-86996099D03*
D20*
X91150399Y-126720400D03*
X96150399Y-126720400D03*
X101150400Y-126720400D03*
X106150400Y-126720400D03*
X111150400Y-126720400D03*
X116150400Y-126720400D03*
X121150400Y-126720400D03*
X126150400Y-126720400D03*
X131150401Y-126720400D03*
D16*
X145821400Y-112345299D03*
X150901400Y-112345299D03*
X145821400Y-125096099D03*
X150901400Y-125096099D03*
D20*
X91150399Y-110693200D03*
X96150399Y-110693200D03*
X101150400Y-110693200D03*
X106150400Y-110693200D03*
X111150400Y-110693200D03*
X116150400Y-110693200D03*
X121150400Y-110693200D03*
X126150400Y-110693200D03*
X131150401Y-110693200D03*
D17*
X209440700Y-117850400D03*
D18*
X209440700Y-123850400D03*
D19*
X204740700Y-120850400D03*
D14*
X198841200Y-109880400D03*
D15*
X201381200Y-109880400D03*
X203921200Y-109880400D03*
X206461200Y-109880400D03*
M02*
