G04 #@! TF.GenerationSoftware,KiCad,Pcbnew,(6.0.6)*
G04 #@! TF.CreationDate,2023-06-19T20:01:57+09:30*
G04 #@! TF.ProjectId,RPi Arcade Hat V0-3,52506920-4172-4636-9164-652048617420,rev?*
G04 #@! TF.SameCoordinates,Original*
G04 #@! TF.FileFunction,Copper,L1,Top*
G04 #@! TF.FilePolarity,Positive*
%FSLAX46Y46*%
G04 Gerber Fmt 4.6, Leading zero omitted, Abs format (unit mm)*
G04 Created by KiCad (PCBNEW (6.0.6)) date 2023-06-19 20:01:57*
%MOMM*%
%LPD*%
G01*
G04 APERTURE LIST*
G04 Aperture macros list*
%AMRoundRect*
0 Rectangle with rounded corners*
0 $1 Rounding radius*
0 $2 $3 $4 $5 $6 $7 $8 $9 X,Y pos of 4 corners*
0 Add a 4 corners polygon primitive as box body*
4,1,4,$2,$3,$4,$5,$6,$7,$8,$9,$2,$3,0*
0 Add four circle primitives for the rounded corners*
1,1,$1+$1,$2,$3*
1,1,$1+$1,$4,$5*
1,1,$1+$1,$6,$7*
1,1,$1+$1,$8,$9*
0 Add four rect primitives between the rounded corners*
20,1,$1+$1,$2,$3,$4,$5,0*
20,1,$1+$1,$4,$5,$6,$7,0*
20,1,$1+$1,$6,$7,$8,$9,0*
20,1,$1+$1,$8,$9,$2,$3,0*%
G04 Aperture macros list end*
G04 #@! TA.AperFunction,SMDPad,CuDef*
%ADD10RoundRect,0.150000X0.587500X0.150000X-0.587500X0.150000X-0.587500X-0.150000X0.587500X-0.150000X0*%
G04 #@! TD*
G04 #@! TA.AperFunction,SMDPad,CuDef*
%ADD11RoundRect,0.250000X-0.625000X0.312500X-0.625000X-0.312500X0.625000X-0.312500X0.625000X0.312500X0*%
G04 #@! TD*
G04 #@! TA.AperFunction,SMDPad,CuDef*
%ADD12RoundRect,0.250000X0.625000X-0.312500X0.625000X0.312500X-0.625000X0.312500X-0.625000X-0.312500X0*%
G04 #@! TD*
G04 #@! TA.AperFunction,SMDPad,CuDef*
%ADD13R,0.600000X2.000000*%
G04 #@! TD*
G04 #@! TA.AperFunction,SMDPad,CuDef*
%ADD14R,1.200000X0.900000*%
G04 #@! TD*
G04 #@! TA.AperFunction,SMDPad,CuDef*
%ADD15RoundRect,0.250000X-0.650000X0.325000X-0.650000X-0.325000X0.650000X-0.325000X0.650000X0.325000X0*%
G04 #@! TD*
G04 #@! TA.AperFunction,SMDPad,CuDef*
%ADD16RoundRect,0.250000X0.312500X0.625000X-0.312500X0.625000X-0.312500X-0.625000X0.312500X-0.625000X0*%
G04 #@! TD*
G04 #@! TA.AperFunction,SMDPad,CuDef*
%ADD17RoundRect,0.150000X-0.587500X-0.150000X0.587500X-0.150000X0.587500X0.150000X-0.587500X0.150000X0*%
G04 #@! TD*
G04 #@! TA.AperFunction,SMDPad,CuDef*
%ADD18RoundRect,0.150000X0.150000X-0.587500X0.150000X0.587500X-0.150000X0.587500X-0.150000X-0.587500X0*%
G04 #@! TD*
G04 #@! TA.AperFunction,SMDPad,CuDef*
%ADD19RoundRect,0.250000X-0.312500X-0.625000X0.312500X-0.625000X0.312500X0.625000X-0.312500X0.625000X0*%
G04 #@! TD*
G04 #@! TA.AperFunction,ComponentPad*
%ADD20R,1.700000X1.700000*%
G04 #@! TD*
G04 #@! TA.AperFunction,ComponentPad*
%ADD21O,1.700000X1.700000*%
G04 #@! TD*
G04 #@! TA.AperFunction,SMDPad,CuDef*
%ADD22R,0.550000X1.500000*%
G04 #@! TD*
G04 #@! TA.AperFunction,SMDPad,CuDef*
%ADD23R,0.600000X1.550000*%
G04 #@! TD*
G04 #@! TA.AperFunction,SMDPad,CuDef*
%ADD24R,1.500000X0.550000*%
G04 #@! TD*
G04 #@! TA.AperFunction,SMDPad,CuDef*
%ADD25R,3.300000X2.500000*%
G04 #@! TD*
G04 #@! TA.AperFunction,SMDPad,CuDef*
%ADD26RoundRect,0.250000X-0.325000X-0.650000X0.325000X-0.650000X0.325000X0.650000X-0.325000X0.650000X0*%
G04 #@! TD*
G04 #@! TA.AperFunction,SMDPad,CuDef*
%ADD27R,1.100000X4.600000*%
G04 #@! TD*
G04 #@! TA.AperFunction,SMDPad,CuDef*
%ADD28R,10.800000X9.400000*%
G04 #@! TD*
G04 #@! TA.AperFunction,SMDPad,CuDef*
%ADD29RoundRect,0.250000X1.100000X-0.325000X1.100000X0.325000X-1.100000X0.325000X-1.100000X-0.325000X0*%
G04 #@! TD*
G04 #@! TA.AperFunction,SMDPad,CuDef*
%ADD30R,5.700000X1.600000*%
G04 #@! TD*
G04 #@! TA.AperFunction,ComponentPad*
%ADD31C,1.524000*%
G04 #@! TD*
G04 #@! TA.AperFunction,ComponentPad*
%ADD32R,3.500000X3.500000*%
G04 #@! TD*
G04 #@! TA.AperFunction,ComponentPad*
%ADD33RoundRect,0.750000X1.000000X-0.750000X1.000000X0.750000X-1.000000X0.750000X-1.000000X-0.750000X0*%
G04 #@! TD*
G04 #@! TA.AperFunction,ComponentPad*
%ADD34RoundRect,0.875000X0.875000X-0.875000X0.875000X0.875000X-0.875000X0.875000X-0.875000X-0.875000X0*%
G04 #@! TD*
G04 #@! TA.AperFunction,ComponentPad*
%ADD35C,2.032000*%
G04 #@! TD*
G04 #@! TA.AperFunction,ComponentPad*
%ADD36C,1.270000*%
G04 #@! TD*
G04 #@! TA.AperFunction,ViaPad*
%ADD37C,0.800000*%
G04 #@! TD*
G04 #@! TA.AperFunction,ViaPad*
%ADD38C,0.500000*%
G04 #@! TD*
G04 #@! TA.AperFunction,Conductor*
%ADD39C,0.250000*%
G04 #@! TD*
G04 #@! TA.AperFunction,Conductor*
%ADD40C,1.000000*%
G04 #@! TD*
G04 APERTURE END LIST*
D10*
X164208700Y-123048000D03*
X164208700Y-121148000D03*
X162333700Y-122098000D03*
X164259500Y-110348000D03*
X164259500Y-108448000D03*
X162384500Y-109398000D03*
D11*
X167132000Y-98272800D03*
X167132000Y-101197800D03*
D12*
X71067600Y-95464350D03*
X71067600Y-92539350D03*
D13*
X256405200Y-96736600D03*
X257675200Y-96736600D03*
X258945200Y-96736600D03*
X260215200Y-96736600D03*
X260215200Y-91836600D03*
X258945200Y-91836600D03*
X257675200Y-91836600D03*
X256405200Y-91836600D03*
D14*
X171907200Y-89701300D03*
X171907200Y-86401300D03*
D15*
X266870000Y-94792800D03*
X266870000Y-97742800D03*
D16*
X73691600Y-108173250D03*
X70766600Y-108173250D03*
D14*
X174396400Y-89701300D03*
X174396400Y-86401300D03*
X171958000Y-115010400D03*
X171958000Y-111710400D03*
D11*
X169519600Y-86639600D03*
X169519600Y-89564600D03*
D17*
X162333700Y-124653200D03*
X162333700Y-126553200D03*
X164208700Y-125603200D03*
D15*
X159969200Y-84047000D03*
X159969200Y-86997000D03*
D16*
X78771600Y-108173250D03*
X75846600Y-108173250D03*
D18*
X179085200Y-85722700D03*
X180985200Y-85722700D03*
X180035200Y-83847700D03*
D14*
X174396400Y-127659600D03*
X174396400Y-124359600D03*
D11*
X186385200Y-90485500D03*
X186385200Y-93410500D03*
D12*
X242237500Y-93374900D03*
X242237500Y-90449900D03*
D16*
X74900100Y-113253250D03*
X71975100Y-113253250D03*
D12*
X250300800Y-98084100D03*
X250300800Y-95159100D03*
D11*
X52762000Y-100208350D03*
X52762000Y-103133350D03*
D15*
X274998000Y-91948000D03*
X274998000Y-94898000D03*
D19*
X157490700Y-103911600D03*
X160415700Y-103911600D03*
D20*
X70242200Y-81909650D03*
D21*
X72782200Y-81909650D03*
X75322200Y-81909650D03*
X77862200Y-81909650D03*
X80402200Y-81909650D03*
D17*
X247890100Y-90337600D03*
X247890100Y-92237600D03*
X249765100Y-91287600D03*
D10*
X164513500Y-97698800D03*
X164513500Y-95798800D03*
X162638500Y-96748800D03*
D19*
X259286100Y-99315800D03*
X262211100Y-99315800D03*
D22*
X70806700Y-105742450D03*
X72076700Y-105742450D03*
X73346700Y-105742450D03*
X74616700Y-105742450D03*
X75886700Y-105742450D03*
X77156700Y-105742450D03*
X78426700Y-105742450D03*
X78426700Y-100342450D03*
X77156700Y-100342450D03*
X75886700Y-100342450D03*
X74616700Y-100342450D03*
X73346700Y-100342450D03*
X72076700Y-100342450D03*
X70806700Y-100342450D03*
D12*
X62922000Y-79003350D03*
X62922000Y-76078350D03*
D19*
X70705100Y-115691650D03*
X73630100Y-115691650D03*
D18*
X189753200Y-85722700D03*
X191653200Y-85722700D03*
X190703200Y-83847700D03*
D19*
X157439900Y-116560800D03*
X160364900Y-116560800D03*
D14*
X157784800Y-96622800D03*
X157784800Y-99922800D03*
D12*
X50222000Y-79003350D03*
X50222000Y-76078350D03*
D23*
X58273800Y-114378450D03*
X59543800Y-114378450D03*
X60813800Y-114378450D03*
X62083800Y-114378450D03*
X63353800Y-114378450D03*
X64623800Y-114378450D03*
X65893800Y-114378450D03*
X67163800Y-114378450D03*
X67163800Y-108978450D03*
X65893800Y-108978450D03*
X64623800Y-108978450D03*
X63353800Y-108978450D03*
X62083800Y-108978450D03*
X60813800Y-108978450D03*
X59543800Y-108978450D03*
X58273800Y-108978450D03*
D14*
X171958000Y-102401300D03*
X171958000Y-99101300D03*
D22*
X263916200Y-104792800D03*
X262646200Y-104792800D03*
X261376200Y-104792800D03*
X260106200Y-104792800D03*
X258836200Y-104792800D03*
X257566200Y-104792800D03*
X256296200Y-104792800D03*
X256296200Y-110192800D03*
X257566200Y-110192800D03*
X258836200Y-110192800D03*
X260106200Y-110192800D03*
X261376200Y-110192800D03*
X262646200Y-110192800D03*
X263916200Y-110192800D03*
D11*
X169570400Y-124648700D03*
X169570400Y-127573700D03*
D12*
X247964000Y-96915700D03*
X247964000Y-93990700D03*
D15*
X79144800Y-89732850D03*
X79144800Y-92682850D03*
D13*
X73175800Y-95029450D03*
X74445800Y-95029450D03*
X75715800Y-95029450D03*
X76985800Y-95029450D03*
X76985800Y-90129450D03*
X75715800Y-90129450D03*
X74445800Y-90129450D03*
X73175800Y-90129450D03*
D18*
X182641200Y-85722700D03*
X184541200Y-85722700D03*
X183591200Y-83847700D03*
D12*
X47682000Y-79003350D03*
X47682000Y-76078350D03*
D24*
X187764400Y-113131600D03*
X187764400Y-111861600D03*
X187764400Y-110591600D03*
X187764400Y-109321600D03*
X187764400Y-108051600D03*
X187764400Y-106781600D03*
X187764400Y-105511600D03*
X182364400Y-105511600D03*
X182364400Y-106781600D03*
X182364400Y-108051600D03*
X182364400Y-109321600D03*
X182364400Y-110591600D03*
X182364400Y-111861600D03*
X182364400Y-113131600D03*
D11*
X183997600Y-90485500D03*
X183997600Y-93410500D03*
D19*
X75785100Y-115691650D03*
X78710100Y-115691650D03*
D11*
X169519600Y-99390400D03*
X169519600Y-102315400D03*
X245576400Y-90434700D03*
X245576400Y-93359700D03*
X188874400Y-90485500D03*
X188874400Y-93410500D03*
D14*
X176936400Y-89701300D03*
X176936400Y-86401300D03*
X157683200Y-109221200D03*
X157683200Y-112521200D03*
D24*
X187756800Y-102971600D03*
X187756800Y-101701600D03*
X187756800Y-100431600D03*
X187756800Y-99161600D03*
X187756800Y-97891600D03*
X187756800Y-96621600D03*
X187756800Y-95351600D03*
X182356800Y-95351600D03*
X182356800Y-96621600D03*
X182356800Y-97891600D03*
X182356800Y-99161600D03*
X182356800Y-100431600D03*
X182356800Y-101701600D03*
X182356800Y-102971600D03*
D11*
X55302000Y-100208350D03*
X55302000Y-103133350D03*
D19*
X229141800Y-90794800D03*
X232066800Y-90794800D03*
D12*
X155041600Y-86984500D03*
X155041600Y-84059500D03*
D10*
X235961400Y-95808800D03*
X235961400Y-93908800D03*
X234086400Y-94858800D03*
D19*
X157338300Y-129159200D03*
X160263300Y-129159200D03*
X229141800Y-95417600D03*
X232066800Y-95417600D03*
D17*
X162638500Y-99354800D03*
X162638500Y-101254800D03*
X164513500Y-100304800D03*
D14*
X176885600Y-102401300D03*
X176885600Y-99101300D03*
D23*
X46691400Y-123370050D03*
X47961400Y-123370050D03*
X49231400Y-123370050D03*
X50501400Y-123370050D03*
X51771400Y-123370050D03*
X53041400Y-123370050D03*
X54311400Y-123370050D03*
X55581400Y-123370050D03*
X55581400Y-117970050D03*
X54311400Y-117970050D03*
X53041400Y-117970050D03*
X51771400Y-117970050D03*
X50501400Y-117970050D03*
X49231400Y-117970050D03*
X47961400Y-117970050D03*
X46691400Y-117970050D03*
D11*
X181559200Y-90485500D03*
X181559200Y-93410500D03*
D22*
X266496800Y-110192800D03*
X267766800Y-110192800D03*
X269036800Y-110192800D03*
X270306800Y-110192800D03*
X271576800Y-110192800D03*
X272846800Y-110192800D03*
X274116800Y-110192800D03*
X274116800Y-104792800D03*
X272846800Y-104792800D03*
X271576800Y-104792800D03*
X270306800Y-104792800D03*
X269036800Y-104792800D03*
X267766800Y-104792800D03*
X266496800Y-104792800D03*
D25*
X215595200Y-105000000D03*
X215595200Y-98200000D03*
D17*
X162435300Y-86654800D03*
X162435300Y-88554800D03*
X164310300Y-87604800D03*
D11*
X65462000Y-100208350D03*
X65462000Y-103133350D03*
X169519600Y-111999500D03*
X169519600Y-114924500D03*
D12*
X155143200Y-125084500D03*
X155143200Y-122159500D03*
D14*
X174396400Y-102401300D03*
X174396400Y-99101300D03*
D17*
X238099600Y-90403600D03*
X238099600Y-92303600D03*
X239974600Y-91353600D03*
D14*
X157480000Y-83922800D03*
X157480000Y-87222800D03*
X171958000Y-127659600D03*
X171958000Y-124359600D03*
D12*
X245576400Y-98084100D03*
X245576400Y-95159100D03*
D14*
X176834800Y-127659600D03*
X176834800Y-124359600D03*
D15*
X160121600Y-109396200D03*
X160121600Y-112346200D03*
D26*
X77517400Y-87550250D03*
X80467400Y-87550250D03*
D27*
X224660200Y-110915800D03*
X226360200Y-110915800D03*
X228060200Y-110915800D03*
D28*
X228060200Y-101765800D03*
D27*
X229760200Y-110915800D03*
X231460200Y-110915800D03*
D15*
X160070800Y-122096200D03*
X160070800Y-125046200D03*
D11*
X62922000Y-100208350D03*
X62922000Y-103133350D03*
D16*
X257334300Y-99315800D03*
X254409300Y-99315800D03*
D19*
X72805500Y-87550250D03*
X75730500Y-87550250D03*
D26*
X259222800Y-89308200D03*
X262172800Y-89308200D03*
D12*
X210058000Y-112460500D03*
X210058000Y-109535500D03*
D11*
X167132000Y-110881900D03*
X167132000Y-113806900D03*
D15*
X262374200Y-91389200D03*
X262374200Y-94339200D03*
D16*
X240194800Y-86984800D03*
X237269800Y-86984800D03*
D23*
X46742200Y-114378450D03*
X48012200Y-114378450D03*
X49282200Y-114378450D03*
X50552200Y-114378450D03*
X51822200Y-114378450D03*
X53092200Y-114378450D03*
X54362200Y-114378450D03*
X55632200Y-114378450D03*
X55632200Y-108978450D03*
X54362200Y-108978450D03*
X53092200Y-108978450D03*
X51822200Y-108978450D03*
X50552200Y-108978450D03*
X49282200Y-108978450D03*
X48012200Y-108978450D03*
X46742200Y-108978450D03*
D19*
X267033100Y-89359000D03*
X269958100Y-89359000D03*
D11*
X50222000Y-100208350D03*
X50222000Y-103133350D03*
D14*
X174447200Y-115010400D03*
X174447200Y-111710400D03*
D20*
X222382000Y-80446800D03*
D21*
X222382000Y-77906800D03*
X224922000Y-80446800D03*
X224922000Y-77906800D03*
X227462000Y-80446800D03*
X227462000Y-77906800D03*
X230002000Y-80446800D03*
X230002000Y-77906800D03*
X232542000Y-80446800D03*
X232542000Y-77906800D03*
X235082000Y-80446800D03*
X235082000Y-77906800D03*
X237622000Y-80446800D03*
X237622000Y-77906800D03*
X240162000Y-80446800D03*
X240162000Y-77906800D03*
X242702000Y-80446800D03*
X242702000Y-77906800D03*
X245242000Y-80446800D03*
X245242000Y-77906800D03*
X247782000Y-80446800D03*
X247782000Y-77906800D03*
X250322000Y-80446800D03*
X250322000Y-77906800D03*
X252862000Y-80446800D03*
X252862000Y-77906800D03*
X255402000Y-80446800D03*
X255402000Y-77906800D03*
X257942000Y-80446800D03*
X257942000Y-77906800D03*
X260482000Y-80446800D03*
X260482000Y-77906800D03*
X263022000Y-80446800D03*
X263022000Y-77906800D03*
X265562000Y-80446800D03*
X265562000Y-77906800D03*
X268102000Y-80446800D03*
X268102000Y-77906800D03*
X270642000Y-80446800D03*
X270642000Y-77906800D03*
D29*
X235610400Y-112625400D03*
X235610400Y-109675400D03*
D15*
X160274000Y-96747000D03*
X160274000Y-99697000D03*
D19*
X157135100Y-91059200D03*
X160060100Y-91059200D03*
X69251100Y-110490000D03*
X72176100Y-110490000D03*
D30*
X215646000Y-107784400D03*
X215646000Y-112484400D03*
D13*
X269029000Y-97295400D03*
X270299000Y-97295400D03*
X271569000Y-97295400D03*
X272839000Y-97295400D03*
X272839000Y-92395400D03*
X271569000Y-92395400D03*
X270299000Y-92395400D03*
X269029000Y-92395400D03*
D14*
X157581600Y-121972000D03*
X157581600Y-125272000D03*
D19*
X237930200Y-95468400D03*
X240855200Y-95468400D03*
D11*
X60382000Y-100208350D03*
X60382000Y-103133350D03*
D22*
X78720800Y-117970050D03*
X77450800Y-117970050D03*
X76180800Y-117970050D03*
X74910800Y-117970050D03*
X73640800Y-117970050D03*
X72370800Y-117970050D03*
X71100800Y-117970050D03*
X71100800Y-123370050D03*
X72370800Y-123370050D03*
X73640800Y-123370050D03*
X74910800Y-123370050D03*
X76180800Y-123370050D03*
X77450800Y-123370050D03*
X78720800Y-123370050D03*
D12*
X52762000Y-79003350D03*
X52762000Y-76078350D03*
D10*
X164310300Y-84998800D03*
X164310300Y-83098800D03*
X162435300Y-84048800D03*
D19*
X74432700Y-110560850D03*
X77357700Y-110560850D03*
X271859100Y-89359000D03*
X274784100Y-89359000D03*
D12*
X65462000Y-79003350D03*
X65462000Y-76078350D03*
D11*
X167182800Y-123531100D03*
X167182800Y-126456100D03*
D12*
X60432800Y-79003350D03*
X60432800Y-76078350D03*
D17*
X234086400Y-90403600D03*
X234086400Y-92303600D03*
X235961400Y-91353600D03*
D19*
X254510900Y-89308200D03*
X257435900Y-89308200D03*
D17*
X162384500Y-112004000D03*
X162384500Y-113904000D03*
X164259500Y-112954000D03*
D18*
X186197200Y-85722700D03*
X188097200Y-85722700D03*
X187147200Y-83847700D03*
D23*
X58273800Y-123370050D03*
X59543800Y-123370050D03*
X60813800Y-123370050D03*
X62083800Y-123370050D03*
X63353800Y-123370050D03*
X64623800Y-123370050D03*
X65893800Y-123370050D03*
X67163800Y-123370050D03*
X67163800Y-117970050D03*
X65893800Y-117970050D03*
X64623800Y-117970050D03*
X63353800Y-117970050D03*
X62083800Y-117970050D03*
X60813800Y-117970050D03*
X59543800Y-117970050D03*
X58273800Y-117970050D03*
D14*
X176885600Y-115010400D03*
X176885600Y-111710400D03*
D29*
X220624400Y-112625400D03*
X220624400Y-109675400D03*
D11*
X167182800Y-85522000D03*
X167182800Y-88447000D03*
X47682000Y-100208350D03*
X47682000Y-103133350D03*
D12*
X155244800Y-99684500D03*
X155244800Y-96759500D03*
X155194000Y-112333700D03*
X155194000Y-109408700D03*
D16*
X80386500Y-113253250D03*
X77461500Y-113253250D03*
D12*
X45142000Y-79003350D03*
X45142000Y-76078350D03*
D31*
X145821400Y-99696099D03*
X150901400Y-99696099D03*
D32*
X185818700Y-117850400D03*
D33*
X185818700Y-123850400D03*
D34*
X181118700Y-120850400D03*
D35*
X156377599Y-75006000D03*
X161377599Y-75006000D03*
X166377600Y-75006000D03*
X171377600Y-75006000D03*
X176377600Y-75006000D03*
X181377600Y-75006000D03*
X186377600Y-75006000D03*
X191377600Y-75006000D03*
X196377601Y-75006000D03*
D20*
X194162600Y-95859600D03*
D21*
X196702600Y-95859600D03*
X199242600Y-95859600D03*
X201782600Y-95859600D03*
X204322600Y-95859600D03*
D20*
X199288400Y-100939600D03*
D21*
X201828400Y-100939600D03*
X204368400Y-100939600D03*
D36*
X65462000Y-97251250D03*
X62922000Y-97251250D03*
X60382000Y-97251250D03*
X57842000Y-97251250D03*
X55302000Y-97251250D03*
X52762000Y-97251250D03*
X50222000Y-97251250D03*
X47682000Y-97251250D03*
X45142000Y-97251250D03*
X65462000Y-82011250D03*
X62922000Y-82011250D03*
X60382000Y-82011250D03*
X57842000Y-82011250D03*
X55302000Y-82011250D03*
X52762000Y-82011250D03*
X50222000Y-82011250D03*
X47682000Y-82011250D03*
X45142000Y-82011250D03*
D35*
X91150399Y-78257200D03*
X96150399Y-78257200D03*
X101150400Y-78257200D03*
X106150400Y-78257200D03*
X111150400Y-78257200D03*
X116150400Y-78257200D03*
X121150400Y-78257200D03*
X126150400Y-78257200D03*
X131150401Y-78257200D03*
D32*
X197655100Y-117850400D03*
D33*
X197655100Y-123850400D03*
D34*
X192955100Y-120850400D03*
D35*
X91186000Y-94488000D03*
X96186000Y-94488000D03*
X101186001Y-94488000D03*
X106186001Y-94488000D03*
X111186001Y-94488000D03*
X116186001Y-94488000D03*
X121186001Y-94488000D03*
X126186001Y-94488000D03*
X131186002Y-94488000D03*
D31*
X145872200Y-86996099D03*
X150952200Y-86996099D03*
D35*
X91150399Y-126720400D03*
X96150399Y-126720400D03*
X101150400Y-126720400D03*
X106150400Y-126720400D03*
X111150400Y-126720400D03*
X116150400Y-126720400D03*
X121150400Y-126720400D03*
X126150400Y-126720400D03*
X131150401Y-126720400D03*
D31*
X145821400Y-112345299D03*
X150901400Y-112345299D03*
X145821400Y-125096099D03*
X150901400Y-125096099D03*
D35*
X91150399Y-110693200D03*
X96150399Y-110693200D03*
X101150400Y-110693200D03*
X106150400Y-110693200D03*
X111150400Y-110693200D03*
X116150400Y-110693200D03*
X121150400Y-110693200D03*
X126150400Y-110693200D03*
X131150401Y-110693200D03*
D32*
X209440700Y-117850400D03*
D33*
X209440700Y-123850400D03*
D34*
X204740700Y-120850400D03*
D20*
X198841200Y-109880400D03*
D21*
X201381200Y-109880400D03*
X203921200Y-109880400D03*
X206461200Y-109880400D03*
D37*
X272864400Y-97283800D03*
X160070800Y-91059200D03*
X160324800Y-129159200D03*
X242237500Y-93385600D03*
X160426400Y-103911600D03*
X167182800Y-88468400D03*
X260240600Y-96775800D03*
X254551000Y-89308200D03*
X269054400Y-92356200D03*
X266496800Y-104800400D03*
X249792800Y-91287600D03*
X167132000Y-126416000D03*
X167132000Y-113766800D03*
X263929000Y-110183600D03*
X256430600Y-91797400D03*
X263929000Y-104798800D03*
X258849000Y-110234400D03*
X235938300Y-91353600D03*
X260119000Y-104798800D03*
D38*
X182372000Y-113131600D03*
D37*
X160375600Y-116560800D03*
X167132000Y-101168400D03*
X267022400Y-89359000D03*
D38*
X182321200Y-102971600D03*
D37*
X262608200Y-110183600D03*
X231444800Y-112522000D03*
D38*
X187807600Y-95351600D03*
D37*
X159969200Y-86995200D03*
D38*
X187807600Y-105511600D03*
D37*
X274116800Y-110185200D03*
X262374200Y-94337400D03*
X220675200Y-109677200D03*
X232816400Y-97739200D03*
X262221800Y-99265000D03*
X269036800Y-104800400D03*
X274998000Y-94896200D03*
X250300800Y-98094800D03*
X247964000Y-96926400D03*
X256258200Y-104798800D03*
X228092000Y-101701600D03*
X223316800Y-97739200D03*
X256379800Y-96775800D03*
X232816400Y-105867200D03*
X160070800Y-125044400D03*
X162407600Y-88570000D03*
X162610800Y-101270000D03*
X223266000Y-105816400D03*
X231444800Y-110896400D03*
X160324800Y-99695200D03*
X235661200Y-109677200D03*
X254398600Y-99315800D03*
X267766800Y-104800400D03*
X215646000Y-98196400D03*
X228092000Y-109270800D03*
X162356800Y-113919200D03*
X231495600Y-109220000D03*
X240865900Y-95468400D03*
X262221800Y-89308200D03*
X238071900Y-92268000D03*
X228092000Y-110947200D03*
X160070800Y-112344400D03*
X269054400Y-97334600D03*
X162306000Y-126517600D03*
X228092000Y-112522000D03*
X270306800Y-104800400D03*
X266870000Y-97690200D03*
D38*
X191653200Y-85722700D03*
X188097200Y-85714800D03*
X184541200Y-85714800D03*
X180985200Y-85722700D03*
D37*
X226364800Y-110947200D03*
X226364800Y-112572800D03*
X226364800Y-109270800D03*
D38*
X71067600Y-92528650D03*
X60807600Y-123393200D03*
X62077600Y-123393200D03*
X79144800Y-92731850D03*
X50495200Y-123393200D03*
X62077600Y-117957600D03*
X75895200Y-100330000D03*
X80414800Y-87499450D03*
X58267600Y-123393200D03*
X63347600Y-117957600D03*
X63379200Y-114370850D03*
X78435200Y-105714800D03*
X55575200Y-123393200D03*
X51816000Y-117957600D03*
X51765200Y-123393200D03*
X67157600Y-123393200D03*
X46685200Y-123393200D03*
X49276000Y-123393200D03*
X55657600Y-114370850D03*
X51847600Y-114370850D03*
X73150400Y-95017850D03*
X77165200Y-100330000D03*
X71120000Y-117957600D03*
X50495200Y-117957600D03*
X67189200Y-114370850D03*
D37*
X171907200Y-86410800D03*
X174447200Y-124358400D03*
X174447200Y-111709200D03*
D38*
X182372000Y-105511600D03*
X182356800Y-96621600D03*
D37*
X174396400Y-86410800D03*
X176834800Y-124358400D03*
D38*
X187756800Y-106781600D03*
D37*
X174396400Y-99110800D03*
D38*
X187756800Y-99161600D03*
X187756800Y-102971600D03*
D37*
X176885600Y-99110800D03*
X176885600Y-111709200D03*
X176936400Y-86410800D03*
D38*
X187756800Y-110591600D03*
D37*
X171958000Y-99110800D03*
D38*
X182372000Y-109321600D03*
X182372000Y-100431600D03*
D37*
X171958000Y-111709200D03*
X171958000Y-124358400D03*
D38*
X77368400Y-110540800D03*
X72794800Y-87499450D03*
X58267600Y-117957600D03*
X60839200Y-114370850D03*
X73150400Y-90141050D03*
X78740000Y-123342400D03*
X69189600Y-110540800D03*
X50577600Y-114370850D03*
X58299200Y-108986050D03*
X46685200Y-118008400D03*
X70815200Y-100330000D03*
X49307600Y-114370850D03*
X71983600Y-113233200D03*
X70713600Y-115671600D03*
X77011200Y-95017850D03*
X78790800Y-108153200D03*
X80416400Y-113233200D03*
X62058400Y-114370850D03*
X46767600Y-108986050D03*
X75793600Y-115671600D03*
X73660000Y-108153200D03*
X59543800Y-117970050D03*
X65893800Y-117970050D03*
X269036800Y-110185200D03*
X237930200Y-95468400D03*
X187756800Y-97891600D03*
X258945200Y-96736600D03*
X187764400Y-111861600D03*
X187764400Y-108051600D03*
X270306800Y-110185200D03*
X187764400Y-113131600D03*
X187764400Y-109321600D03*
X271576800Y-110185200D03*
X272846800Y-104800400D03*
X182364400Y-106781600D03*
X271576800Y-104800400D03*
X164310300Y-83098800D03*
X182372000Y-110591600D03*
X54362200Y-114378450D03*
X53035200Y-123393200D03*
X73640800Y-115702350D03*
X64617600Y-123393200D03*
X60331200Y-103144050D03*
X53117600Y-108986050D03*
X62871200Y-103144050D03*
X54387600Y-108986050D03*
X65411200Y-103144050D03*
X55606800Y-108986050D03*
X47682000Y-103144050D03*
X64598400Y-108986050D03*
X65919200Y-108986050D03*
X52812800Y-103194850D03*
X67189200Y-108986050D03*
X55352800Y-103144050D03*
X50272800Y-103144050D03*
X60839200Y-108986050D03*
X78720800Y-117970050D03*
X58267600Y-114401600D03*
X64617600Y-117957600D03*
X48006000Y-114350800D03*
X49174400Y-117957600D03*
X72065575Y-110521175D03*
X60813800Y-117970050D03*
X59537600Y-114350800D03*
X47955200Y-123393200D03*
X53086000Y-114401600D03*
X74462775Y-110530775D03*
X64623800Y-114378450D03*
X59537600Y-123393200D03*
X182372000Y-99161600D03*
D37*
X188874400Y-93421200D03*
D38*
X229158800Y-95402400D03*
X257556000Y-110185200D03*
X67157600Y-117957600D03*
X55575200Y-117957600D03*
X75692000Y-94996000D03*
X271576800Y-97282000D03*
X261376200Y-104792800D03*
X72085200Y-100330000D03*
X77114400Y-105714800D03*
X73609200Y-123342400D03*
X74574400Y-100330000D03*
X76200000Y-123342400D03*
X76200000Y-117957600D03*
X72339200Y-117957600D03*
X77470000Y-123342400D03*
X183591200Y-83870800D03*
X180035200Y-83870800D03*
X187147200Y-83870800D03*
X190703200Y-83870800D03*
D39*
X91150399Y-110693200D02*
X91150399Y-126720400D01*
X91150399Y-94452399D02*
X91186000Y-94488000D01*
X187310000Y-70938400D02*
X191377600Y-75006000D01*
X91186000Y-110657599D02*
X91150399Y-110693200D01*
X91186000Y-94488000D02*
X91186000Y-110657599D01*
X91150399Y-78257200D02*
X98469199Y-70938400D01*
X191377600Y-75006000D02*
X193260881Y-73122719D01*
X193260881Y-73122719D02*
X225217919Y-73122719D01*
X91150399Y-78257200D02*
X91150399Y-94452399D01*
X98469199Y-70938400D02*
X187310000Y-70938400D01*
X225217919Y-73122719D02*
X230002000Y-77906800D01*
X116150400Y-110693200D02*
X116150400Y-126720400D01*
X116150400Y-78257200D02*
X121192600Y-73215000D01*
X116186001Y-110657599D02*
X116150400Y-110693200D01*
X116150400Y-78257200D02*
X116150400Y-94452399D01*
X116186001Y-94488000D02*
X116186001Y-110657599D01*
X164586600Y-73215000D02*
X166377600Y-75006000D01*
X121192600Y-73215000D02*
X164586600Y-73215000D01*
X116150400Y-94452399D02*
X116186001Y-94488000D01*
X111150400Y-126720400D02*
X111150400Y-110693200D01*
X111186001Y-94488000D02*
X111186001Y-110657599D01*
X111186001Y-94488000D02*
X111186001Y-78292801D01*
X111186001Y-78292801D02*
X111150400Y-78257200D01*
X171377600Y-75006000D02*
X169136600Y-72765000D01*
X169136600Y-72765000D02*
X116681400Y-72765000D01*
X111186001Y-110657599D02*
X111150400Y-110693200D01*
X116662000Y-72745600D02*
X111150400Y-78257200D01*
X116681400Y-72765000D02*
X116662000Y-72745600D01*
X106150400Y-94452399D02*
X106186001Y-94488000D01*
X109169200Y-72288400D02*
X173660000Y-72288400D01*
X106150400Y-110693200D02*
X106150400Y-94523601D01*
X106150400Y-94523601D02*
X106186001Y-94488000D01*
X106150400Y-75307200D02*
X109169200Y-72288400D01*
X106150400Y-78257200D02*
X106150400Y-75307200D01*
X106150400Y-126720400D02*
X106150400Y-110693200D01*
X173660000Y-72288400D02*
X176377600Y-75006000D01*
X106150400Y-78257200D02*
X106150400Y-94452399D01*
X135559600Y-78257200D02*
X131150401Y-78257200D01*
X188235600Y-79930000D02*
X137232400Y-79930000D01*
X137232400Y-79930000D02*
X135559600Y-78257200D01*
X191653200Y-83347600D02*
X188235600Y-79930000D01*
X191653200Y-85722700D02*
X191653200Y-83347600D01*
X188097200Y-85714800D02*
X188097200Y-83347600D01*
X188097200Y-83347600D02*
X185129600Y-80380000D01*
X188097200Y-85714800D02*
X188097200Y-85722700D01*
X143035608Y-80380000D02*
X131186002Y-92229606D01*
X185129600Y-80380000D02*
X143035608Y-80380000D01*
X131186002Y-92229606D02*
X131186002Y-94488000D01*
X107569200Y-71838400D02*
X178210000Y-71838400D01*
X101186001Y-110657599D02*
X101150400Y-110693200D01*
X101150400Y-110693200D02*
X101150400Y-126720400D01*
X101186001Y-94488000D02*
X101186001Y-110657599D01*
X101150400Y-78257200D02*
X101150400Y-94452399D01*
X178210000Y-71838400D02*
X181377600Y-75006000D01*
X101150400Y-94452399D02*
X101186001Y-94488000D01*
X101150400Y-78257200D02*
X107569200Y-71838400D01*
X196377601Y-75006000D02*
X196377601Y-76794401D01*
X203149200Y-83566000D02*
X244662800Y-83566000D01*
X196377601Y-76794401D02*
X203149200Y-83566000D01*
X244662800Y-83566000D02*
X247782000Y-80446800D01*
X143222004Y-80830000D02*
X182023600Y-80830000D01*
X140824800Y-83227204D02*
X140824800Y-101018801D01*
X140824800Y-101018801D02*
X131150401Y-110693200D01*
X184541200Y-83347600D02*
X184541200Y-85714800D01*
X140824800Y-83227204D02*
X143222004Y-80830000D01*
X182023600Y-80830000D02*
X184541200Y-83347600D01*
X184541200Y-85714800D02*
X184541200Y-85722700D01*
X141274800Y-116596001D02*
X131150401Y-126720400D01*
X178876751Y-81280000D02*
X180985200Y-83388449D01*
X143408400Y-81280000D02*
X178876751Y-81280000D01*
X180985200Y-83388449D02*
X180985200Y-85722700D01*
X141274800Y-83413600D02*
X143408400Y-81280000D01*
X141274800Y-83413600D02*
X141274800Y-116596001D01*
X125742600Y-73665000D02*
X160036599Y-73665000D01*
X121150400Y-78257200D02*
X125742600Y-73665000D01*
X160036599Y-73665000D02*
X161377599Y-75006000D01*
X121150400Y-94452399D02*
X121186001Y-94488000D01*
X121186001Y-94488000D02*
X121186001Y-110657599D01*
X121186001Y-110657599D02*
X121150400Y-110693200D01*
X121150400Y-78257200D02*
X121150400Y-94452399D01*
X121150400Y-110693200D02*
X121150400Y-126720400D01*
X130292600Y-74115000D02*
X126150400Y-78257200D01*
X156377599Y-75006000D02*
X156377599Y-74945199D01*
X126150400Y-94523601D02*
X126186001Y-94488000D01*
X126186001Y-78292801D02*
X126150400Y-78257200D01*
X155549600Y-74115000D02*
X130292600Y-74115000D01*
X155549600Y-74117200D02*
X155549600Y-74115000D01*
X126150400Y-126720400D02*
X126150400Y-110693200D01*
X126150400Y-110693200D02*
X126150400Y-94523601D01*
X156377599Y-74945199D02*
X155549600Y-74117200D01*
X126186001Y-94488000D02*
X126186001Y-78292801D01*
X96150399Y-78257200D02*
X96150399Y-94452399D01*
X96150399Y-94452399D02*
X96186000Y-94488000D01*
X96150399Y-78257200D02*
X103019199Y-71388400D01*
X182760000Y-71388400D02*
X186377600Y-75006000D01*
X96150399Y-126720400D02*
X96150399Y-110693200D01*
X96186000Y-110657599D02*
X96150399Y-110693200D01*
X96186000Y-94488000D02*
X96186000Y-110657599D01*
X103019199Y-71388400D02*
X182760000Y-71388400D01*
D40*
X230385400Y-117850400D02*
X235610400Y-112625400D01*
X209440700Y-117850400D02*
X230385400Y-117850400D01*
X222046800Y-115011200D02*
X228964800Y-115011200D01*
X201445200Y-112484400D02*
X198841200Y-109880400D01*
X197655100Y-117850400D02*
X197655100Y-116274500D01*
X220624400Y-112625400D02*
X220624400Y-113588800D01*
X228964800Y-115011200D02*
X229760200Y-114215800D01*
X215646000Y-112484400D02*
X201445200Y-112484400D01*
X197655100Y-116274500D02*
X201445200Y-112484400D01*
X220624400Y-112625400D02*
X215787000Y-112625400D01*
X229760200Y-114215800D02*
X229760200Y-110915800D01*
X220624400Y-113588800D02*
X222046800Y-115011200D01*
D39*
X160070800Y-122096200D02*
X159946600Y-121972000D01*
X155330700Y-121972000D02*
X155143200Y-122159500D01*
X159946600Y-121972000D02*
X157581600Y-121972000D01*
X162333700Y-122098000D02*
X160072600Y-122098000D01*
X160072600Y-122098000D02*
X160070800Y-122096200D01*
X157581600Y-121972000D02*
X155330700Y-121972000D01*
X155381500Y-109221200D02*
X155194000Y-109408700D01*
X157683200Y-109221200D02*
X155381500Y-109221200D01*
X159946600Y-109221200D02*
X157683200Y-109221200D01*
X160121600Y-109396200D02*
X159946600Y-109221200D01*
X160123400Y-109398000D02*
X160121600Y-109396200D01*
X162384500Y-109398000D02*
X160123400Y-109398000D01*
X157784800Y-96622800D02*
X160149800Y-96622800D01*
X160274000Y-96747000D02*
X162636700Y-96747000D01*
X162636700Y-96747000D02*
X162638500Y-96748800D01*
X160149800Y-96622800D02*
X160274000Y-96747000D01*
X155244800Y-96759500D02*
X155381500Y-96622800D01*
X155381500Y-96622800D02*
X157784800Y-96622800D01*
X157480000Y-83922800D02*
X159845000Y-83922800D01*
X157343300Y-84059500D02*
X157480000Y-83922800D01*
X159845000Y-83922800D02*
X159969200Y-84047000D01*
X162433500Y-84047000D02*
X162435300Y-84048800D01*
X159969200Y-84047000D02*
X162433500Y-84047000D01*
X155041600Y-84059500D02*
X157343300Y-84059500D01*
X75715800Y-90129450D02*
X75715800Y-87564950D01*
X75715800Y-87564950D02*
X75730500Y-87550250D01*
X75730500Y-87550250D02*
X77517400Y-87550250D01*
X74445800Y-90129450D02*
X75715800Y-90129450D01*
X79144800Y-89732850D02*
X77382400Y-89732850D01*
X77382400Y-89732850D02*
X76985800Y-90129450D01*
X259222800Y-89308200D02*
X257435900Y-89308200D01*
X257675200Y-89547500D02*
X257675200Y-91836600D01*
X259222800Y-89308200D02*
X258945200Y-89585800D01*
X258945200Y-89585800D02*
X258945200Y-91836600D01*
X257435900Y-89308200D02*
X257675200Y-89547500D01*
X262374200Y-91389200D02*
X260662600Y-91389200D01*
X260662600Y-91389200D02*
X260215200Y-91836600D01*
X271569000Y-93095400D02*
X270299000Y-94365400D01*
X274784100Y-89359000D02*
X273905400Y-89359000D01*
X271569000Y-91695400D02*
X271569000Y-92395400D01*
X266870000Y-94792800D02*
X268496400Y-94792800D01*
X270299000Y-96595400D02*
X270299000Y-97295400D01*
X268496400Y-94792800D02*
X270299000Y-96595400D01*
X273905400Y-89359000D02*
X271569000Y-91695400D01*
X271569000Y-92395400D02*
X271569000Y-93095400D01*
X270299000Y-94365400D02*
X270299000Y-97295400D01*
X274998000Y-91948000D02*
X273286400Y-91948000D01*
X273286400Y-91948000D02*
X272839000Y-92395400D01*
X157581600Y-128915900D02*
X157338300Y-129159200D01*
X157581600Y-125272000D02*
X157581600Y-128915900D01*
X157683200Y-116317500D02*
X157439900Y-116560800D01*
X157683200Y-112521200D02*
X157683200Y-116317500D01*
X157784800Y-103617500D02*
X157490700Y-103911600D01*
X157784800Y-99922800D02*
X157784800Y-103617500D01*
X157480000Y-90714300D02*
X157135100Y-91059200D01*
X157480000Y-87222800D02*
X157480000Y-90714300D01*
D40*
X224660200Y-110915800D02*
X224625600Y-110950400D01*
X224625600Y-110950400D02*
X218812000Y-110950400D01*
X215595200Y-107733600D02*
X215646000Y-107784400D01*
X215595200Y-105000000D02*
X215595200Y-107733600D01*
X218812000Y-110950400D02*
X215646000Y-107784400D01*
D39*
X171907200Y-89701300D02*
X174396400Y-89701300D01*
X171770500Y-89564600D02*
X171907200Y-89701300D01*
X176936400Y-89701300D02*
X174396400Y-89701300D01*
X169519600Y-89564600D02*
X171770500Y-89564600D01*
X180644800Y-96621600D02*
X182356800Y-96621600D01*
X179374800Y-95351600D02*
X180644800Y-96621600D01*
X174432200Y-88926300D02*
X177673900Y-88926300D01*
X177673900Y-88926300D02*
X179374800Y-90627200D01*
X179374800Y-90627200D02*
X179374800Y-95351600D01*
X171907200Y-86401300D02*
X174432200Y-88926300D01*
X169519600Y-102315400D02*
X171872100Y-102315400D01*
X171958000Y-102401300D02*
X174396400Y-102401300D01*
X171872100Y-102315400D02*
X171958000Y-102401300D01*
X174396400Y-102401300D02*
X176885600Y-102401300D01*
X169519600Y-114924500D02*
X171872100Y-114924500D01*
X174447200Y-115010400D02*
X176885600Y-115010400D01*
X171872100Y-114924500D02*
X171958000Y-115010400D01*
X171958000Y-115010400D02*
X174447200Y-115010400D01*
X174396400Y-127659600D02*
X176834800Y-127659600D01*
X171872100Y-127573700D02*
X171958000Y-127659600D01*
X169570400Y-127573700D02*
X171872100Y-127573700D01*
X171958000Y-127659600D02*
X174396400Y-127659600D01*
X190093600Y-92879027D02*
X190093600Y-98653600D01*
X182896700Y-92073000D02*
X189287573Y-92073000D01*
X190093600Y-98653600D02*
X188315600Y-100431600D01*
X188264800Y-100939600D02*
X187756800Y-100431600D01*
X189287573Y-92073000D02*
X190093600Y-92879027D01*
X199288400Y-100939600D02*
X188264800Y-100939600D01*
X188315600Y-100431600D02*
X187756800Y-100431600D01*
X181559200Y-93410500D02*
X182896700Y-92073000D01*
X201828400Y-100939600D02*
X213173200Y-89594800D01*
X235881549Y-89594800D02*
X237640349Y-91353600D01*
X213173200Y-89594800D02*
X235881549Y-89594800D01*
X241333800Y-91353600D02*
X242237500Y-90449900D01*
X239974600Y-91353600D02*
X241333800Y-91353600D01*
X237640349Y-91353600D02*
X239974600Y-91353600D01*
X228903000Y-91033600D02*
X229141800Y-90794800D01*
X204368400Y-100939600D02*
X214274400Y-91033600D01*
X214274400Y-91033600D02*
X228903000Y-91033600D01*
X237379504Y-98084100D02*
X243138000Y-98084100D01*
X203017643Y-108243957D02*
X201381200Y-109880400D01*
X201381200Y-109880400D02*
X207836600Y-103425000D01*
X208766457Y-108243957D02*
X203017643Y-108243957D01*
X210058000Y-109535500D02*
X208766457Y-108243957D01*
X215651000Y-103425000D02*
X222335200Y-96740800D01*
X243138000Y-98084100D02*
X245576400Y-98084100D01*
X222335200Y-96740800D02*
X236036204Y-96740800D01*
X236036204Y-96740800D02*
X237379504Y-98084100D01*
X207836600Y-103425000D02*
X215651000Y-103425000D01*
X155131601Y-125096099D02*
X150901400Y-125096099D01*
X155143200Y-125084500D02*
X155131601Y-125096099D01*
X155194000Y-112333700D02*
X155182401Y-112345299D01*
X155182401Y-112345299D02*
X150901400Y-112345299D01*
X155233201Y-99696099D02*
X155244800Y-99684500D01*
X150901400Y-99696099D02*
X155233201Y-99696099D01*
X150952200Y-86996099D02*
X155030001Y-86996099D01*
X155030001Y-86996099D02*
X155041600Y-86984500D01*
X47961400Y-117970050D02*
X47961400Y-118445050D01*
X47961400Y-118445050D02*
X48586400Y-119070050D01*
X48586400Y-119070050D02*
X59339550Y-119070050D01*
X59543800Y-118865800D02*
X59543800Y-117970050D01*
X59339550Y-119070050D02*
X59543800Y-118865800D01*
X75322200Y-84364600D02*
X75322200Y-81909650D01*
X71100800Y-123845050D02*
X72150800Y-124895050D01*
X71100800Y-123370050D02*
X71100800Y-123845050D01*
X72150800Y-124895050D02*
X78762150Y-124895050D01*
X81381600Y-122275600D02*
X81381600Y-86309200D01*
X78762150Y-124895050D02*
X81381600Y-122275600D01*
X81381600Y-86309200D02*
X80365600Y-85293200D01*
X76250800Y-85293200D02*
X75322200Y-84364600D01*
X80365600Y-85293200D02*
X76250800Y-85293200D01*
X54311400Y-117970050D02*
X54311400Y-117495050D01*
X54936400Y-116870050D02*
X65562050Y-116870050D01*
X54311400Y-117495050D02*
X54936400Y-116870050D01*
X65893800Y-117201800D02*
X65893800Y-117970050D01*
X65562050Y-116870050D02*
X65893800Y-117201800D01*
X65462000Y-97251250D02*
X65462000Y-100208350D01*
X62922000Y-97251250D02*
X62922000Y-100208350D01*
X60382000Y-97251250D02*
X60382000Y-100208350D01*
X55302000Y-97251250D02*
X55302000Y-100208350D01*
X52762000Y-97251250D02*
X52762000Y-100208350D01*
X50222000Y-97251250D02*
X50222000Y-100208350D01*
X47682000Y-100208350D02*
X47682000Y-97251250D01*
X65462000Y-82011250D02*
X65462000Y-79003350D01*
X62922000Y-79003350D02*
X62922000Y-82011250D01*
X60382000Y-79054150D02*
X60382000Y-82011250D01*
X60432800Y-79003350D02*
X60382000Y-79054150D01*
X52762000Y-79003350D02*
X52762000Y-82011250D01*
X50222000Y-79003350D02*
X50222000Y-82011250D01*
X47682000Y-79003350D02*
X47682000Y-82011250D01*
X45142000Y-82011250D02*
X45142000Y-79003350D01*
X187756800Y-101701600D02*
X182356800Y-101701600D01*
X237521000Y-95468400D02*
X235961400Y-93908800D01*
X183032400Y-101701600D02*
X182356800Y-101701600D01*
X182831800Y-97891600D02*
X183431800Y-98491600D01*
X182356800Y-97891600D02*
X182831800Y-97891600D01*
X183431800Y-98491600D02*
X183431800Y-101302200D01*
X183431800Y-101302200D02*
X183032400Y-101701600D01*
X182356800Y-97891600D02*
X187756800Y-97891600D01*
X237930200Y-95468400D02*
X237521000Y-95468400D01*
X259286100Y-99315800D02*
X258945200Y-98974900D01*
X259286100Y-99315800D02*
X262646200Y-102675900D01*
X258945200Y-98974900D02*
X258945200Y-96736600D01*
X262646200Y-102675900D02*
X262646200Y-104792800D01*
X187764400Y-108051600D02*
X182364400Y-108051600D01*
X182364400Y-111861600D02*
X187764400Y-111861600D01*
X237269800Y-86984800D02*
X237269800Y-89573800D01*
X237269800Y-89573800D02*
X238099600Y-90403600D01*
X232066800Y-90794800D02*
X233695200Y-90794800D01*
X233695200Y-90794800D02*
X234086400Y-90403600D01*
X234086400Y-92303600D02*
X234086400Y-94858800D01*
X232458000Y-95808800D02*
X232066800Y-95417600D01*
X235961400Y-95808800D02*
X232458000Y-95808800D01*
X189753200Y-85722700D02*
X189753200Y-89606700D01*
X189753200Y-89606700D02*
X188874400Y-90485500D01*
X186197200Y-85722700D02*
X186197200Y-90297500D01*
X186197200Y-90297500D02*
X186385200Y-90485500D01*
X182641200Y-89129100D02*
X182641200Y-85722700D01*
X183997600Y-90485500D02*
X182641200Y-89129100D01*
X179085200Y-85722700D02*
X179085200Y-88011500D01*
X179085200Y-88011500D02*
X181559200Y-90485500D01*
X166699700Y-123048000D02*
X167182800Y-123531100D01*
X164208700Y-123048000D02*
X166699700Y-123048000D01*
X164208700Y-125603200D02*
X164208700Y-123048000D01*
X176456100Y-121148000D02*
X184472500Y-113131600D01*
X164208700Y-121148000D02*
X176456100Y-121148000D01*
X184472500Y-113131600D02*
X187764400Y-113131600D01*
X165660027Y-126228200D02*
X163424449Y-126228200D01*
X167239527Y-124648700D02*
X165660027Y-126228200D01*
X163424449Y-126228200D02*
X162333700Y-125137451D01*
X169570400Y-124648700D02*
X167239527Y-124648700D01*
X162333700Y-125137451D02*
X162333700Y-124653200D01*
X164259500Y-112954000D02*
X164259500Y-110348000D01*
X164259500Y-110348000D02*
X166598100Y-110348000D01*
X166598100Y-110348000D02*
X167132000Y-110881900D01*
X187164400Y-109921600D02*
X187764400Y-109321600D01*
X164259500Y-108448000D02*
X178368800Y-108448000D01*
X178368800Y-108448000D02*
X179842400Y-109921600D01*
X179842400Y-109921600D02*
X187164400Y-109921600D01*
X167188727Y-111999500D02*
X165609227Y-113579000D01*
X169519600Y-111999500D02*
X167188727Y-111999500D01*
X165609227Y-113579000D02*
X163475249Y-113579000D01*
X162384500Y-112488251D02*
X162384500Y-112004000D01*
X163475249Y-113579000D02*
X162384500Y-112488251D01*
X164513500Y-97698800D02*
X164513500Y-100304800D01*
X166558000Y-97698800D02*
X167132000Y-98272800D01*
X164513500Y-97698800D02*
X166558000Y-97698800D01*
X178044000Y-95798800D02*
X179374800Y-97129600D01*
X164513500Y-95798800D02*
X178044000Y-95798800D01*
X179374800Y-97129600D02*
X179374800Y-105511600D01*
X180644800Y-106781600D02*
X182364400Y-106781600D01*
X179374800Y-105511600D02*
X180644800Y-106781600D01*
X162638500Y-99839051D02*
X162638500Y-99354800D01*
X163729249Y-100929800D02*
X162638500Y-99839051D01*
X165297751Y-100929800D02*
X163729249Y-100929800D01*
X169519600Y-99390400D02*
X166837151Y-99390400D01*
X166837151Y-99390400D02*
X165297751Y-100929800D01*
X164310300Y-84998800D02*
X166659600Y-84998800D01*
X164310300Y-87604800D02*
X164310300Y-84998800D01*
X166659600Y-84998800D02*
X167182800Y-85522000D01*
X165094551Y-88229800D02*
X163519551Y-88229800D01*
X166684751Y-86639600D02*
X165094551Y-88229800D01*
X162435300Y-87145549D02*
X162435300Y-86654800D01*
X163519551Y-88229800D02*
X162435300Y-87145549D01*
X169519600Y-86639600D02*
X166684751Y-86639600D01*
X247890100Y-90337600D02*
X245673500Y-90337600D01*
X240523073Y-86984800D02*
X243784600Y-90246327D01*
X247964000Y-93990700D02*
X247964000Y-92311500D01*
X244922600Y-92237600D02*
X247890100Y-92237600D01*
X243784600Y-91099600D02*
X244922600Y-92237600D01*
X255629300Y-93990700D02*
X257675200Y-96036600D01*
X257334300Y-99315800D02*
X257675200Y-98974900D01*
X247964000Y-93990700D02*
X255629300Y-93990700D01*
X247964000Y-92311500D02*
X247890100Y-92237600D01*
X257675200Y-96036600D02*
X257675200Y-96736600D01*
X257675200Y-98974900D02*
X257675200Y-96736600D01*
X240194800Y-86984800D02*
X240523073Y-86984800D01*
X243784600Y-90246327D02*
X243784600Y-91099600D01*
X75886700Y-105742450D02*
X75886700Y-108133150D01*
X70612000Y-112014000D02*
X70162000Y-112464000D01*
X55372000Y-112464000D02*
X54362200Y-113473800D01*
X75846600Y-108173250D02*
X75846600Y-110897623D01*
X54362200Y-113473800D02*
X54362200Y-114378450D01*
X74730223Y-112014000D02*
X70612000Y-112014000D01*
X70162000Y-112464000D02*
X55372000Y-112464000D01*
X75846600Y-110897623D02*
X74730223Y-112014000D01*
X75886700Y-108133150D02*
X75846600Y-108173250D01*
X65893800Y-114765100D02*
X65893800Y-114378450D01*
X68020350Y-116891650D02*
X65893800Y-114765100D01*
X73630100Y-115691650D02*
X72430100Y-116891650D01*
X73640800Y-115702350D02*
X73630100Y-115691650D01*
X73640800Y-117970050D02*
X73640800Y-115702350D01*
X72430100Y-116891650D02*
X68020350Y-116891650D01*
X52404850Y-116870050D02*
X53041400Y-117506600D01*
X70766600Y-110725173D02*
X69477773Y-112014000D01*
X48758800Y-116870050D02*
X52404850Y-116870050D01*
X46742200Y-114378450D02*
X46742200Y-114853450D01*
X46742200Y-113531800D02*
X46742200Y-114378450D01*
X46742200Y-114853450D02*
X48758800Y-116870050D01*
X70766600Y-108173250D02*
X70766600Y-110725173D01*
X70766600Y-105782550D02*
X70806700Y-105742450D01*
X48260000Y-112014000D02*
X46742200Y-113531800D01*
X69477773Y-112014000D02*
X48260000Y-112014000D01*
X53041400Y-117506600D02*
X53041400Y-117970050D01*
X70766600Y-108173250D02*
X70766600Y-105782550D01*
X245576400Y-95159100D02*
X245576400Y-93359700D01*
X250300800Y-95159100D02*
X245576400Y-95159100D01*
X51422000Y-77278350D02*
X51422000Y-107633650D01*
X50222000Y-76078350D02*
X51422000Y-77278350D01*
X51422000Y-107633650D02*
X50552200Y-108503450D01*
X50552200Y-108503450D02*
X50552200Y-108978450D01*
X53962000Y-77278350D02*
X53962000Y-106363650D01*
X52762000Y-76078350D02*
X53962000Y-77278350D01*
X51822200Y-108503450D02*
X51822200Y-108978450D01*
X53962000Y-106363650D02*
X51822200Y-108503450D01*
X45142000Y-76078350D02*
X43942000Y-77278350D01*
X48012200Y-107944650D02*
X48012200Y-108978450D01*
X43942000Y-103874450D02*
X48012200Y-107944650D01*
X43942000Y-77278350D02*
X43942000Y-103874450D01*
X47682000Y-76078350D02*
X49022000Y-77418350D01*
X49022000Y-77418350D02*
X49022000Y-108718250D01*
X49022000Y-108718250D02*
X49282200Y-108978450D01*
X61722000Y-77278350D02*
X61722000Y-108616650D01*
X61722000Y-108616650D02*
X62083800Y-108978450D01*
X62922000Y-76078350D02*
X61722000Y-77278350D01*
X64262000Y-107615250D02*
X63353800Y-108523450D01*
X65462000Y-76078350D02*
X64262000Y-77278350D01*
X64262000Y-77278350D02*
X64262000Y-107615250D01*
X63353800Y-108523450D02*
X63353800Y-108978450D01*
X59162800Y-108597450D02*
X59543800Y-108978450D01*
X60432800Y-76078350D02*
X59162800Y-77348350D01*
X59162800Y-77348350D02*
X59162800Y-108597450D01*
X71067600Y-95464350D02*
X71957700Y-96354450D01*
X73642600Y-96354450D02*
X74445800Y-95551250D01*
X74445800Y-95551250D02*
X74445800Y-95029450D01*
X71957700Y-96354450D02*
X73642600Y-96354450D01*
X78720800Y-117970050D02*
X78720800Y-115702350D01*
X78720800Y-115702350D02*
X78710100Y-115691650D01*
X72076700Y-105742450D02*
X72076700Y-110510050D01*
X72076700Y-110510050D02*
X72065575Y-110521175D01*
X77450800Y-113263950D02*
X77461500Y-113253250D01*
X60954850Y-119070050D02*
X60813800Y-118929000D01*
X77450800Y-118445050D02*
X76825800Y-119070050D01*
X76825800Y-119070050D02*
X60954850Y-119070050D01*
X60813800Y-118929000D02*
X60813800Y-117970050D01*
X77450800Y-117970050D02*
X77450800Y-118445050D01*
X77450800Y-117970050D02*
X77450800Y-113263950D01*
X74616700Y-105742450D02*
X74616700Y-110376850D01*
X74462775Y-110530775D02*
X74432700Y-110560850D01*
X74616700Y-110376850D02*
X74462775Y-110530775D01*
X74897600Y-113255750D02*
X74900100Y-113253250D01*
X67609250Y-113278450D02*
X65435950Y-113278450D01*
X74897600Y-117956850D02*
X74897600Y-113255750D01*
X74910800Y-117970050D02*
X74897600Y-117956850D01*
X68784050Y-114453250D02*
X67609250Y-113278450D01*
X74900100Y-113253250D02*
X73700100Y-114453250D01*
X65435950Y-113278450D02*
X64623800Y-114090600D01*
X64623800Y-114090600D02*
X64623800Y-114378450D01*
X73700100Y-114453250D02*
X68784050Y-114453250D01*
X187664800Y-92939427D02*
X187664800Y-93951573D01*
X188831800Y-96359400D02*
X188569600Y-96621600D01*
X183997600Y-93410500D02*
X184634527Y-93410500D01*
X187664800Y-93951573D02*
X188011227Y-94298000D01*
X188011227Y-94298000D02*
X188227200Y-94298000D01*
X187248373Y-92523000D02*
X187664800Y-92939427D01*
X188227200Y-94298000D02*
X188831800Y-94902600D01*
X185522027Y-92523000D02*
X187248373Y-92523000D01*
X188831800Y-94902600D02*
X188831800Y-96359400D01*
X184634527Y-93410500D02*
X185522027Y-92523000D01*
X188569600Y-96621600D02*
X187756800Y-96621600D01*
X182356800Y-95351600D02*
X184444100Y-95351600D01*
X184444100Y-95351600D02*
X186385200Y-93410500D01*
X270299000Y-89699900D02*
X270299000Y-92395400D01*
X269958100Y-89359000D02*
X270299000Y-89699900D01*
X271859100Y-89359000D02*
X269958100Y-89359000D01*
X266954600Y-109117800D02*
X266496800Y-109575600D01*
X272846800Y-110192800D02*
X272846800Y-109717800D01*
X272846800Y-109717800D02*
X272246800Y-109117800D01*
X272246800Y-109117800D02*
X266954600Y-109117800D01*
X266496800Y-109575600D02*
X266496800Y-110192800D01*
X266293600Y-106121200D02*
X265531600Y-106883200D01*
X274116800Y-105267800D02*
X273263400Y-106121200D01*
X265896800Y-111267800D02*
X267243000Y-111267800D01*
X265531600Y-106883200D02*
X265531600Y-110902600D01*
X267243000Y-111267800D02*
X267766800Y-110744000D01*
X274116800Y-104792800D02*
X274116800Y-105267800D01*
X265531600Y-110902600D02*
X265896800Y-111267800D01*
X273263400Y-106121200D02*
X266293600Y-106121200D01*
X267766800Y-110744000D02*
X267766800Y-110192800D01*
X63235950Y-124470050D02*
X63353800Y-124352200D01*
X54311400Y-123845050D02*
X54936400Y-124470050D01*
X54311400Y-123370050D02*
X54311400Y-123845050D01*
X63353800Y-124352200D02*
X63353800Y-123370050D01*
X54936400Y-124470050D02*
X63235950Y-124470050D01*
X260106200Y-110192800D02*
X260106200Y-109717800D01*
X261376200Y-108447800D02*
X261376200Y-104792800D01*
X260106200Y-109717800D02*
X261376200Y-108447800D01*
X258836200Y-104317800D02*
X259436200Y-103717800D01*
X258836200Y-104792800D02*
X258836200Y-104317800D01*
X261998600Y-109570400D02*
X261376200Y-110192800D01*
X261976200Y-103717800D02*
X261998600Y-103740200D01*
X259436200Y-103717800D02*
X261976200Y-103717800D01*
X261998600Y-103740200D02*
X261998600Y-109570400D01*
X73346700Y-105742450D02*
X73346700Y-100342450D01*
X74910800Y-123370050D02*
X74910800Y-123845050D01*
X73040800Y-124445050D02*
X72370800Y-123775050D01*
X72370800Y-123775050D02*
X72370800Y-123370050D01*
X74310800Y-124445050D02*
X73040800Y-124445050D01*
X74910800Y-123845050D02*
X74310800Y-124445050D01*
M02*
