G04 #@! TF.GenerationSoftware,KiCad,Pcbnew,(6.0.6)*
G04 #@! TF.CreationDate,2023-06-19T14:34:31+09:30*
G04 #@! TF.ProjectId,RPi Arcade Hat V0-3,52506920-4172-4636-9164-652048617420,rev?*
G04 #@! TF.SameCoordinates,Original*
G04 #@! TF.FileFunction,Profile,NP*
%FSLAX46Y46*%
G04 Gerber Fmt 4.6, Leading zero omitted, Abs format (unit mm)*
G04 Created by KiCad (PCBNEW (6.0.6)) date 2023-06-19 14:34:31*
%MOMM*%
%LPD*%
G01*
G04 APERTURE LIST*
G04 #@! TA.AperFunction,Profile*
%ADD10C,0.100000*%
G04 #@! TD*
G04 APERTURE END LIST*
D10*
X84836000Y-131572000D02*
X86360000Y-131572000D01*
X86360000Y-131572000D02*
X86360000Y-68072000D01*
X86360000Y-68072000D02*
X84836000Y-68072000D01*
X84836000Y-68072000D02*
X84836000Y-131572000D01*
X38100000Y-67564000D02*
X279400000Y-67564000D01*
X279400000Y-67564000D02*
X279400000Y-132080000D01*
X279400000Y-132080000D02*
X38100000Y-132080000D01*
X38100000Y-132080000D02*
X38100000Y-67564000D01*
X205455933Y-79603600D02*
G75*
G03*
X205455933Y-79603600I-2001933J0D01*
G01*
X142565533Y-77063600D02*
G75*
G03*
X142565533Y-77063600I-2001933J0D01*
G01*
X230073201Y-127863600D02*
G75*
G03*
X230073201Y-127863600I-1997416J0D01*
G01*
X84226400Y-70053200D02*
G75*
G03*
X84226400Y-70053200I-1524000J0D01*
G01*
X42316400Y-70104000D02*
G75*
G03*
X42316400Y-70104000I-1524000J0D01*
G01*
X42214800Y-129590800D02*
G75*
G03*
X42214800Y-129590800I-1524000J0D01*
G01*
X84175600Y-129540000D02*
G75*
G03*
X84175600Y-129540000I-1524000J0D01*
G01*
X194326216Y-103886000D02*
G75*
G03*
X194326216Y-103886000I-1997416J0D01*
G01*
X90678000Y-118821200D02*
G75*
G03*
X90678000Y-118821200I-2032000J0D01*
G01*
X91359133Y-70764400D02*
G75*
G03*
X91359133Y-70764400I-2001933J0D01*
G01*
X276235102Y-72085200D02*
G75*
G03*
X276235102Y-72085200I-2016702J0D01*
G01*
X240842800Y-119024400D02*
X273761200Y-119024400D01*
X273761200Y-119024400D02*
X273761200Y-131572000D01*
X273761200Y-131572000D02*
X240842800Y-131572000D01*
X240842800Y-131572000D02*
X240842800Y-119024400D01*
X218987841Y-79171800D02*
G75*
G03*
X218987841Y-79171800I-1436841J0D01*
G01*
X218987841Y-128193800D02*
G75*
G03*
X218987841Y-128193800I-1436841J0D01*
G01*
X277153841Y-128193800D02*
G75*
G03*
X277153841Y-128193800I-1436841J0D01*
G01*
X277153841Y-79171800D02*
G75*
G03*
X277153841Y-79171800I-1436841J0D01*
G01*
M02*
