G04 #@! TF.GenerationSoftware,KiCad,Pcbnew,(6.0.6)*
G04 #@! TF.CreationDate,2023-06-19T20:01:57+09:30*
G04 #@! TF.ProjectId,RPi Arcade Hat V0-3,52506920-4172-4636-9164-652048617420,rev?*
G04 #@! TF.SameCoordinates,Original*
G04 #@! TF.FileFunction,Soldermask,Top*
G04 #@! TF.FilePolarity,Negative*
%FSLAX46Y46*%
G04 Gerber Fmt 4.6, Leading zero omitted, Abs format (unit mm)*
G04 Created by KiCad (PCBNEW (6.0.6)) date 2023-06-19 20:01:57*
%MOMM*%
%LPD*%
G01*
G04 APERTURE LIST*
G04 Aperture macros list*
%AMRoundRect*
0 Rectangle with rounded corners*
0 $1 Rounding radius*
0 $2 $3 $4 $5 $6 $7 $8 $9 X,Y pos of 4 corners*
0 Add a 4 corners polygon primitive as box body*
4,1,4,$2,$3,$4,$5,$6,$7,$8,$9,$2,$3,0*
0 Add four circle primitives for the rounded corners*
1,1,$1+$1,$2,$3*
1,1,$1+$1,$4,$5*
1,1,$1+$1,$6,$7*
1,1,$1+$1,$8,$9*
0 Add four rect primitives between the rounded corners*
20,1,$1+$1,$2,$3,$4,$5,0*
20,1,$1+$1,$4,$5,$6,$7,0*
20,1,$1+$1,$6,$7,$8,$9,0*
20,1,$1+$1,$8,$9,$2,$3,0*%
G04 Aperture macros list end*
%ADD10RoundRect,0.150000X0.587500X0.150000X-0.587500X0.150000X-0.587500X-0.150000X0.587500X-0.150000X0*%
%ADD11RoundRect,0.250000X-0.625000X0.312500X-0.625000X-0.312500X0.625000X-0.312500X0.625000X0.312500X0*%
%ADD12RoundRect,0.250000X0.625000X-0.312500X0.625000X0.312500X-0.625000X0.312500X-0.625000X-0.312500X0*%
%ADD13R,0.600000X2.000000*%
%ADD14R,1.200000X0.900000*%
%ADD15RoundRect,0.250000X-0.650000X0.325000X-0.650000X-0.325000X0.650000X-0.325000X0.650000X0.325000X0*%
%ADD16RoundRect,0.250000X0.312500X0.625000X-0.312500X0.625000X-0.312500X-0.625000X0.312500X-0.625000X0*%
%ADD17RoundRect,0.150000X-0.587500X-0.150000X0.587500X-0.150000X0.587500X0.150000X-0.587500X0.150000X0*%
%ADD18RoundRect,0.150000X0.150000X-0.587500X0.150000X0.587500X-0.150000X0.587500X-0.150000X-0.587500X0*%
%ADD19RoundRect,0.250000X-0.312500X-0.625000X0.312500X-0.625000X0.312500X0.625000X-0.312500X0.625000X0*%
%ADD20R,1.700000X1.700000*%
%ADD21O,1.700000X1.700000*%
%ADD22RoundRect,0.070000X-0.275000X-0.750000X0.275000X-0.750000X0.275000X0.750000X-0.275000X0.750000X0*%
%ADD23RoundRect,0.070000X-0.300000X-0.775000X0.300000X-0.775000X0.300000X0.775000X-0.300000X0.775000X0*%
%ADD24RoundRect,0.070000X0.275000X0.750000X-0.275000X0.750000X-0.275000X-0.750000X0.275000X-0.750000X0*%
%ADD25RoundRect,0.070000X0.750000X-0.275000X0.750000X0.275000X-0.750000X0.275000X-0.750000X-0.275000X0*%
%ADD26R,3.300000X2.500000*%
%ADD27RoundRect,0.250000X-0.325000X-0.650000X0.325000X-0.650000X0.325000X0.650000X-0.325000X0.650000X0*%
%ADD28R,1.100000X4.600000*%
%ADD29R,10.800000X9.400000*%
%ADD30RoundRect,0.250000X1.100000X-0.325000X1.100000X0.325000X-1.100000X0.325000X-1.100000X-0.325000X0*%
%ADD31R,5.700000X1.600000*%
%ADD32C,1.524000*%
%ADD33R,3.500000X3.500000*%
%ADD34RoundRect,0.750000X1.000000X-0.750000X1.000000X0.750000X-1.000000X0.750000X-1.000000X-0.750000X0*%
%ADD35RoundRect,0.875000X0.875000X-0.875000X0.875000X0.875000X-0.875000X0.875000X-0.875000X-0.875000X0*%
%ADD36C,2.032000*%
%ADD37C,1.270000*%
G04 APERTURE END LIST*
D10*
X164208700Y-123048000D03*
X164208700Y-121148000D03*
X162333700Y-122098000D03*
X164259500Y-110348000D03*
X164259500Y-108448000D03*
X162384500Y-109398000D03*
D11*
X167132000Y-98272800D03*
X167132000Y-101197800D03*
D12*
X71067600Y-95464350D03*
X71067600Y-92539350D03*
D13*
X256405200Y-96736600D03*
X257675200Y-96736600D03*
X258945200Y-96736600D03*
X260215200Y-96736600D03*
X260215200Y-91836600D03*
X258945200Y-91836600D03*
X257675200Y-91836600D03*
X256405200Y-91836600D03*
D14*
X171907200Y-89701300D03*
X171907200Y-86401300D03*
D15*
X266870000Y-94792800D03*
X266870000Y-97742800D03*
D16*
X73691600Y-108173250D03*
X70766600Y-108173250D03*
D14*
X174396400Y-89701300D03*
X174396400Y-86401300D03*
X171958000Y-115010400D03*
X171958000Y-111710400D03*
D11*
X169519600Y-86639600D03*
X169519600Y-89564600D03*
D17*
X162333700Y-124653200D03*
X162333700Y-126553200D03*
X164208700Y-125603200D03*
D15*
X159969200Y-84047000D03*
X159969200Y-86997000D03*
D16*
X78771600Y-108173250D03*
X75846600Y-108173250D03*
D18*
X179085200Y-85722700D03*
X180985200Y-85722700D03*
X180035200Y-83847700D03*
D14*
X174396400Y-127659600D03*
X174396400Y-124359600D03*
D11*
X186385200Y-90485500D03*
X186385200Y-93410500D03*
D12*
X242237500Y-93374900D03*
X242237500Y-90449900D03*
D16*
X74900100Y-113253250D03*
X71975100Y-113253250D03*
D12*
X250300800Y-98084100D03*
X250300800Y-95159100D03*
D11*
X52762000Y-100208350D03*
X52762000Y-103133350D03*
D15*
X274998000Y-91948000D03*
X274998000Y-94898000D03*
D19*
X157490700Y-103911600D03*
X160415700Y-103911600D03*
D20*
X70242200Y-81909650D03*
D21*
X72782200Y-81909650D03*
X75322200Y-81909650D03*
X77862200Y-81909650D03*
X80402200Y-81909650D03*
D17*
X247890100Y-90337600D03*
X247890100Y-92237600D03*
X249765100Y-91287600D03*
D10*
X164513500Y-97698800D03*
X164513500Y-95798800D03*
X162638500Y-96748800D03*
D19*
X259286100Y-99315800D03*
X262211100Y-99315800D03*
D22*
X70806700Y-105742450D03*
X72076700Y-105742450D03*
X73346700Y-105742450D03*
X74616700Y-105742450D03*
X75886700Y-105742450D03*
X77156700Y-105742450D03*
X78426700Y-105742450D03*
X78426700Y-100342450D03*
X77156700Y-100342450D03*
X75886700Y-100342450D03*
X74616700Y-100342450D03*
X73346700Y-100342450D03*
X72076700Y-100342450D03*
X70806700Y-100342450D03*
D12*
X62922000Y-79003350D03*
X62922000Y-76078350D03*
D19*
X70705100Y-115691650D03*
X73630100Y-115691650D03*
D18*
X189753200Y-85722700D03*
X191653200Y-85722700D03*
X190703200Y-83847700D03*
D19*
X157439900Y-116560800D03*
X160364900Y-116560800D03*
D14*
X157784800Y-96622800D03*
X157784800Y-99922800D03*
D12*
X50222000Y-79003350D03*
X50222000Y-76078350D03*
D23*
X58273800Y-114378450D03*
X59543800Y-114378450D03*
X60813800Y-114378450D03*
X62083800Y-114378450D03*
X63353800Y-114378450D03*
X64623800Y-114378450D03*
X65893800Y-114378450D03*
X67163800Y-114378450D03*
X67163800Y-108978450D03*
X65893800Y-108978450D03*
X64623800Y-108978450D03*
X63353800Y-108978450D03*
X62083800Y-108978450D03*
X60813800Y-108978450D03*
X59543800Y-108978450D03*
X58273800Y-108978450D03*
D14*
X171958000Y-102401300D03*
X171958000Y-99101300D03*
D24*
X263916200Y-104792800D03*
X262646200Y-104792800D03*
X261376200Y-104792800D03*
X260106200Y-104792800D03*
X258836200Y-104792800D03*
X257566200Y-104792800D03*
X256296200Y-104792800D03*
X256296200Y-110192800D03*
X257566200Y-110192800D03*
X258836200Y-110192800D03*
X260106200Y-110192800D03*
X261376200Y-110192800D03*
X262646200Y-110192800D03*
X263916200Y-110192800D03*
D11*
X169570400Y-124648700D03*
X169570400Y-127573700D03*
D12*
X247964000Y-96915700D03*
X247964000Y-93990700D03*
D15*
X79144800Y-89732850D03*
X79144800Y-92682850D03*
D13*
X73175800Y-95029450D03*
X74445800Y-95029450D03*
X75715800Y-95029450D03*
X76985800Y-95029450D03*
X76985800Y-90129450D03*
X75715800Y-90129450D03*
X74445800Y-90129450D03*
X73175800Y-90129450D03*
D18*
X182641200Y-85722700D03*
X184541200Y-85722700D03*
X183591200Y-83847700D03*
D12*
X47682000Y-79003350D03*
X47682000Y-76078350D03*
D25*
X187764400Y-113131600D03*
X187764400Y-111861600D03*
X187764400Y-110591600D03*
X187764400Y-109321600D03*
X187764400Y-108051600D03*
X187764400Y-106781600D03*
X187764400Y-105511600D03*
X182364400Y-105511600D03*
X182364400Y-106781600D03*
X182364400Y-108051600D03*
X182364400Y-109321600D03*
X182364400Y-110591600D03*
X182364400Y-111861600D03*
X182364400Y-113131600D03*
D11*
X183997600Y-90485500D03*
X183997600Y-93410500D03*
D19*
X75785100Y-115691650D03*
X78710100Y-115691650D03*
D11*
X169519600Y-99390400D03*
X169519600Y-102315400D03*
X245576400Y-90434700D03*
X245576400Y-93359700D03*
X188874400Y-90485500D03*
X188874400Y-93410500D03*
D14*
X176936400Y-89701300D03*
X176936400Y-86401300D03*
X157683200Y-109221200D03*
X157683200Y-112521200D03*
D25*
X187756800Y-102971600D03*
X187756800Y-101701600D03*
X187756800Y-100431600D03*
X187756800Y-99161600D03*
X187756800Y-97891600D03*
X187756800Y-96621600D03*
X187756800Y-95351600D03*
X182356800Y-95351600D03*
X182356800Y-96621600D03*
X182356800Y-97891600D03*
X182356800Y-99161600D03*
X182356800Y-100431600D03*
X182356800Y-101701600D03*
X182356800Y-102971600D03*
D11*
X55302000Y-100208350D03*
X55302000Y-103133350D03*
D19*
X229141800Y-90794800D03*
X232066800Y-90794800D03*
D12*
X155041600Y-86984500D03*
X155041600Y-84059500D03*
D10*
X235961400Y-95808800D03*
X235961400Y-93908800D03*
X234086400Y-94858800D03*
D19*
X157338300Y-129159200D03*
X160263300Y-129159200D03*
X229141800Y-95417600D03*
X232066800Y-95417600D03*
D17*
X162638500Y-99354800D03*
X162638500Y-101254800D03*
X164513500Y-100304800D03*
D14*
X176885600Y-102401300D03*
X176885600Y-99101300D03*
D23*
X46691400Y-123370050D03*
X47961400Y-123370050D03*
X49231400Y-123370050D03*
X50501400Y-123370050D03*
X51771400Y-123370050D03*
X53041400Y-123370050D03*
X54311400Y-123370050D03*
X55581400Y-123370050D03*
X55581400Y-117970050D03*
X54311400Y-117970050D03*
X53041400Y-117970050D03*
X51771400Y-117970050D03*
X50501400Y-117970050D03*
X49231400Y-117970050D03*
X47961400Y-117970050D03*
X46691400Y-117970050D03*
D11*
X181559200Y-90485500D03*
X181559200Y-93410500D03*
D22*
X266496800Y-110192800D03*
X267766800Y-110192800D03*
X269036800Y-110192800D03*
X270306800Y-110192800D03*
X271576800Y-110192800D03*
X272846800Y-110192800D03*
X274116800Y-110192800D03*
X274116800Y-104792800D03*
X272846800Y-104792800D03*
X271576800Y-104792800D03*
X270306800Y-104792800D03*
X269036800Y-104792800D03*
X267766800Y-104792800D03*
X266496800Y-104792800D03*
D26*
X215595200Y-105000000D03*
X215595200Y-98200000D03*
D17*
X162435300Y-86654800D03*
X162435300Y-88554800D03*
X164310300Y-87604800D03*
D11*
X65462000Y-100208350D03*
X65462000Y-103133350D03*
X169519600Y-111999500D03*
X169519600Y-114924500D03*
D12*
X155143200Y-125084500D03*
X155143200Y-122159500D03*
D14*
X174396400Y-102401300D03*
X174396400Y-99101300D03*
D17*
X238099600Y-90403600D03*
X238099600Y-92303600D03*
X239974600Y-91353600D03*
D14*
X157480000Y-83922800D03*
X157480000Y-87222800D03*
X171958000Y-127659600D03*
X171958000Y-124359600D03*
D12*
X245576400Y-98084100D03*
X245576400Y-95159100D03*
D14*
X176834800Y-127659600D03*
X176834800Y-124359600D03*
D15*
X160121600Y-109396200D03*
X160121600Y-112346200D03*
D27*
X77517400Y-87550250D03*
X80467400Y-87550250D03*
D28*
X224660200Y-110915800D03*
X226360200Y-110915800D03*
X228060200Y-110915800D03*
D29*
X228060200Y-101765800D03*
D28*
X229760200Y-110915800D03*
X231460200Y-110915800D03*
D15*
X160070800Y-122096200D03*
X160070800Y-125046200D03*
D11*
X62922000Y-100208350D03*
X62922000Y-103133350D03*
D16*
X257334300Y-99315800D03*
X254409300Y-99315800D03*
D19*
X72805500Y-87550250D03*
X75730500Y-87550250D03*
D27*
X259222800Y-89308200D03*
X262172800Y-89308200D03*
D12*
X210058000Y-112460500D03*
X210058000Y-109535500D03*
D11*
X167132000Y-110881900D03*
X167132000Y-113806900D03*
D15*
X262374200Y-91389200D03*
X262374200Y-94339200D03*
D16*
X240194800Y-86984800D03*
X237269800Y-86984800D03*
D23*
X46742200Y-114378450D03*
X48012200Y-114378450D03*
X49282200Y-114378450D03*
X50552200Y-114378450D03*
X51822200Y-114378450D03*
X53092200Y-114378450D03*
X54362200Y-114378450D03*
X55632200Y-114378450D03*
X55632200Y-108978450D03*
X54362200Y-108978450D03*
X53092200Y-108978450D03*
X51822200Y-108978450D03*
X50552200Y-108978450D03*
X49282200Y-108978450D03*
X48012200Y-108978450D03*
X46742200Y-108978450D03*
D19*
X267033100Y-89359000D03*
X269958100Y-89359000D03*
D11*
X50222000Y-100208350D03*
X50222000Y-103133350D03*
D14*
X174447200Y-115010400D03*
X174447200Y-111710400D03*
D20*
X222382000Y-80446800D03*
D21*
X222382000Y-77906800D03*
X224922000Y-80446800D03*
X224922000Y-77906800D03*
X227462000Y-80446800D03*
X227462000Y-77906800D03*
X230002000Y-80446800D03*
X230002000Y-77906800D03*
X232542000Y-80446800D03*
X232542000Y-77906800D03*
X235082000Y-80446800D03*
X235082000Y-77906800D03*
X237622000Y-80446800D03*
X237622000Y-77906800D03*
X240162000Y-80446800D03*
X240162000Y-77906800D03*
X242702000Y-80446800D03*
X242702000Y-77906800D03*
X245242000Y-80446800D03*
X245242000Y-77906800D03*
X247782000Y-80446800D03*
X247782000Y-77906800D03*
X250322000Y-80446800D03*
X250322000Y-77906800D03*
X252862000Y-80446800D03*
X252862000Y-77906800D03*
X255402000Y-80446800D03*
X255402000Y-77906800D03*
X257942000Y-80446800D03*
X257942000Y-77906800D03*
X260482000Y-80446800D03*
X260482000Y-77906800D03*
X263022000Y-80446800D03*
X263022000Y-77906800D03*
X265562000Y-80446800D03*
X265562000Y-77906800D03*
X268102000Y-80446800D03*
X268102000Y-77906800D03*
X270642000Y-80446800D03*
X270642000Y-77906800D03*
D30*
X235610400Y-112625400D03*
X235610400Y-109675400D03*
D15*
X160274000Y-96747000D03*
X160274000Y-99697000D03*
D19*
X157135100Y-91059200D03*
X160060100Y-91059200D03*
X69251100Y-110490000D03*
X72176100Y-110490000D03*
D31*
X215646000Y-107784400D03*
X215646000Y-112484400D03*
D13*
X269029000Y-97295400D03*
X270299000Y-97295400D03*
X271569000Y-97295400D03*
X272839000Y-97295400D03*
X272839000Y-92395400D03*
X271569000Y-92395400D03*
X270299000Y-92395400D03*
X269029000Y-92395400D03*
D14*
X157581600Y-121972000D03*
X157581600Y-125272000D03*
D19*
X237930200Y-95468400D03*
X240855200Y-95468400D03*
D11*
X60382000Y-100208350D03*
X60382000Y-103133350D03*
D24*
X78720800Y-117970050D03*
X77450800Y-117970050D03*
X76180800Y-117970050D03*
X74910800Y-117970050D03*
X73640800Y-117970050D03*
X72370800Y-117970050D03*
X71100800Y-117970050D03*
X71100800Y-123370050D03*
X72370800Y-123370050D03*
X73640800Y-123370050D03*
X74910800Y-123370050D03*
X76180800Y-123370050D03*
X77450800Y-123370050D03*
X78720800Y-123370050D03*
D12*
X52762000Y-79003350D03*
X52762000Y-76078350D03*
D10*
X164310300Y-84998800D03*
X164310300Y-83098800D03*
X162435300Y-84048800D03*
D19*
X74432700Y-110560850D03*
X77357700Y-110560850D03*
X271859100Y-89359000D03*
X274784100Y-89359000D03*
D12*
X65462000Y-79003350D03*
X65462000Y-76078350D03*
D11*
X167182800Y-123531100D03*
X167182800Y-126456100D03*
D12*
X60432800Y-79003350D03*
X60432800Y-76078350D03*
D17*
X234086400Y-90403600D03*
X234086400Y-92303600D03*
X235961400Y-91353600D03*
D19*
X254510900Y-89308200D03*
X257435900Y-89308200D03*
D17*
X162384500Y-112004000D03*
X162384500Y-113904000D03*
X164259500Y-112954000D03*
D18*
X186197200Y-85722700D03*
X188097200Y-85722700D03*
X187147200Y-83847700D03*
D23*
X58273800Y-123370050D03*
X59543800Y-123370050D03*
X60813800Y-123370050D03*
X62083800Y-123370050D03*
X63353800Y-123370050D03*
X64623800Y-123370050D03*
X65893800Y-123370050D03*
X67163800Y-123370050D03*
X67163800Y-117970050D03*
X65893800Y-117970050D03*
X64623800Y-117970050D03*
X63353800Y-117970050D03*
X62083800Y-117970050D03*
X60813800Y-117970050D03*
X59543800Y-117970050D03*
X58273800Y-117970050D03*
D14*
X176885600Y-115010400D03*
X176885600Y-111710400D03*
D30*
X220624400Y-112625400D03*
X220624400Y-109675400D03*
D11*
X167182800Y-85522000D03*
X167182800Y-88447000D03*
X47682000Y-100208350D03*
X47682000Y-103133350D03*
D12*
X155244800Y-99684500D03*
X155244800Y-96759500D03*
X155194000Y-112333700D03*
X155194000Y-109408700D03*
D16*
X80386500Y-113253250D03*
X77461500Y-113253250D03*
D12*
X45142000Y-79003350D03*
X45142000Y-76078350D03*
D32*
X145821400Y-99696099D03*
X150901400Y-99696099D03*
D33*
X185818700Y-117850400D03*
D34*
X185818700Y-123850400D03*
D35*
X181118700Y-120850400D03*
D36*
X156377599Y-75006000D03*
X161377599Y-75006000D03*
X166377600Y-75006000D03*
X171377600Y-75006000D03*
X176377600Y-75006000D03*
X181377600Y-75006000D03*
X186377600Y-75006000D03*
X191377600Y-75006000D03*
X196377601Y-75006000D03*
D20*
X194162600Y-95859600D03*
D21*
X196702600Y-95859600D03*
X199242600Y-95859600D03*
X201782600Y-95859600D03*
X204322600Y-95859600D03*
D20*
X199288400Y-100939600D03*
D21*
X201828400Y-100939600D03*
X204368400Y-100939600D03*
D37*
X65462000Y-97251250D03*
X62922000Y-97251250D03*
X60382000Y-97251250D03*
X57842000Y-97251250D03*
X55302000Y-97251250D03*
X52762000Y-97251250D03*
X50222000Y-97251250D03*
X47682000Y-97251250D03*
X45142000Y-97251250D03*
X65462000Y-82011250D03*
X62922000Y-82011250D03*
X60382000Y-82011250D03*
X57842000Y-82011250D03*
X55302000Y-82011250D03*
X52762000Y-82011250D03*
X50222000Y-82011250D03*
X47682000Y-82011250D03*
X45142000Y-82011250D03*
D36*
X91150399Y-78257200D03*
X96150399Y-78257200D03*
X101150400Y-78257200D03*
X106150400Y-78257200D03*
X111150400Y-78257200D03*
X116150400Y-78257200D03*
X121150400Y-78257200D03*
X126150400Y-78257200D03*
X131150401Y-78257200D03*
D33*
X197655100Y-117850400D03*
D34*
X197655100Y-123850400D03*
D35*
X192955100Y-120850400D03*
D36*
X91186000Y-94488000D03*
X96186000Y-94488000D03*
X101186001Y-94488000D03*
X106186001Y-94488000D03*
X111186001Y-94488000D03*
X116186001Y-94488000D03*
X121186001Y-94488000D03*
X126186001Y-94488000D03*
X131186002Y-94488000D03*
D32*
X145872200Y-86996099D03*
X150952200Y-86996099D03*
D36*
X91150399Y-126720400D03*
X96150399Y-126720400D03*
X101150400Y-126720400D03*
X106150400Y-126720400D03*
X111150400Y-126720400D03*
X116150400Y-126720400D03*
X121150400Y-126720400D03*
X126150400Y-126720400D03*
X131150401Y-126720400D03*
D32*
X145821400Y-112345299D03*
X150901400Y-112345299D03*
X145821400Y-125096099D03*
X150901400Y-125096099D03*
D36*
X91150399Y-110693200D03*
X96150399Y-110693200D03*
X101150400Y-110693200D03*
X106150400Y-110693200D03*
X111150400Y-110693200D03*
X116150400Y-110693200D03*
X121150400Y-110693200D03*
X126150400Y-110693200D03*
X131150401Y-110693200D03*
D33*
X209440700Y-117850400D03*
D34*
X209440700Y-123850400D03*
D35*
X204740700Y-120850400D03*
D20*
X198841200Y-109880400D03*
D21*
X201381200Y-109880400D03*
X203921200Y-109880400D03*
X206461200Y-109880400D03*
M02*
